<svg version="1.0" width="470.000000pt" height="512.000000pt" viewBox="0 0 470.000000 512.000000"
  preserveAspectRatio="xMidYMid meet">
  <defs>
    <linearGradient id="Gradient1" x1="0" x2="0" y1="0" y2="1">
      <stop offset="0%" stop-color="#321B5F" />
      <stop offset="100%" stop-color="#7B50C6" />
    </linearGradient>
  </defs>

  <g transform="translate(0.000000,512.000000) scale(0.100000,-0.100000)" fill="url(#Gradient1)" stroke="none">
    <path d="M1544 4867 c-61 -51 -273 -226 -472 -391 -281 -233 -361 -304 -364
-325 -2 -14 -2 -573 -1 -1241 3 -1368 0 -1308 79 -1550 80 -243 214 -460 394
-640 116 -115 215 -188 336 -249 44 -22 259 -104 479 -184 500 -181 572 -196
771 -162 98 18 177 46 261 96 40 24 194 170 501 474 244 242 448 448 454 458
8 15 2 14 -41 -7 -98 -50 -194 -70 -336 -70 -88 0 -152 5 -196 17 -84 20 -857
301 -924 334 -256 129 -521 409 -660 699 -70 145 -111 267 -142 429 -15 81
-18 206 -23 1247 l-5 1157 -111 -92z" />
    <path d="M3368 3760 l-468 -390 0 -749 c0 -587 3 -751 13 -758 25 -19 584
-216 642 -225 106 -18 187 19 242 111 58 97 58 103 55 821 -1 360 -2 863 -2
1118 0 254 -3 462 -7 462 -5 0 -218 -176 -475 -390z" />
  </g>
</svg>
