<?xml version="1.0" standalone="no"?>
<!DOCTYPE svg PUBLIC "-//W3C//DTD SVG 20010904//EN"
 "http://www.w3.org/TR/2001/REC-SVG-20010904/DTD/svg10.dtd">
<svg version="1.0" xmlns="http://www.w3.org/2000/svg"
 width="626.000000pt" height="494.000000pt" viewBox="0 0 626.000000 494.000000"
 preserveAspectRatio="xMidYMid meet">

<g transform="translate(0.000000,494.000000) scale(0.100000,-0.100000)"
fill="#000000" stroke="none">
<path d="M2990 4235 c-7 -9 -11 -17 -9 -20 3 -2 10 5 17 15 14 24 10 26 -8 5z"/>
<path d="M3030 4184 c6 -14 15 -34 20 -45 17 -31 -6 -22 -34 14 -22 28 -26 29
-26 11 0 -23 34 -58 65 -68 11 -3 28 -19 37 -36 16 -28 16 -30 0 -30 -10 0
-23 5 -30 12 -6 6 -15 8 -19 4 -11 -11 26 -36 53 -36 14 0 33 -13 48 -33 31
-40 34 -63 9 -52 -34 14 -61 17 -77 8 -28 -15 119 -35 184 -24 30 5 60 6 67 4
25 -10 13 7 -16 21 -26 14 -30 14 -41 1 -13 -15 -80 -21 -80 -7 1 9 19 91 26
115 3 9 1 17 -5 17 -6 0 -17 -21 -25 -47 -16 -52 -18 -51 -20 17 0 25 -5 46
-11 47 -5 2 -8 -14 -7 -35 l3 -37 -24 34 c-19 29 -22 40 -14 61 11 30 1 100
-14 100 -6 0 -8 -17 -3 -45 8 -60 -7 -57 -34 5 -23 51 -50 73 -32 24z"/>
<path d="M2972 4150 c0 -19 2 -27 5 -17 2 9 2 25 0 35 -3 9 -5 1 -5 -18z"/>
<path d="M3328 4143 c6 -2 18 -2 25 0 6 3 1 5 -13 5 -14 0 -19 -2 -12 -5z"/>
<path d="M3289 4099 c-6 -12 -9 -32 -6 -45 2 -15 -3 -30 -14 -40 -18 -16 -19
-16 -19 14 0 18 -4 32 -10 32 -5 0 -10 -19 -10 -43 0 -24 -5 -48 -12 -55 -25
-25 3 -23 32 2 17 14 37 26 44 26 16 0 46 32 46 50 0 9 -10 5 -26 -11 -24 -21
-23 -19 6 22 18 26 30 53 28 60 -2 7 -13 -2 -26 -22 -23 -37 -28 -35 -12 5 12
32 -4 35 -21 5z"/>
<path d="M5182 4080 c-1 -22 -10 -42 -22 -53 -30 -26 -30 -69 1 -103 11 -11
17 -22 15 -25 -3 -2 -59 -175 -125 -384 -67 -209 -124 -388 -127 -397 -3 -10
0 -18 6 -18 6 0 21 -7 35 -16 21 -14 22 -18 12 -42 -22 -51 -50 -90 -71 -101
-17 -8 -17 -10 -4 -10 9 -1 25 11 36 26 11 16 23 26 26 23 3 -3 6 -30 8 -60 3
-49 1 -55 -22 -68 -25 -13 -25 -13 6 -7 29 6 31 4 27 -19 -4 -17 -1 -26 7 -26
9 0 11 12 7 43 -8 57 8 176 26 194 9 10 23 13 36 8 l21 -6 -20 -26 c-16 -21
-20 -41 -20 -105 0 -81 -11 -118 -34 -118 -7 0 -16 -13 -19 -30 -4 -19 -18
-37 -39 -50 -36 -22 -33 -26 6 -9 13 7 30 25 37 42 7 16 23 40 36 53 17 17 23
34 23 65 0 48 8 46 20 -3 8 -32 8 -32 9 -5 1 15 -6 42 -15 59 -29 57 6 134 56
121 19 -5 19 -6 0 -44 -15 -29 -20 -58 -20 -127 0 -86 -1 -89 -32 -119 -18
-17 -40 -33 -48 -36 -13 -5 -12 -6 1 -6 9 -1 31 13 48 31 21 21 32 27 33 17 1
-8 4 38 7 101 5 92 10 122 26 145 27 41 30 19 11 -86 -8 -50 -11 -90 -5 -99 7
-13 8 -12 9 2 0 10 7 26 14 35 8 10 24 29 34 43 l20 25 11 -45 10 -45 -3 65
c-5 116 17 162 49 99 17 -32 17 -64 1 -244 -4 -48 -2 -41 10 33 6 36 23 43 25
10 1 -19 2 -20 6 -4 3 10 0 23 -6 29 -6 6 -11 42 -11 79 0 38 -6 84 -14 103
-17 39 -7 52 24 33 30 -19 50 -69 52 -135 l1 -58 6 60 6 60 18 -48 c10 -26 27
-52 38 -57 17 -10 19 -7 19 30 0 47 10 50 39 13 l21 -28 -11 27 c-7 15 -20 30
-30 33 -10 3 -23 23 -30 43 -6 20 -20 49 -30 64 -11 14 -19 28 -19 31 0 2 18
12 40 22 22 10 40 22 40 26 0 4 -63 184 -141 401 -109 304 -138 396 -130 408
34 46 32 86 -5 115 -7 6 -15 26 -17 45 l-4 35 -1 -35z m38 -95 c0 -38 -11 -55
-35 -55 -37 0 -51 70 -18 89 25 13 53 -5 53 -34z m35 -505 c30 -184 58 -347
61 -361 5 -24 2 -27 -38 -33 -107 -16 -122 -16 -147 5 l-24 19 39 371 c21 204
42 362 46 352 4 -10 32 -169 63 -353z m-123 -13 l-37 -357 -25 0 c-14 0 -31
-4 -38 -9 -15 -9 -92 7 -92 19 0 4 41 135 90 291 50 156 100 315 112 352 11
37 22 66 24 64 2 -2 -13 -164 -34 -360z m193 48 c54 -149 108 -300 120 -337
l23 -66 -64 -12 c-36 -7 -67 -11 -69 -8 -2 2 -29 154 -60 338 -31 184 -58 346
-61 360 -12 59 19 -19 111 -275z m-235 -425 c0 -5 -9 -10 -19 -10 -11 0 -23 5
-26 10 -4 6 5 10 19 10 14 0 26 -4 26 -10z m-80 -50 c-6 -11 -15 -20 -21 -20
-6 0 -6 7 1 20 6 11 15 20 21 20 6 0 6 -7 -1 -20z m417 -44 c8 -15 13 -37 10
-47 -3 -11 -1 -19 4 -19 5 0 9 -17 9 -37 l-1 -38 -20 25 c-12 14 -19 33 -16
47 2 12 1 21 -2 19 -3 -2 -23 18 -44 45 l-39 49 24 9 c27 10 51 -7 75 -53z
m-192 15 c-4 -9 -9 -29 -12 -46 -6 -28 -63 -119 -70 -111 -4 4 14 129 22 156
3 9 18 15 35 16 25 1 30 -2 25 -15z m-248 -48 c-3 -10 -5 -2 -5 17 0 19 2 27
5 18 2 -10 2 -26 0 -35z"/>
<path d="M5167 4003 c-12 -11 -8 -40 7 -52 10 -9 16 -8 25 3 23 27 -8 74 -32
49z m25 -35 c-15 -15 -26 -4 -18 18 5 13 9 15 18 6 9 -9 9 -15 0 -24z"/>
<path d="M3371 4084 c0 -11 3 -14 6 -6 3 7 2 16 -1 19 -3 4 -6 -2 -5 -13z"/>
<path d="M1890 3875 l0 -185 -237 -3 -238 -2 243 -3 242 -2 0 190 c0 105 -2
190 -5 190 -3 0 -5 -83 -5 -185z"/>
<path d="M2598 4049 c-10 -5 -18 -15 -18 -21 0 -6 59 -89 130 -185 l130 -173
-105 0 -105 0 0 -25 c0 -25 1 -25 88 -26 48 -1 103 0 123 1 37 1 38 0 188
-199 l152 -201 -185 0 -184 0 29 29 c35 35 40 81 9 81 -13 0 -18 -5 -14 -15 4
-8 2 -15 -4 -15 -12 0 -23 26 -15 34 4 3 15 6 27 6 14 0 17 3 9 11 -7 7 -22 8
-47 1 -24 -7 -47 -7 -71 1 -26 8 -38 8 -47 -1 -9 -9 -6 -12 12 -13 14 0 19 -3
13 -6 -10 -3 -10 -10 -2 -26 10 -22 10 -22 -10 1 -25 28 -31 28 -31 -2 0 -13
13 -38 29 -54 l28 -31 -46 -3 c-42 -3 -46 -5 -46 -28 l0 -25 295 -3 295 -2
150 -200 c139 -185 152 -200 181 -200 30 0 42 13 173 189 78 104 148 195 156
201 9 7 106 12 302 13 l288 2 3 28 c3 26 2 27 -47 27 -42 0 -51 3 -51 18 0 14
-10 17 -60 17 -54 0 -65 -5 -61 -27 0 -5 -10 -8 -23 -8 -18 0 -23 4 -20 18 4
15 -2 17 -58 15 -51 -1 -63 -4 -62 -17 2 -13 -11 -16 -78 -16 -64 0 -77 3 -71
14 4 7 71 97 148 200 l140 186 122 0 123 0 0 25 0 25 -100 0 c-55 0 -100 3
-100 6 0 3 56 79 125 170 69 90 125 169 125 177 0 36 -11 37 -586 37 l-563 0
-18 -30 c-9 -16 -22 -31 -28 -32 -5 -2 229 -5 520 -8 483 -5 530 -6 529 -21
-1 -9 -50 -80 -109 -158 l-107 -141 -611 0 -612 0 -113 150 c-62 83 -110 155
-107 160 4 6 76 10 171 10 l166 0 -33 35 -33 35 -191 0 c-110 0 -197 -5 -207
-11z m902 -408 c0 -15 32 -22 45 -11 9 8 15 8 20 0 8 -14 172 -13 181 1 4 8 9
8 17 0 7 -7 73 -11 184 -11 95 0 173 -3 173 -7 0 -7 -136 -190 -157 -211 -7
-8 -11 -18 -8 -23 4 -5 2 -9 -3 -9 -5 0 -35 -33 -65 -74 -38 -50 -64 -75 -81
-78 -31 -6 -49 12 -40 38 6 16 2 15 -22 -6 -25 -22 -26 -22 -10 -2 11 12 15
22 11 22 -5 0 -4 5 3 12 9 9 7 14 -6 24 -15 12 -15 13 -1 14 25 0 38 -21 35
-58 -1 -17 1 -32 6 -32 20 0 79 65 87 98 12 42 10 47 -17 33 -23 -12 -154 -33
-161 -25 -3 3 1 9 9 14 11 7 8 10 -12 10 -16 0 -28 -4 -28 -10 0 -16 -27 -12
-34 5 -4 11 -21 15 -60 15 -49 0 -54 -2 -49 -20 3 -11 10 -20 17 -19 22 3 36
-1 36 -10 0 -5 -9 -7 -20 -4 -25 7 -26 -8 -2 -36 l17 -22 29 30 c37 39 56 40
56 4 0 -22 2 -25 10 -13 8 12 10 10 10 -8 0 -13 4 -21 9 -18 5 4 8 -2 6 -11
-2 -10 -4 -20 -4 -23 -1 -3 -5 1 -10 9 -8 12 -12 12 -33 0 -18 -11 -57 -13
-190 -9 l-166 5 -146 192 c-80 106 -146 194 -146 197 0 4 106 6 235 6 202 0
235 2 235 15 0 8 9 15 20 15 11 0 20 -4 20 -9z m-707 -341 c-3 -12 -8 -19 -11
-16 -5 6 5 36 12 36 2 0 2 -9 -1 -20z m-33 -4 c0 -3 -4 -8 -10 -11 -5 -3 -10
-1 -10 4 0 6 5 11 10 11 6 0 10 -2 10 -4z m950 -11 c-14 -17 -30 -20 -30 -4 0
5 4 8 9 4 5 -3 12 -1 16 5 3 5 9 10 12 10 3 0 0 -7 -7 -15z m-986 -14 c3 -5
-1 -11 -9 -14 -9 -4 -12 -1 -8 9 6 16 10 17 17 5z m109 -6 c4 -8 1 -17 -5 -21
-7 -4 -8 -3 -4 4 4 7 2 12 -3 12 -6 0 -11 5 -11 10 0 15 17 12 23 -5z m987 6
c0 -5 -7 -12 -16 -15 -14 -5 -15 -4 -4 9 14 17 20 19 20 6z m-1020 -11 c0 -5
-4 -10 -10 -10 -5 0 -10 5 -10 10 0 6 5 10 10 10 6 0 10 -4 10 -10z m-30 -10
c0 -5 -5 -10 -11 -10 -5 0 -7 5 -4 10 3 6 8 10 11 10 2 0 4 -4 4 -10z m1010
-91 c0 -9 -201 -272 -214 -281 -5 -4 -14 -4 -18 -2 -13 9 -217 281 -213 285 6
7 445 4 445 -2z"/>
<path d="M3470 3620 c0 -5 5 -10 10 -10 6 0 10 5 10 10 0 6 -4 10 -10 10 -5 0
-10 -4 -10 -10z"/>
<path d="M3766 3601 c-4 -7 -5 -15 -2 -18 9 -9 19 4 14 18 -4 11 -6 11 -12 0z"/>
<path d="M3690 3570 c0 -5 5 -10 10 -10 6 0 10 5 10 10 0 6 -4 10 -10 10 -5 0
-10 -4 -10 -10z"/>
<path d="M3560 3529 c0 -5 5 -7 10 -4 6 3 10 8 10 11 0 2 -4 4 -10 4 -5 0 -10
-5 -10 -11z"/>
<path d="M3650 3490 c0 -5 5 -10 10 -10 6 0 10 5 10 10 0 6 -4 10 -10 10 -5 0
-10 -4 -10 -10z"/>
<path d="M3565 3440 c-3 -5 -1 -10 4 -10 6 0 11 5 11 10 0 6 -2 10 -4 10 -3 0
-8 -4 -11 -10z"/>
<path d="M3836 3431 c-3 -5 3 -11 13 -14 14 -3 18 -1 14 9 -6 16 -19 18 -27 5z"/>
<path d="M3920 3400 c0 -5 5 -10 10 -10 6 0 10 5 10 10 0 6 -4 10 -10 10 -5 0
-10 -4 -10 -10z"/>
<path d="M3750 3360 c0 -13 40 -13 60 0 11 7 5 10 -22 10 -21 0 -38 -4 -38
-10z"/>
<path d="M3600 3281 l-21 -30 22 -11 c29 -16 50 5 42 43 -7 35 -17 34 -43 -2z"/>
<path d="M1593 3983 c37 -2 96 -2 130 0 34 2 4 3 -68 3 -71 0 -99 -1 -62 -3z"/>
<path d="M3070 3986 c0 -2 8 -10 18 -17 15 -13 16 -12 3 4 -13 16 -21 21 -21
13z"/>
<path d="M1558 3713 c50 -2 134 -2 185 0 50 1 9 3 -93 3 -102 0 -143 -2 -92
-3z"/>
<path d="M2133 3653 c9 -2 25 -2 35 0 9 3 1 5 -18 5 -19 0 -27 -2 -17 -5z"/>
<path d="M2032 3540 c0 -14 2 -19 5 -12 2 6 2 18 0 25 -3 6 -5 1 -5 -13z"/>
<path d="M2272 3530 c0 -19 2 -27 5 -17 2 9 2 25 0 35 -3 9 -5 1 -5 -18z"/>
<path d="M2065 3450 c10 -11 20 -20 23 -20 3 0 -3 9 -13 20 -10 11 -20 20 -23
20 -3 0 3 -9 13 -20z"/>
<path d="M4273 3433 c-18 -6 -17 -63 1 -63 16 0 26 28 17 51 -3 9 -12 14 -18
12z"/>
<path d="M4100 3296 c0 -17 5 -26 16 -26 10 0 14 7 12 22 -5 32 -28 35 -28 4z"/>
<path d="M1409 3198 c-22 -24 -42 -54 -46 -67 -3 -13 -42 -69 -87 -125 -45
-55 -132 -165 -194 -244 -94 -118 -117 -142 -133 -137 -29 10 -49 -12 -49 -54
0 -29 -10 -51 -45 -96 -32 -41 -45 -66 -43 -84 4 -35 33 -39 65 -9 l25 23 -6
-440 c-3 -242 -9 -594 -12 -782 l-6 -342 -32 -11 c-17 -5 -46 -23 -64 -40 -18
-16 -51 -38 -75 -48 -41 -18 -75 -48 -65 -57 3 -3 133 -4 289 -3 l284 3 -28
27 c-15 14 -40 29 -55 33 -15 3 -41 20 -58 36 -17 16 -53 38 -80 48 l-49 19 2
104 c1 57 5 426 9 820 l6 718 85 107 c47 60 144 182 216 273 72 91 134 169
139 175 12 14 28 -13 28 -48 0 -26 74 -170 108 -209 8 -10 27 -18 42 -18 30 0
101 44 145 90 25 26 27 30 10 29 -32 -3 -55 0 -55 9 0 10 89 126 99 130 6 2
16 -9 24 -23 l14 -27 22 51 c53 125 41 150 -91 181 -68 16 -110 21 -155 16
-36 -3 -65 -1 -68 4 -4 6 -22 10 -42 10 -29 0 -42 -8 -74 -42z"/>
<path d="M2210 2939 c-14 -6 -42 -8 -63 -5 -45 7 -106 -7 -136 -32 -14 -11
-23 -31 -25 -57 -2 -22 -9 -54 -17 -72 -11 -28 -11 -40 5 -88 l17 -56 -66
-147 c-37 -81 -74 -153 -83 -159 -15 -12 -15 -13 0 -13 9 0 19 -4 22 -9 10
-15 -53 4 -160 48 -111 45 -149 52 -140 24 5 -19 36 -152 36 -157 0 -2 -8 -6
-19 -9 -16 -4 -19 -13 -17 -63 2 -71 6 -80 46 -87 18 -4 30 -13 30 -22 0 -13
-23 -15 -152 -17 l-153 -2 170 -7 c94 -4 181 -10 195 -14 14 -3 73 -41 131
-84 l105 -78 93 -474 c51 -261 98 -496 104 -524 l12 -50 114 -3 c127 -3 131
-1 131 61 0 35 1 37 34 37 33 0 34 -1 40 -53 4 -29 4 -62 0 -72 -10 -29 -45
-65 -63 -66 -10 0 -11 -3 -4 -5 19 -8 52 14 69 48 11 22 15 48 12 90 l-4 58
472 0 473 0 -19 42 c-25 55 -25 89 0 116 26 28 37 28 43 0 2 -13 5 -3 6 22 1
58 -13 107 -40 136 -12 12 -19 29 -17 36 3 7 -13 34 -34 61 -23 26 -38 54 -35
62 7 18 -46 77 -65 71 -7 -3 -26 11 -42 30 l-29 35 33 65 c60 117 49 227 -30
316 -40 46 -145 109 -168 101 -7 -3 -11 0 -10 7 2 6 -23 21 -55 33 -32 13 -62
29 -66 36 -5 7 -13 11 -19 7 -5 -3 -13 1 -16 10 -3 8 -10 12 -16 9 -5 -3 -18
-1 -27 4 -17 10 -17 10 0 11 9 0 17 5 17 10 0 6 -4 10 -8 10 -7 0 -42 163 -42
193 0 4 187 7 415 7 228 0 415 -4 415 -8 0 -5 -31 -181 -70 -392 -38 -211 -68
-385 -66 -388 6 -5 15 44 87 441 l63 347 497 0 c298 0 500 -4 504 -9 5 -9 -15
-208 -31 -301 -3 -22 -2 -31 4 -25 11 12 44 309 36 330 -5 13 -68 15 -503 15
-1140 0 -1526 5 -1524 17 4 20 -104 100 -159 117 -28 8 -19 80 13 105 34 26
40 62 22 124 -9 31 -12 64 -8 89 7 38 5 42 -40 83 -54 50 -137 95 -174 94 -15
0 -37 -5 -51 -10z m-33 -394 c-6 -15 -47 -22 -47 -7 0 8 42 30 49 25 2 -1 1
-9 -2 -18z m8 -105 c19 0 19 -10 -1 -71 l-16 -49 -49 0 c-26 0 -50 4 -53 8 -3
5 1 33 8 63 8 30 17 67 20 82 l7 28 35 -30 c19 -17 41 -31 49 -31z m270 -40
c3 -5 -3 -10 -14 -10 -12 0 -21 5 -21 10 0 6 6 10 14 10 8 0 18 -4 21 -10z
m-89 -32 c-9 -13 -23 -40 -32 -60 -9 -21 -22 -38 -30 -38 -10 0 -8 6 6 20 11
11 20 25 20 30 0 11 41 70 48 70 2 0 -3 -10 -12 -22z m189 -18 c3 -5 -3 -10
-14 -10 -12 0 -21 5 -21 10 0 6 6 10 14 10 8 0 18 -4 21 -10z m-180 -38 c-3
-3 -11 0 -18 7 -9 10 -8 11 6 5 10 -3 15 -9 12 -12z m95 8 c12 -8 11 -10 -7
-10 -13 0 -23 5 -23 10 0 13 11 13 30 0z m-286 -25 c4 -13 2 -13 -13 -5 -15 7
-31 5 -66 -10 -59 -26 -63 -25 -57 5 4 24 8 25 67 25 47 0 64 -4 69 -15z m441
5 c8 -13 -15 -13 -35 0 -12 8 -11 10 7 10 12 0 25 -4 28 -10z m156 -70 c9 -44
14 -82 11 -84 -2 -3 -17 10 -33 28 -19 22 -36 33 -51 31 -13 -1 -15 0 -5 2 24
6 22 12 -25 60 l-42 43 65 0 65 0 15 -80z m-1011 25 c23 -12 30 -22 30 -45 0
-33 -14 -38 -44 -15 -11 8 -28 15 -38 15 -10 0 -18 7 -18 18 0 9 -3 27 -6 40
-6 21 -4 22 20 12 14 -5 40 -17 56 -25z m135 -100 c10 -44 20 -86 23 -95 3
-10 2 -12 -6 -5 -10 9 -52 172 -52 198 1 27 19 -23 35 -98z m538 98 c-7 -2
-19 -2 -25 0 -7 3 -2 5 12 5 14 0 19 -2 13 -5z m97 -3 c0 -12 -8 -12 -35 0
-18 8 -17 9 8 9 15 1 27 -3 27 -9z m-341 -24 c-2 -2 -14 -9 -26 -15 -19 -10
-23 -9 -23 4 0 10 9 15 27 15 14 0 24 -2 22 -4z m41 -6 c0 -5 -2 -10 -4 -10
-3 0 -8 5 -11 10 -3 6 -1 10 4 10 6 0 11 -4 11 -10z m385 0 c3 -5 -1 -10 -9
-10 -9 0 -16 5 -16 10 0 6 4 10 9 10 6 0 13 -4 16 -10z m-341 -24 c-3 -9 -12
-12 -22 -9 -15 6 -9 11 25 22 1 1 0 -5 -3 -13z m121 -6 c3 -5 -1 -10 -9 -10
-8 0 -18 5 -21 10 -3 6 1 10 9 10 8 0 18 -4 21 -10z m118 3 c-7 -2 -19 -2 -25
0 -7 3 -2 5 12 5 14 0 19 -2 13 -5z m-198 -34 c-3 -4 -12 -6 -20 -3 -8 4 -13
10 -10 15 3 4 12 6 20 3 8 -4 13 -10 10 -15z m301 6 c-3 -10 1 -15 11 -15 22
0 8 -13 -16 -15 -16 -1 -17 2 -8 22 11 25 23 32 13 8z m-386 -5 c0 -5 -9 -10
-20 -10 -11 0 -20 5 -20 10 0 6 9 10 20 10 11 0 20 -4 20 -10z m-87 -45 c-4
-28 -2 -35 11 -35 9 0 16 -5 16 -11 0 -6 -7 -8 -16 -5 -9 3 -18 6 -20 6 -2 0
-4 18 -4 40 0 22 4 40 9 40 6 0 7 -16 4 -35z m577 25 c12 -8 11 -10 -7 -10
-13 0 -23 5 -23 10 0 13 11 13 30 0z m-155 -11 c-5 -6 -55 0 -55 7 0 3 13 3
29 2 16 -1 28 -5 26 -9z m-197 -9 c20 0 23 -3 14 -12 -9 -9 -19 -8 -44 5 -18
10 -25 15 -15 12 10 -3 30 -5 45 -5z m-128 -19 c0 -17 -18 -21 -24 -6 -3 9 0
15 9 15 8 0 15 -4 15 -9z m215 -1 c3 -5 -3 -10 -14 -10 -12 0 -21 5 -21 10 0
6 6 10 14 10 8 0 18 -4 21 -10z m-34 -27 c13 -17 13 -17 -6 -3 -11 8 -22 16
-24 17 -2 2 0 3 6 3 6 0 17 -8 24 -17z m309 7 c0 -13 -11 -13 -30 0 -12 8 -11
10 8 10 12 0 22 -4 22 -10z m-110 -10 c12 -8 11 -10 -7 -10 -13 0 -23 5 -23
10 0 13 11 13 30 0z m-80 -4 c0 -11 -19 -15 -25 -6 -3 5 1 10 9 10 9 0 16 -2
16 -4z m-371 -53 c2 -2 -5 -3 -17 -3 -14 0 -22 6 -22 16 0 14 3 15 18 3 9 -7
19 -15 21 -16z m441 13 c0 -2 -7 -7 -16 -10 -8 -3 -12 -2 -9 4 6 10 25 14 25
6z m200 -5 c0 -6 -17 -7 -37 -4 -52 8 -54 13 -5 13 23 0 42 -4 42 -9z m100 -6
c5 3 10 1 10 -4 0 -7 -20 -10 -47 -10 -27 1 -38 4 -25 6 12 2 22 9 22 15 0 7
5 6 15 -2 8 -6 19 -9 25 -5z m-386 -17 c-5 -8 -2 -9 10 -5 12 5 16 3 14 -5 -3
-7 -14 -14 -26 -14 -18 -1 -20 2 -11 17 5 11 12 19 15 19 3 0 2 -5 -2 -12z
m-393 -5 c0 -5 2 -16 4 -25 4 -21 6 -21 -34 -7 -17 6 -31 15 -31 19 0 7 10 11
53 19 4 0 7 -2 8 -6z m856 -9 c-3 -3 -12 -4 -19 -1 -8 3 -5 6 6 6 11 1 17 -2
13 -5z m-465 -36 c-7 -7 -12 -39 -12 -72 0 -32 -3 -56 -7 -52 -4 4 -6 23 -5
43 2 31 0 35 -17 30 -14 -3 -18 -1 -14 10 3 8 12 12 19 9 8 -3 14 0 14 7 0 13
19 37 29 37 3 0 0 -5 -7 -12z m-72 -102 c0 -3 -4 -8 -10 -11 -5 -3 -10 -1 -10
4 0 6 5 11 10 11 6 0 10 -2 10 -4z m-370 -119 c111 -76 117 -78 165 -75 28 3
58 8 68 12 15 7 17 2 17 -45 0 -30 9 -225 20 -434 11 -209 16 -383 11 -388 -4
-4 -54 -6 -111 -5 l-104 3 -7 30 c-5 17 -49 237 -99 490 -49 253 -93 471 -96
483 -6 28 -17 34 136 -71z m476 -13 c16 12 17 16 4 31 -8 10 -28 24 -45 31
-20 9 -24 13 -12 14 12 0 16 4 11 13 -4 6 11 -7 34 -30 l41 -42 -31 -33 c-77
-82 -77 -190 -2 -259 26 -24 143 -100 478 -309 65 -41 121 -82 123 -91 5 -16
71 -56 86 -51 11 3 147 -80 147 -91 0 -4 -225 -6 -500 -5 -385 2 -503 6 -508
15 -5 7 -16 184 -26 392 l-18 380 21 29 c11 16 26 42 33 58 11 25 13 10 20
-126 5 -85 13 -184 17 -220 l10 -65 -5 80 c-2 44 -6 150 -9 235 l-6 155 59
-62 c53 -56 61 -61 78 -49z"/>
<path d="M5381 2812 c-1 -22 32 -61 53 -62 5 0 -3 9 -17 20 -14 11 -28 30 -30
43 -4 22 -4 22 -6 -1z"/>
<path d="M5462 2805 c0 -16 2 -22 5 -12 2 9 2 23 0 30 -3 6 -5 -1 -5 -18z"/>
<path d="M5071 2794 c0 -11 3 -14 6 -6 3 7 2 16 -1 19 -3 4 -6 -2 -5 -13z"/>
<path d="M5221 2801 c0 -8 -11 -26 -23 -40 l-23 -26 22 19 c21 17 23 17 29 2
4 -9 4 -34 1 -54 -5 -31 -4 -34 5 -15 8 16 8 39 1 75 -6 29 -11 47 -12 39z"/>
<path d="M5152 2727 c-1 -38 -9 -81 -17 -97 -9 -17 -13 -30 -11 -30 3 0 13 14
21 30 11 22 15 51 12 98 l-3 67 -2 -68z"/>
<path d="M5470 2764 c0 -17 38 -47 52 -41 9 4 7 6 -4 6 -9 1 -24 11 -32 23 -9
12 -16 18 -16 12z"/>
<path d="M5080 2715 c-7 -9 -11 -17 -9 -20 3 -2 10 5 17 15 14 24 10 26 -8 5z"/>
<path d="M5333 2706 c1 -17 9 -31 17 -33 10 -3 11 -2 4 4 -7 4 -14 19 -17 33
-4 22 -5 21 -4 -4z"/>
<path d="M1644 2500 c-38 -44 -71 -85 -73 -92 -2 -7 29 25 68 70 40 45 80 86
89 92 15 8 15 9 1 10 -8 0 -46 -36 -85 -80z"/>
<path d="M5146 1898 c-10 -16 -16 -70 -21 -173 -3 -82 -15 -323 -26 -534 -13
-281 -16 -388 -8 -398 8 -9 42 -13 120 -13 104 0 110 1 118 23 4 12 54 257
111 544 98 499 102 524 86 548 l-16 25 -175 0 c-170 0 -175 -1 -189 -22z m369
-11 c13 -21 6 -65 -89 -550 -58 -289 -107 -531 -111 -537 -10 -15 -212 -13
-218 3 -2 7 4 172 13 367 10 195 21 432 25 525 5 119 11 177 21 193 14 21 19
22 179 22 160 0 165 -1 180 -23z"/>
<path d="M4847 1513 c87 -3 114 -7 125 -20 8 -10 15 -58 19 -137 l5 -121 2
116 c2 104 0 119 -19 143 -20 26 -22 26 -132 24 l-112 -2 112 -3z"/>
<path d="M3483 916 c3 -59 8 -81 23 -96 19 -19 19 -19 20 6 1 13 8 31 15 40
11 14 14 13 25 -8 22 -38 16 -13 -10 41 -13 28 -35 60 -50 72 l-27 21 4 -76z"/>
<path d="M3600 888 c0 -5 324 -8 720 -8 396 0 720 3 720 8 0 4 -324 7 -720 7
-396 0 -720 -3 -720 -7z"/>
</g>
</svg>
