<?xml version="1.0" standalone="no"?>
<!DOCTYPE svg PUBLIC "-//W3C//DTD SVG 20010904//EN"
 "http://www.w3.org/TR/2001/REC-SVG-20010904/DTD/svg10.dtd">
<svg version="1.0" xmlns="http://www.w3.org/2000/svg"
 width="981.000000pt" height="784.000000pt" viewBox="0 0 981.000000 784.000000"
 preserveAspectRatio="xMidYMid meet">

<g transform="translate(0.000000,784.000000) scale(0.100000,-0.100000)"
fill="#1d2023" stroke="none">
<path d="M9701 7790 c-23 -24 -527 -842 -1198 -1943 -636 -1046 -1175 -1921
-1196 -1944 -73 -80 -161 -102 -243 -62 -27 12 -276 237 -656 590 -419 389
-629 577 -662 594 -84 42 -151 29 -218 -41 -21 -21 -400 -586 -843 -1254 -444
-668 -821 -1230 -838 -1247 -65 -69 -188 -82 -280 -30 -25 13 -225 186 -446
383 -221 197 -421 369 -444 381 -77 40 -173 28 -252 -33 -32 -24 -2311 -2868
-2377 -2966 -50 -74 -46 -147 11 -185 25 -17 226 -18 4889 -21 l4862 -2 0
3875 c0 3362 -2 3880 -14 3910 -20 47 -46 45 -95 -5z"/>
</g>
</svg>
