<?xml version="1.0" encoding="UTF-8"?>
<!DOCTYPE svg PUBLIC "-//W3C//DTD SVG 1.1//EN" "http://www.w3.org/Graphics/SVG/1.1/DTD/svg11.dtd">
<svg xmlns="http://www.w3.org/2000/svg" version="1.1" width="392px" height="48px" style="shape-rendering:geometricPrecision; text-rendering:geometricPrecision; image-rendering:optimizeQuality; fill-rule:evenodd; clip-rule:evenodd" xmlns:xlink="http://www.w3.org/1999/xlink">
<g><path style="opacity:0.004" fill="#fefffe" d="M 131.5,-0.5 C 131.833,-0.5 132.167,-0.5 132.5,-0.5C 132.315,0.170143 131.981,0.170143 131.5,-0.5 Z"/></g>
<g><path style="opacity:0.004" fill="#fefffe" d="M 134.5,-0.5 C 134.833,-0.5 135.167,-0.5 135.5,-0.5C 135.315,0.170143 134.981,0.170143 134.5,-0.5 Z"/></g>
<g><path style="opacity:0.004" fill="#fefffe" d="M 192.5,0.5 C 193.833,1.16667 193.833,1.16667 192.5,0.5 Z"/></g>
<g><path style="opacity:0.004" fill="#fefffe" d="M 276.5,0.5 C 277.833,1.16667 277.833,1.16667 276.5,0.5 Z"/></g>
<g><path style="opacity:0.004" fill="#fefffe" d="M 350.5,2.5 C 351.833,3.16667 351.833,3.16667 350.5,2.5 Z"/></g>
<g><path style="opacity:0.004" fill="#fefffe" d="M 15.5,3.5 C 16.8333,4.16667 16.8333,4.16667 15.5,3.5 Z"/></g>
<g><path style="opacity:0.004" fill="#fefffe" d="M 315.5,3.5 C 316.833,4.16667 316.833,4.16667 315.5,3.5 Z"/></g>
<g><path style="opacity:0.004" fill="#fefffe" d="M 321.5,3.5 C 322.833,4.16667 322.833,4.16667 321.5,3.5 Z"/></g>
<g><path style="opacity:0.004" fill="#fefffe" d="M 208.5,4.5 C 209.833,5.16667 209.833,5.16667 208.5,4.5 Z"/></g>
<g><path style="opacity:0.953" fill="#9babc0" d="M 336.5,6.5 C 336.5,7.16667 336.5,7.83333 336.5,8.5C 331.167,7.83333 331.167,7.16667 336.5,6.5 Z"/></g>
<g><path style="opacity:0.851" fill="#9eacc0" d="M 340.5,8.5 C 338.821,8.71481 337.821,8.04814 337.5,6.5C 338.036,5.66466 338.869,5.66466 340,6.5C 341.718,7.03108 341.885,7.69775 340.5,8.5 Z"/></g>
<g><path style="opacity:1" fill="#f3fcfd" d="M 31.5,6.5 C 31.8333,6.5 32.1667,6.5 32.5,6.5C 32.62,7.58617 33.2867,8.25284 34.5,8.5C 35.7133,8.25284 36.38,7.58617 36.5,6.5C 36.8333,5.16667 37.1667,5.16667 37.5,6.5C 37.62,7.58617 38.2867,8.25284 39.5,8.5C 41.418,8.13864 41.7514,7.47197 40.5,6.5C 41.5,5.16667 42.5,5.16667 43.5,6.5C 42.2486,7.47197 42.582,8.13864 44.5,8.5C 46.418,8.13864 46.7514,7.47197 45.5,6.5C 46.5,5.16667 47.5,5.16667 48.5,6.5C 47.2486,7.47197 47.582,8.13864 49.5,8.5C 50.7133,8.25284 51.38,7.58617 51.5,6.5C 51.8333,6.5 52.1667,6.5 52.5,6.5C 52.62,7.58617 53.2867,8.25284 54.5,8.5C 56.418,8.13864 56.7514,7.47197 55.5,6.5C 56.5,5.16667 57.5,5.16667 58.5,6.5C 57.2486,7.47197 57.582,8.13864 59.5,8.5C 62.0828,7.75818 62.0828,7.09152 59.5,6.5C 73.5262,5.80922 87.6929,5.14255 102,4.5C 102.873,4.73546 103.707,5.0688 104.5,5.5C 110.167,4.83333 115.833,4.16667 121.5,3.5C 124.65,3.76574 127.317,4.76574 129.5,6.5C 126.917,7.09152 126.917,7.75818 129.5,8.5C 130.713,8.25284 131.38,7.58617 131.5,6.5C 131.833,6.5 132.167,6.5 132.5,6.5C 132.62,7.58617 133.287,8.25284 134.5,8.5C 135.713,8.25284 136.38,7.58617 136.5,6.5C 136.833,6.5 137.167,6.5 137.5,6.5C 137.62,7.58617 138.287,8.25284 139.5,8.5C 140.713,8.25284 141.38,7.58617 141.5,6.5C 141.833,6.5 142.167,6.5 142.5,6.5C 142.62,7.58617 143.287,8.25284 144.5,8.5C 145.416,8.45728 146.083,8.12395 146.5,7.5C 146.833,7.5 147.167,7.5 147.5,7.5C 147.917,8.12395 148.584,8.45728 149.5,8.5C 150.713,8.25284 151.38,7.58617 151.5,6.5C 153.598,5.51552 155.598,5.84885 157.5,7.5C 157.917,8.12395 158.584,8.45728 159.5,8.5C 160.713,8.25284 161.38,7.58617 161.5,6.5C 161.833,6.5 162.167,6.5 162.5,6.5C 162.62,7.58617 163.287,8.25284 164.5,8.5C 165.713,8.25284 166.38,7.58617 166.5,6.5C 166.833,6.5 167.167,6.5 167.5,6.5C 167.62,7.58617 168.287,8.25284 169.5,8.5C 170.713,8.25284 171.38,7.58617 171.5,6.5C 171.833,6.5 172.167,6.5 172.5,6.5C 172.62,7.58617 173.287,8.25284 174.5,8.5C 175.713,8.25284 176.38,7.58617 176.5,6.5C 176.833,6.5 177.167,6.5 177.5,6.5C 177.62,7.58617 178.287,8.25284 179.5,8.5C 180.713,8.25284 181.38,7.58617 181.5,6.5C 181.833,6.5 182.167,6.5 182.5,6.5C 182.62,7.58617 183.287,8.25284 184.5,8.5C 185.713,8.25284 186.38,7.58617 186.5,6.5C 186.833,6.5 187.167,6.5 187.5,6.5C 187.62,7.58617 188.287,8.25284 189.5,8.5C 190.713,8.25284 191.38,7.58617 191.5,6.5C 191.833,6.5 192.167,6.5 192.5,6.5C 192.62,7.58617 193.287,8.25284 194.5,8.5C 195.713,8.25284 196.38,7.58617 196.5,6.5C 196.833,6.5 197.167,6.5 197.5,6.5C 197.62,7.58617 198.287,8.25284 199.5,8.5C 200.713,8.25284 201.38,7.58617 201.5,6.5C 203.941,6.42163 206.274,6.0883 208.5,5.5C 209.793,5.87459 211.126,6.20792 212.5,6.5C 212.62,7.58617 213.287,8.25284 214.5,8.5C 215.713,8.25284 216.38,7.58617 216.5,6.5C 216.833,6.5 217.167,6.5 217.5,6.5C 217.62,7.58617 218.287,8.25284 219.5,8.5C 220.713,8.25284 221.38,7.58617 221.5,6.5C 221.833,6.5 222.167,6.5 222.5,6.5C 222.62,7.58617 223.287,8.25284 224.5,8.5C 225.713,8.25284 226.38,7.58617 226.5,6.5C 226.833,6.5 227.167,6.5 227.5,6.5C 227.62,7.58617 228.287,8.25284 229.5,8.5C 230.713,8.25284 231.38,7.58617 231.5,6.5C 231.833,6.5 232.167,6.5 232.5,6.5C 232.62,7.58617 233.287,8.25284 234.5,8.5C 235.713,8.25284 236.38,7.58617 236.5,6.5C 236.833,6.5 237.167,6.5 237.5,6.5C 237.62,7.58617 238.287,8.25284 239.5,8.5C 240.713,8.25284 241.38,7.58617 241.5,6.5C 241.833,6.5 242.167,6.5 242.5,6.5C 242.62,7.58617 243.287,8.25284 244.5,8.5C 245.713,8.25284 246.38,7.58617 246.5,6.5C 246.833,6.5 247.167,6.5 247.5,6.5C 247.62,7.58617 248.287,8.25284 249.5,8.5C 250.713,8.25284 251.38,7.58617 251.5,6.5C 251.833,6.5 252.167,6.5 252.5,6.5C 252.62,7.58617 253.287,8.25284 254.5,8.5C 255.713,8.25284 256.38,7.58617 256.5,6.5C 256.833,6.5 257.167,6.5 257.5,6.5C 257.62,7.58617 258.287,8.25284 259.5,8.5C 260.713,8.25284 261.38,7.58617 261.5,6.5C 261.833,6.5 262.167,6.5 262.5,6.5C 262.62,7.58617 263.287,8.25284 264.5,8.5C 265.713,8.25284 266.38,7.58617 266.5,6.5C 266.833,6.5 267.167,6.5 267.5,6.5C 267.62,7.58617 268.287,8.25284 269.5,8.5C 270.713,8.25284 271.38,7.58617 271.5,6.5C 271.833,6.5 272.167,6.5 272.5,6.5C 272.62,7.58617 273.287,8.25284 274.5,8.5C 275.713,8.25284 276.38,7.58617 276.5,6.5C 276.833,6.5 277.167,6.5 277.5,6.5C 277.62,7.58617 278.287,8.25284 279.5,8.5C 280.713,8.25284 281.38,7.58617 281.5,6.5C 281.833,6.5 282.167,6.5 282.5,6.5C 282.62,7.58617 283.287,8.25284 284.5,8.5C 285.713,8.25284 286.38,7.58617 286.5,6.5C 286.833,6.5 287.167,6.5 287.5,6.5C 287.62,7.58617 288.287,8.25284 289.5,8.5C 290.713,8.25284 291.38,7.58617 291.5,6.5C 291.833,6.5 292.167,6.5 292.5,6.5C 292.62,7.58617 293.287,8.25284 294.5,8.5C 295.713,8.25284 296.38,7.58617 296.5,6.5C 296.833,6.5 297.167,6.5 297.5,6.5C 297.62,7.58617 298.287,8.25284 299.5,8.5C 300.713,8.25284 301.38,7.58617 301.5,6.5C 301.833,6.5 302.167,6.5 302.5,6.5C 302.62,7.58617 303.287,8.25284 304.5,8.5C 305.713,8.25284 306.38,7.58617 306.5,6.5C 306.833,6.5 307.167,6.5 307.5,6.5C 307.62,7.58617 308.287,8.25284 309.5,8.5C 310.713,8.25284 311.38,7.58617 311.5,6.5C 311.833,6.5 312.167,6.5 312.5,6.5C 312.62,7.58617 313.287,8.25284 314.5,8.5C 315.713,8.25284 316.38,7.58617 316.5,6.5C 316.833,6.5 317.167,6.5 317.5,6.5C 319.607,5.53178 321.941,5.19845 324.5,5.5C 323.909,6.15149 323.243,6.81815 322.5,7.5C 323.167,7.83333 323.833,8.16667 324.5,8.5C 325.713,8.25284 326.38,7.58617 326.5,6.5C 326.833,6.5 327.167,6.5 327.5,6.5C 330.5,5.16667 333.5,5.16667 336.5,6.5C 331.167,7.16667 331.167,7.83333 336.5,8.5C 336.217,9.28913 335.717,9.9558 335,10.5C 234.818,10.0148 134.318,9.68146 33.5,9.5C 29.5012,9.48487 28.5012,11.1515 30.5,14.5C 28.0034,12.1289 25.0034,11.1289 21.5,11.5C 21.2155,9.58533 21.5489,7.91866 22.5,6.5C 22.5587,4.27761 23.7253,3.27761 26,3.5C 28.3987,3.61322 30.2321,4.61322 31.5,6.5 Z"/></g>
<g><path style="opacity:1" fill="#b7c3d3" d="M 276.5,6.5 C 276.38,7.58617 275.713,8.25284 274.5,8.5C 273.287,8.25284 272.62,7.58617 272.5,6.5C 273.833,5.16667 275.167,5.16667 276.5,6.5 Z"/></g>
<g><path style="opacity:1" fill="#9fb0c3" d="M 62.5,6.5 C 63.9778,6.23798 65.3112,6.57131 66.5,7.5C 65.8333,7.83333 65.1667,8.16667 64.5,8.5C 63.2867,8.25284 62.62,7.58617 62.5,6.5 Z"/></g>
<g><path style="opacity:1" fill="#9ca9c7" d="M 31.5,6.5 C 31.38,7.58617 30.7133,8.25284 29.5,8.5C 28.8333,8.16667 28.1667,7.83333 27.5,7.5C 28.6888,6.57131 30.0222,6.23798 31.5,6.5 Z"/></g>
<g><path style="opacity:1" fill="#9ca8c6" d="M 22.5,6.5 C 27.5018,6.52184 27.8352,7.85518 23.5,10.5C 22.5713,9.31116 22.238,7.97782 22.5,6.5 Z"/></g>
<g><path style="opacity:0.973" fill="#9cacc3" d="M 327.5,6.5 C 328.978,6.23798 330.311,6.57131 331.5,7.5C 330.833,7.83333 330.167,8.16667 329.5,8.5C 328.287,8.25284 327.62,7.58617 327.5,6.5 Z"/></g>
<g><path style="opacity:0.982" fill="#a8b1ca" d="M 324.5,5.5 C 325.492,5.32842 326.158,5.66175 326.5,6.5C 326.38,7.58617 325.713,8.25284 324.5,8.5C 323.833,8.16667 323.167,7.83333 322.5,7.5C 323.243,6.81815 323.909,6.15149 324.5,5.5 Z"/></g>
<g><path style="opacity:0.971" fill="#9cadc3" d="M 317.5,6.5 C 318.978,6.23798 320.311,6.57131 321.5,7.5C 320.833,7.83333 320.167,8.16667 319.5,8.5C 318.287,8.25284 317.62,7.58617 317.5,6.5 Z"/></g>
<g><path style="opacity:0.976" fill="#b6c2d1" d="M 316.5,6.5 C 316.38,7.58617 315.713,8.25284 314.5,8.5C 313.287,8.25284 312.62,7.58617 312.5,6.5C 313.833,5.16667 315.167,5.16667 316.5,6.5 Z"/></g>
<g><path style="opacity:0.965" fill="#acbbcc" d="M 311.5,6.5 C 311.38,7.58617 310.713,8.25284 309.5,8.5C 308.287,8.25284 307.62,7.58617 307.5,6.5C 308.976,6.11155 310.309,6.11155 311.5,6.5 Z"/></g>
<g><path style="opacity:0.973" fill="#b6c3d3" d="M 306.5,6.5 C 306.38,7.58617 305.713,8.25284 304.5,8.5C 303.287,8.25284 302.62,7.58617 302.5,6.5C 303.833,5.16667 305.167,5.16667 306.5,6.5 Z"/></g>
<g><path style="opacity:0.97" fill="#adbbcd" d="M 301.5,6.5 C 301.38,7.58617 300.713,8.25284 299.5,8.5C 298.287,8.25284 297.62,7.58617 297.5,6.5C 298.976,6.11155 300.309,6.11155 301.5,6.5 Z"/></g>
<g><path style="opacity:0.978" fill="#b6c3d2" d="M 296.5,6.5 C 296.38,7.58617 295.713,8.25284 294.5,8.5C 293.287,8.25284 292.62,7.58617 292.5,6.5C 293.833,5.16667 295.167,5.16667 296.5,6.5 Z"/></g>
<g><path style="opacity:0.971" fill="#b6c3d2" d="M 291.5,6.5 C 291.38,7.58617 290.713,8.25284 289.5,8.5C 288.287,8.25284 287.62,7.58617 287.5,6.5C 288.833,5.16667 290.167,5.16667 291.5,6.5 Z"/></g>
<g><path style="opacity:0.976" fill="#b7c3d3" d="M 286.5,6.5 C 286.38,7.58617 285.713,8.25284 284.5,8.5C 283.287,8.25284 282.62,7.58617 282.5,6.5C 283.833,5.16667 285.167,5.16667 286.5,6.5 Z"/></g>
<g><path style="opacity:0.965" fill="#b7c3d5" d="M 281.5,6.5 C 281.38,7.58617 280.713,8.25284 279.5,8.5C 278.287,8.25284 277.62,7.58617 277.5,6.5C 278.833,5.16667 280.167,5.16667 281.5,6.5 Z"/></g>
<g><path style="opacity:0.976" fill="#b9c5d7" d="M 271.5,6.5 C 271.38,7.58617 270.713,8.25284 269.5,8.5C 268.287,8.25284 267.62,7.58617 267.5,6.5C 268.833,5.16667 270.167,5.16667 271.5,6.5 Z"/></g>
<g><path style="opacity:0.98" fill="#b9c5d5" d="M 266.5,6.5 C 266.38,7.58617 265.713,8.25284 264.5,8.5C 263.287,8.25284 262.62,7.58617 262.5,6.5C 263.833,5.16667 265.167,5.16667 266.5,6.5 Z"/></g>
<g><path style="opacity:0.97" fill="#acbbca" d="M 261.5,6.5 C 261.38,7.58617 260.713,8.25284 259.5,8.5C 258.287,8.25284 257.62,7.58617 257.5,6.5C 258.833,6.5 260.167,6.5 261.5,6.5 Z"/></g>
<g><path style="opacity:0.967" fill="#aebdcd" d="M 256.5,6.5 C 256.38,7.58617 255.713,8.25284 254.5,8.5C 253.287,8.25284 252.62,7.58617 252.5,6.5C 253.976,6.11155 255.309,6.11155 256.5,6.5 Z"/></g>
<g><path style="opacity:0.963" fill="#abbacc" d="M 251.5,6.5 C 251.38,7.58617 250.713,8.25284 249.5,8.5C 248.287,8.25284 247.62,7.58617 247.5,6.5C 248.833,6.5 250.167,6.5 251.5,6.5 Z"/></g>
<g><path style="opacity:0.969" fill="#afbdcf" d="M 246.5,6.5 C 246.38,7.58617 245.713,8.25284 244.5,8.5C 243.287,8.25284 242.62,7.58617 242.5,6.5C 243.976,6.11155 245.309,6.11155 246.5,6.5 Z"/></g>
<g><path style="opacity:0.981" fill="#b9c5d5" d="M 241.5,6.5 C 241.38,7.58617 240.713,8.25284 239.5,8.5C 238.287,8.25284 237.62,7.58617 237.5,6.5C 238.833,5.16667 240.167,5.16667 241.5,6.5 Z"/></g>
<g><path style="opacity:0.986" fill="#b9c5d5" d="M 236.5,6.5 C 236.38,7.58617 235.713,8.25284 234.5,8.5C 233.287,8.25284 232.62,7.58617 232.5,6.5C 233.833,5.16667 235.167,5.16667 236.5,6.5 Z"/></g>
<g><path style="opacity:0.988" fill="#b9c6d5" d="M 231.5,6.5 C 231.38,7.58617 230.713,8.25284 229.5,8.5C 228.287,8.25284 227.62,7.58617 227.5,6.5C 228.833,5.16667 230.167,5.16667 231.5,6.5 Z"/></g>
<g><path style="opacity:0.988" fill="#b9c6d5" d="M 226.5,6.5 C 226.38,7.58617 225.713,8.25284 224.5,8.5C 223.287,8.25284 222.62,7.58617 222.5,6.5C 223.833,5.16667 225.167,5.16667 226.5,6.5 Z"/></g>
<g><path style="opacity:0.979" fill="#b9c5d3" d="M 221.5,6.5 C 221.38,7.58617 220.713,8.25284 219.5,8.5C 218.287,8.25284 217.62,7.58617 217.5,6.5C 218.833,5.16667 220.167,5.16667 221.5,6.5 Z"/></g>
<g><path style="opacity:0.975" fill="#afbecf" d="M 216.5,6.5 C 216.38,7.58617 215.713,8.25284 214.5,8.5C 213.287,8.25284 212.62,7.58617 212.5,6.5C 213.976,6.11155 215.309,6.11155 216.5,6.5 Z"/></g>
<g><path style="opacity:0.992" fill="#bac6d6" d="M 201.5,6.5 C 201.38,7.58617 200.713,8.25284 199.5,8.5C 198.287,8.25284 197.62,7.58617 197.5,6.5C 198.833,5.16667 200.167,5.16667 201.5,6.5 Z"/></g>
<g><path style="opacity:0.994" fill="#b9c5d5" d="M 196.5,6.5 C 196.38,7.58617 195.713,8.25284 194.5,8.5C 193.287,8.25284 192.62,7.58617 192.5,6.5C 193.833,5.16667 195.167,5.16667 196.5,6.5 Z"/></g>
<g><path style="opacity:0.996" fill="#bbc6d8" d="M 191.5,6.5 C 191.38,7.58617 190.713,8.25284 189.5,8.5C 188.287,8.25284 187.62,7.58617 187.5,6.5C 188.833,5.16667 190.167,5.16667 191.5,6.5 Z"/></g>
<g><path style="opacity:0.99" fill="#acbbcd" d="M 186.5,6.5 C 186.38,7.58617 185.713,8.25284 184.5,8.5C 183.287,8.25284 182.62,7.58617 182.5,6.5C 183.705,5.31434 185.039,5.31434 186.5,6.5 Z"/></g>
<g><path style="opacity:0.988" fill="#acbbcb" d="M 181.5,6.5 C 181.38,7.58617 180.713,8.25284 179.5,8.5C 178.287,8.25284 177.62,7.58617 177.5,6.5C 178.833,6.5 180.167,6.5 181.5,6.5 Z"/></g>
<g><path style="opacity:0.986" fill="#a6b6c9" d="M 176.5,6.5 C 176.38,7.58617 175.713,8.25284 174.5,8.5C 173.287,8.25284 172.62,7.58617 172.5,6.5C 173.528,6.07418 174.861,6.07418 176.5,6.5 Z"/></g>
<g><path style="opacity:0.992" fill="#b9c5d5" d="M 171.5,6.5 C 171.38,7.58617 170.713,8.25284 169.5,8.5C 168.287,8.25284 167.62,7.58617 167.5,6.5C 168.833,5.16667 170.167,5.16667 171.5,6.5 Z"/></g>
<g><path style="opacity:0.996" fill="#bac7d6" d="M 166.5,6.5 C 166.38,7.58617 165.713,8.25284 164.5,8.5C 163.287,8.25284 162.62,7.58617 162.5,6.5C 163.833,5.16667 165.167,5.16667 166.5,6.5 Z"/></g>
<g><path style="opacity:0.979" fill="#a3b4c8" d="M 161.5,6.5 C 161.38,7.58617 160.713,8.25284 159.5,8.5C 158.584,8.45728 157.917,8.12395 157.5,7.5C 158.568,6.56552 159.901,6.23219 161.5,6.5 Z"/></g>
<g><path style="opacity:0.98" fill="#a3b4c8" d="M 151.5,6.5 C 151.38,7.58617 150.713,8.25284 149.5,8.5C 148.584,8.45728 147.917,8.12395 147.5,7.5C 148.568,6.56552 149.901,6.23219 151.5,6.5 Z"/></g>
<g><path style="opacity:0.943" fill="#a2b3c6" d="M 142.5,6.5 C 144.099,6.23219 145.432,6.56552 146.5,7.5C 146.083,8.12395 145.416,8.45728 144.5,8.5C 143.287,8.25284 142.62,7.58617 142.5,6.5 Z"/></g>
<g><path style="opacity:0.856" fill="#a6b6c7" d="M 141.5,6.5 C 141.38,7.58617 140.713,8.25284 139.5,8.5C 138.287,8.25284 137.62,7.58617 137.5,6.5C 138.528,6.07418 139.861,6.07418 141.5,6.5 Z"/></g>
<g><path style="opacity:1" fill="#b4c4d3" d="M 136.5,6.5 C 136.38,7.58617 135.713,8.25284 134.5,8.5C 133.287,8.25284 132.62,7.58617 132.5,6.5C 133.833,5.16667 135.167,5.16667 136.5,6.5 Z"/></g>
<g><path style="opacity:1" fill="#a2b2c8" d="M 129.5,6.5 C 130.167,6.5 130.833,6.5 131.5,6.5C 131.38,7.58617 130.713,8.25284 129.5,8.5C 126.917,7.75818 126.917,7.09152 129.5,6.5 Z"/></g>
<g><path style="opacity:0.961" fill="#a3b4c7" d="M 122.5,6.5 C 123.978,6.23798 125.311,6.57131 126.5,7.5C 125.833,7.83333 125.167,8.16667 124.5,8.5C 123.287,8.25284 122.62,7.58617 122.5,6.5 Z"/></g>
<g><path style="opacity:0.996" fill="#a2b2c8" d="M 117.5,6.5 C 118.978,6.23798 120.311,6.57131 121.5,7.5C 120.833,7.83333 120.167,8.16667 119.5,8.5C 118.287,8.25284 117.62,7.58617 117.5,6.5 Z"/></g>
<g><path style="opacity:0.943" fill="#a1b1c5" d="M 112.5,6.5 C 113.978,6.23798 115.311,6.57131 116.5,7.5C 115.833,7.83333 115.167,8.16667 114.5,8.5C 113.287,8.25284 112.62,7.58617 112.5,6.5 Z"/></g>
<g><path style="opacity:0.996" fill="#a3b3ca" d="M 107.5,6.5 C 108.978,6.23798 110.311,6.57131 111.5,7.5C 110.833,7.83333 110.167,8.16667 109.5,8.5C 108.287,8.25284 107.62,7.58617 107.5,6.5 Z"/></g>
<g><path style="opacity:0.984" fill="#a1b2c6" d="M 102.5,6.5 C 103.978,6.23798 105.311,6.57131 106.5,7.5C 105.833,7.83333 105.167,8.16667 104.5,8.5C 103.287,8.25284 102.62,7.58617 102.5,6.5 Z"/></g>
<g><path style="opacity:1" fill="#a2b3c5" d="M 97.5,6.5 C 98.9778,6.23798 100.311,6.57131 101.5,7.5C 100.833,7.83333 100.167,8.16667 99.5,8.5C 98.2867,8.25284 97.62,7.58617 97.5,6.5 Z"/></g>
<g><path style="opacity:1" fill="#a1b2c6" d="M 92.5,6.5 C 93.9778,6.23798 95.3112,6.57131 96.5,7.5C 95.8333,7.83333 95.1667,8.16667 94.5,8.5C 93.2867,8.25284 92.62,7.58617 92.5,6.5 Z"/></g>
<g><path style="opacity:1" fill="#a1b2c6" d="M 87.5,6.5 C 88.9778,6.23798 90.3112,6.57131 91.5,7.5C 90.8333,7.83333 90.1667,8.16667 89.5,8.5C 88.2867,8.25284 87.62,7.58617 87.5,6.5 Z"/></g>
<g><path style="opacity:1" fill="#a0b1c5" d="M 82.5,6.5 C 83.9778,6.23798 85.3112,6.57131 86.5,7.5C 85.8333,7.83333 85.1667,8.16667 84.5,8.5C 83.2867,8.25284 82.62,7.58617 82.5,6.5 Z"/></g>
<g><path style="opacity:1" fill="#9fb0c4" d="M 77.5,6.5 C 78.9778,6.23798 80.3112,6.57131 81.5,7.5C 80.8333,7.83333 80.1667,8.16667 79.5,8.5C 78.2867,8.25284 77.62,7.58617 77.5,6.5 Z"/></g>
<g><path style="opacity:1" fill="#9fb0c4" d="M 72.5,6.5 C 73.9778,6.23798 75.3112,6.57131 76.5,7.5C 75.8333,7.83333 75.1667,8.16667 74.5,8.5C 73.2867,8.25284 72.62,7.58617 72.5,6.5 Z"/></g>
<g><path style="opacity:1" fill="#a0b1c5" d="M 67.5,6.5 C 68.9778,6.23798 70.3112,6.57131 71.5,7.5C 70.8333,7.83333 70.1667,8.16667 69.5,8.5C 68.2867,8.25284 67.62,7.58617 67.5,6.5 Z"/></g>
<g><path style="opacity:1" fill="#9eafc1" d="M 58.5,6.5 C 58.8333,6.5 59.1667,6.5 59.5,6.5C 62.0828,7.09152 62.0828,7.75818 59.5,8.5C 57.582,8.13864 57.2486,7.47197 58.5,6.5 Z"/></g>
<g><path style="opacity:0.989" fill="#a4b4c7" d="M 55.5,6.5 C 56.7514,7.47197 56.418,8.13864 54.5,8.5C 53.2867,8.25284 52.62,7.58617 52.5,6.5C 53.2022,5.88432 54.2022,5.88432 55.5,6.5 Z"/></g>
<g><path style="opacity:0.996" fill="#9dadc4" d="M 48.5,6.5 C 49.5,6.5 50.5,6.5 51.5,6.5C 51.38,7.58617 50.7133,8.25284 49.5,8.5C 47.582,8.13864 47.2486,7.47197 48.5,6.5 Z"/></g>
<g><path style="opacity:1" fill="#9cadc0" d="M 43.5,6.5 C 44.1667,6.5 44.8333,6.5 45.5,6.5C 46.7514,7.47197 46.418,8.13864 44.5,8.5C 42.582,8.13864 42.2486,7.47197 43.5,6.5 Z"/></g>
<g><path style="opacity:1" fill="#9cacc3" d="M 37.5,6.5 C 38.5,6.5 39.5,6.5 40.5,6.5C 41.7514,7.47197 41.418,8.13864 39.5,8.5C 38.2867,8.25284 37.62,7.58617 37.5,6.5 Z"/></g>
<g><path style="opacity:0.984" fill="#9cadbf" d="M 32.5,6.5 C 33.8333,6.5 35.1667,6.5 36.5,6.5C 36.38,7.58617 35.7133,8.25284 34.5,8.5C 33.2867,8.25284 32.62,7.58617 32.5,6.5 Z"/></g>
<g><path style="opacity:0.983" fill="#fdfdfe" d="M 336.5,6.5 C 336.833,6.5 337.167,6.5 337.5,6.5C 337.821,8.04814 338.821,8.71481 340.5,8.5C 340.232,10.099 340.566,11.4324 341.5,12.5C 341.5,12.8333 341.5,13.1667 341.5,13.5C 339.777,15.78 339.111,18.4467 339.5,21.5C 338.618,23.3838 337.118,24.7171 335,25.5C 234.681,25.7441 134.848,25.4108 35.5,24.5C 34.1667,23.5 32.8333,22.5 31.5,21.5C 31.7947,19.2646 31.4614,17.2646 30.5,15.5C 30.5,15.1667 30.5,14.8333 30.5,14.5C 28.5012,11.1515 29.5012,9.48487 33.5,9.5C 134.318,9.68146 234.818,10.0148 335,10.5C 335.717,9.9558 336.217,9.28913 336.5,8.5C 336.5,7.83333 336.5,7.16667 336.5,6.5 Z"/></g>
<g><path style="opacity:0.98" fill="#aac0db" d="M 351.5,13.5 C 348.167,12.1667 344.833,12.1667 341.5,13.5C 341.5,13.1667 341.5,12.8333 341.5,12.5C 344.825,11.3638 345.158,9.69712 342.5,7.5C 343.689,6.57131 345.022,6.23798 346.5,6.5C 346.5,8.16667 346.5,9.83333 346.5,11.5C 348.698,11.1201 350.365,11.7868 351.5,13.5 Z"/></g>
<g><path style="opacity:1" fill="#7daee7" d="M 21.5,11.5 C 25.0034,11.1289 28.0034,12.1289 30.5,14.5C 30.5,14.8333 30.5,15.1667 30.5,15.5C 30.5,17.5 30.5,19.5 30.5,21.5C 27.3233,22.6372 24.1567,22.6372 21,21.5C 18.8659,19.7129 18.0325,17.3795 18.5,14.5C 19.5,13.5 20.5,12.5 21.5,11.5 Z"/></g>
<g><path style="opacity:1" fill="#d3d6d5" d="M 33.5,17.5 C 134.169,17.1667 234.836,17.5 335.5,18.5C 285.167,18.8333 234.833,19.1667 184.5,19.5C 133.829,19.4999 83.4955,18.8333 33.5,17.5 Z"/></g>
<g><path style="opacity:0.004" fill="#fefffe" d="M 360.5,18.5 C 361.833,19.1667 361.833,19.1667 360.5,18.5 Z"/></g>
<g><path style="opacity:0.526" fill="#dfdfe1" d="M 369.5,20.5 C 369.414,18.323 368.747,16.323 367.5,14.5C 367.833,14.1667 368.167,13.8333 368.5,13.5C 371.146,14.9857 373.646,16.6524 376,18.5C 378.298,17.0389 380.465,15.3722 382.5,13.5C 383.583,14.365 383.749,15.365 383,16.5C 378.946,20.2316 379.446,23.7316 384.5,27C 384.002,28.1581 383.169,28.9915 382,29.5C 378.105,24.1064 374.605,24.2731 371.5,30C 370.207,30.49 368.873,30.6567 367.5,30.5C 367.34,28.8008 367.506,27.1341 368,25.5C 370.301,24.1226 370.801,22.456 369.5,20.5 Z"/></g>
<g><path style="opacity:0.004" fill="#fefffe" d="M 369.5,20.5 C 368.833,21.1667 368.833,21.1667 369.5,20.5 Z"/></g>
<g><path style="opacity:1" fill="#82ade5" d="M 351.5,13.5 C 352.614,16.1771 352.614,18.8438 351.5,21.5C 343.667,25.0245 340.334,22.3578 341.5,13.5C 344.833,12.1667 348.167,12.1667 351.5,13.5 Z"/></g>
<g><path style="opacity:1" fill="#98b6dd" d="M 18.5,14.5 C 18.0325,17.3795 18.8659,19.7129 21,21.5C 24.1567,22.6372 27.3233,22.6372 30.5,21.5C 30.5,19.5 30.5,17.5 30.5,15.5C 31.4614,17.2646 31.7947,19.2646 31.5,21.5C 30.1011,24.3903 27.7677,25.8903 24.5,26C 25.3081,26.3076 25.9747,26.8076 26.5,27.5C 25.3112,28.4287 23.9778,28.762 22.5,28.5C 21.8051,26.0219 20.3051,24.0219 18,22.5C 17.1993,19.633 17.3659,16.9664 18.5,14.5 Z"/></g>
<g><path style="opacity:0.004" fill="#fefffe" d="M 385.5,22.5 C 386.833,23.1667 386.833,23.1667 385.5,22.5 Z"/></g>
<g><path style="opacity:0.992" fill="#a1b8d9" d="M 341.5,13.5 C 340.334,22.3578 343.667,25.0245 351.5,21.5C 352.614,18.8438 352.614,16.1771 351.5,13.5C 352.117,13.6107 352.617,13.944 353,14.5C 353.667,17.1667 353.667,19.8333 353,22.5C 350.193,24.5926 347.36,26.5926 344.5,28.5C 342.313,27.9275 339.979,27.9275 337.5,28.5C 338.183,26.8235 339.517,26.1568 341.5,26.5C 342.833,25.8333 342.833,25.1667 341.5,24.5C 341.573,22.9731 340.906,21.9731 339.5,21.5C 339.111,18.4467 339.777,15.78 341.5,13.5 Z"/></g>
<g><path style="opacity:1" fill="#65aaf0" d="M 345.5,14.5 C 346.833,14.5 348.167,14.5 349.5,14.5C 350.112,17.8806 348.946,20.2139 346,21.5C 343.091,20.5715 341.925,18.5715 342.5,15.5C 343.791,15.7373 344.791,15.404 345.5,14.5 Z"/></g>
<g><path style="opacity:0.004" fill="#fefffe" d="M 30.5,24.5 C 31.8333,25.1667 31.8333,25.1667 30.5,24.5 Z"/></g>
<g><path style="opacity:0.004" fill="#fefffe" d="M 7.5,25.5 C 8.83333,26.1667 8.83333,26.1667 7.5,25.5 Z"/></g>
<g><path style="opacity:0.843" fill="#9daac5" d="M 27.5,26.5 C 28.9778,26.238 30.3112,26.5713 31.5,27.5C 30.8333,27.8333 30.1667,28.1667 29.5,28.5C 28.2867,28.2528 27.62,27.5862 27.5,26.5 Z"/></g>
<g><path style="opacity:0.979" fill="#a4b2c6" d="M 51.5,28.5 C 49.8612,28.9258 48.5279,28.9258 47.5,28.5C 47.62,27.4138 48.2867,26.7472 49.5,26.5C 50.7133,26.7472 51.38,27.4138 51.5,28.5 Z"/></g>
<g><path style="opacity:0.967" fill="#a3b4c5" d="M 306.5,28.5 C 304.861,28.9258 303.528,28.9258 302.5,28.5C 302.62,27.4138 303.287,26.7472 304.5,26.5C 305.713,26.7472 306.38,27.4138 306.5,28.5 Z"/></g>
<g><path style="opacity:0.959" fill="#a1b3c5" d="M 316.5,28.5 C 314.861,28.9258 313.528,28.9258 312.5,28.5C 312.62,27.4138 313.287,26.7472 314.5,26.5C 315.713,26.7472 316.38,27.4138 316.5,28.5 Z"/></g>
<g><path style="opacity:0.953" fill="#a1b2c5" d="M 321.5,28.5 C 320.472,28.9258 319.139,28.9258 317.5,28.5C 317.62,27.4138 318.287,26.7472 319.5,26.5C 320.713,26.7472 321.38,27.4138 321.5,28.5 Z"/></g>
<g><path style="opacity:0.004" fill="#fefffd" d="M 9.5,27.5 C 10.8333,28.1667 10.8333,28.1667 9.5,27.5 Z"/></g>
<g><path style="opacity:0.863" fill="#a0acc0" d="M 36.5,26.5 C 36.38,27.5862 35.7133,28.2528 34.5,28.5C 33.8333,28.1667 33.1667,27.8333 32.5,27.5C 33.6888,26.5713 35.0222,26.238 36.5,26.5 Z"/></g>
<g><path style="opacity:0.967" fill="#9ea9c1" d="M 37.5,26.5 C 39.4832,26.1568 40.8166,26.8235 41.5,28.5C 39.5168,28.8432 38.1834,28.1765 37.5,26.5 Z"/></g>
<g><path style="opacity:0.941" fill="#a7b2c6" d="M 46.5,28.5 C 45.4721,28.9258 44.1388,28.9258 42.5,28.5C 42.62,27.4138 43.2867,26.7472 44.5,26.5C 45.7133,26.7472 46.38,27.4138 46.5,28.5 Z"/></g>
<g><path style="opacity:0.922" fill="#a1b1c6" d="M 326.5,28.5 C 324.861,28.9258 323.528,28.9258 322.5,28.5C 322.62,27.4138 323.287,26.7472 324.5,26.5C 325.713,26.7472 326.38,27.4138 326.5,28.5 Z"/></g>
<g><path style="opacity:0.875" fill="#a2b0c4" d="M 336.5,28.5 C 334.861,28.9258 333.528,28.9258 332.5,28.5C 332.62,27.4138 333.287,26.7472 334.5,26.5C 335.713,26.7472 336.38,27.4138 336.5,28.5 Z"/></g>
<g><path style="opacity:0.508" fill="#f5fefe" d="M 339.5,21.5 C 340.906,21.9731 341.573,22.9731 341.5,24.5C 341.5,25.1667 341.5,25.8333 341.5,26.5C 339.517,26.1568 338.183,26.8235 337.5,28.5C 337.167,28.5 336.833,28.5 336.5,28.5C 336.38,27.4138 335.713,26.7472 334.5,26.5C 333.287,26.7472 332.62,27.4138 332.5,28.5C 332.167,28.5 331.833,28.5 331.5,28.5C 331.38,27.4138 330.713,26.7472 329.5,26.5C 328.287,26.7472 327.62,27.4138 327.5,28.5C 327.167,28.5 326.833,28.5 326.5,28.5C 326.38,27.4138 325.713,26.7472 324.5,26.5C 323.287,26.7472 322.62,27.4138 322.5,28.5C 322.167,28.5 321.833,28.5 321.5,28.5C 321.38,27.4138 320.713,26.7472 319.5,26.5C 318.287,26.7472 317.62,27.4138 317.5,28.5C 317.167,28.5 316.833,28.5 316.5,28.5C 316.38,27.4138 315.713,26.7472 314.5,26.5C 313.287,26.7472 312.62,27.4138 312.5,28.5C 312.167,28.5 311.833,28.5 311.5,28.5C 311.38,27.4138 310.713,26.7472 309.5,26.5C 308.287,26.7472 307.62,27.4138 307.5,28.5C 307.167,28.5 306.833,28.5 306.5,28.5C 306.38,27.4138 305.713,26.7472 304.5,26.5C 303.287,26.7472 302.62,27.4138 302.5,28.5C 302.167,28.5 301.833,28.5 301.5,28.5C 301.38,27.4138 300.713,26.7472 299.5,26.5C 298.287,26.7472 297.62,27.4138 297.5,28.5C 297.167,28.5 296.833,28.5 296.5,28.5C 296.38,27.4138 295.713,26.7472 294.5,26.5C 293.287,26.7472 292.62,27.4138 292.5,28.5C 292.167,28.5 291.833,28.5 291.5,28.5C 291.38,27.4138 290.713,26.7472 289.5,26.5C 288.287,26.7472 287.62,27.4138 287.5,28.5C 287.167,28.5 286.833,28.5 286.5,28.5C 286.38,27.4138 285.713,26.7472 284.5,26.5C 283.287,26.7472 282.62,27.4138 282.5,28.5C 282.167,28.5 281.833,28.5 281.5,28.5C 281.38,27.4138 280.713,26.7472 279.5,26.5C 278.287,26.7472 277.62,27.4138 277.5,28.5C 277.167,28.5 276.833,28.5 276.5,28.5C 276.38,27.4138 275.713,26.7472 274.5,26.5C 273.287,26.7472 272.62,27.4138 272.5,28.5C 272.167,28.5 271.833,28.5 271.5,28.5C 271.38,27.4138 270.713,26.7472 269.5,26.5C 268.287,26.7472 267.62,27.4138 267.5,28.5C 267.167,28.5 266.833,28.5 266.5,28.5C 266.38,27.4138 265.713,26.7472 264.5,26.5C 263.287,26.7472 262.62,27.4138 262.5,28.5C 262.167,28.5 261.833,28.5 261.5,28.5C 261.38,27.4138 260.713,26.7472 259.5,26.5C 258.584,26.5427 257.917,26.8761 257.5,27.5C 257.167,27.5 256.833,27.5 256.5,27.5C 256.083,26.8761 255.416,26.5427 254.5,26.5C 253.287,26.7472 252.62,27.4138 252.5,28.5C 252.167,28.5 251.833,28.5 251.5,28.5C 251.38,27.4138 250.713,26.7472 249.5,26.5C 248.584,26.5427 247.917,26.8761 247.5,27.5C 247.167,27.5 246.833,27.5 246.5,27.5C 246.083,26.8761 245.416,26.5427 244.5,26.5C 243.287,26.7472 242.62,27.4138 242.5,28.5C 242.167,28.5 241.833,28.5 241.5,28.5C 241.38,27.4138 240.713,26.7472 239.5,26.5C 238.584,26.5427 237.917,26.8761 237.5,27.5C 237.167,27.5 236.833,27.5 236.5,27.5C 236.083,26.8761 235.416,26.5427 234.5,26.5C 233.287,26.7472 232.62,27.4138 232.5,28.5C 232.167,28.5 231.833,28.5 231.5,28.5C 231.38,27.4138 230.713,26.7472 229.5,26.5C 228.584,26.5427 227.917,26.8761 227.5,27.5C 227.167,27.5 226.833,27.5 226.5,27.5C 226.083,26.8761 225.416,26.5427 224.5,26.5C 223.287,26.7472 222.62,27.4138 222.5,28.5C 222.167,28.5 221.833,28.5 221.5,28.5C 221.38,27.4138 220.713,26.7472 219.5,26.5C 218.584,26.5427 217.917,26.8761 217.5,27.5C 217.167,27.5 216.833,27.5 216.5,27.5C 216.083,26.8761 215.416,26.5427 214.5,26.5C 213.287,26.7472 212.62,27.4138 212.5,28.5C 212.167,28.5 211.833,28.5 211.5,28.5C 211.38,27.4138 210.713,26.7472 209.5,26.5C 208.584,26.5427 207.917,26.8761 207.5,27.5C 207.167,27.5 206.833,27.5 206.5,27.5C 206.083,26.8761 205.416,26.5427 204.5,26.5C 203.287,26.7472 202.62,27.4138 202.5,28.5C 202.167,28.5 201.833,28.5 201.5,28.5C 201.38,27.4138 200.713,26.7472 199.5,26.5C 198.584,26.5427 197.917,26.8761 197.5,27.5C 197.167,27.5 196.833,27.5 196.5,27.5C 196.083,26.8761 195.416,26.5427 194.5,26.5C 193.287,26.7472 192.62,27.4138 192.5,28.5C 192.167,28.5 191.833,28.5 191.5,28.5C 191.38,27.4138 190.713,26.7472 189.5,26.5C 188.584,26.5427 187.917,26.8761 187.5,27.5C 187.167,27.5 186.833,27.5 186.5,27.5C 186.083,26.8761 185.416,26.5427 184.5,26.5C 183.287,26.7472 182.62,27.4138 182.5,28.5C 182.167,28.5 181.833,28.5 181.5,28.5C 181.38,27.4138 180.713,26.7472 179.5,26.5C 178.584,26.5427 177.917,26.8761 177.5,27.5C 177.167,27.5 176.833,27.5 176.5,27.5C 176.083,26.8761 175.416,26.5427 174.5,26.5C 173.287,26.7472 172.62,27.4138 172.5,28.5C 172.167,28.5 171.833,28.5 171.5,28.5C 171.38,27.4138 170.713,26.7472 169.5,26.5C 168.584,26.5427 167.917,26.8761 167.5,27.5C 167.167,27.5 166.833,27.5 166.5,27.5C 166.083,26.8761 165.416,26.5427 164.5,26.5C 163.287,26.7472 162.62,27.4138 162.5,28.5C 162.167,28.5 161.833,28.5 161.5,28.5C 161.38,27.4138 160.713,26.7472 159.5,26.5C 158.287,26.7472 157.62,27.4138 157.5,28.5C 157.167,28.5 156.833,28.5 156.5,28.5C 156.38,27.4138 155.713,26.7472 154.5,26.5C 153.287,26.7472 152.62,27.4138 152.5,28.5C 152.167,28.5 151.833,28.5 151.5,28.5C 151.38,27.4138 150.713,26.7472 149.5,26.5C 148.287,26.7472 147.62,27.4138 147.5,28.5C 147.167,28.5 146.833,28.5 146.5,28.5C 146.38,27.4138 145.713,26.7472 144.5,26.5C 143.287,26.7472 142.62,27.4138 142.5,28.5C 142.167,28.5 141.833,28.5 141.5,28.5C 141.38,27.4138 140.713,26.7472 139.5,26.5C 138.287,26.7472 137.62,27.4138 137.5,28.5C 137.167,28.5 136.833,28.5 136.5,28.5C 136.38,27.4138 135.713,26.7472 134.5,26.5C 133.287,26.7472 132.62,27.4138 132.5,28.5C 132.167,28.5 131.833,28.5 131.5,28.5C 131.38,27.4138 130.713,26.7472 129.5,26.5C 126.917,27.2418 126.917,27.9085 129.5,28.5C 118.019,29.8324 106.186,30.499 94,30.5C 80.4255,30.1176 66.9255,30.1176 53.5,30.5C 52.2867,30.2528 51.62,29.5862 51.5,28.5C 51.38,27.4138 50.7133,26.7472 49.5,26.5C 48.2867,26.7472 47.62,27.4138 47.5,28.5C 47.1667,28.5 46.8333,28.5 46.5,28.5C 46.38,27.4138 45.7133,26.7472 44.5,26.5C 43.2867,26.7472 42.62,27.4138 42.5,28.5C 42.1667,28.5 41.8333,28.5 41.5,28.5C 40.8166,26.8235 39.4832,26.1568 37.5,26.5C 37.1667,26.5 36.8333,26.5 36.5,26.5C 36.1667,25.8333 35.8333,25.1667 35.5,24.5C 134.848,25.4108 234.681,25.7441 335,25.5C 337.118,24.7171 338.618,23.3838 339.5,21.5 Z"/></g>
<g><path style="opacity:0.929" fill="#99abc0" d="M 331.5,28.5 C 330.167,28.5 328.833,28.5 327.5,28.5C 327.62,27.4138 328.287,26.7472 329.5,26.5C 330.713,26.7472 331.38,27.4138 331.5,28.5 Z"/></g>
<g><path style="opacity:0.91" fill="#a0afc4" d="M 296.5,28.5 C 295.167,28.5 293.833,28.5 292.5,28.5C 292.62,27.4138 293.287,26.7472 294.5,26.5C 295.713,26.7472 296.38,27.4138 296.5,28.5 Z"/></g>
<g><path style="opacity:0.91" fill="#a3b1c0" d="M 276.5,28.5 C 275.167,28.5 273.833,28.5 272.5,28.5C 272.62,27.4138 273.287,26.7472 274.5,26.5C 275.713,26.7472 276.38,27.4138 276.5,28.5 Z"/></g>
<g><path style="opacity:0.89" fill="#a3aec6" d="M 271.5,28.5 C 270.167,28.5 268.833,28.5 267.5,28.5C 267.62,27.4138 268.287,26.7472 269.5,26.5C 270.713,26.7472 271.38,27.4138 271.5,28.5 Z"/></g>
<g><path style="opacity:0.898" fill="#a3afc5" d="M 266.5,28.5 C 265.167,28.5 263.833,28.5 262.5,28.5C 262.62,27.4138 263.287,26.7472 264.5,26.5C 265.713,26.7472 266.38,27.4138 266.5,28.5 Z"/></g>
<g><path style="opacity:0.898" fill="#a6b1c8" d="M 231.5,28.5 C 229.901,28.7678 228.568,28.4345 227.5,27.5C 227.917,26.8761 228.584,26.5427 229.5,26.5C 230.713,26.7472 231.38,27.4138 231.5,28.5 Z"/></g>
<g><path style="opacity:0.89" fill="#a6b2c4" d="M 211.5,28.5 C 209.901,28.7678 208.568,28.4345 207.5,27.5C 207.917,26.8761 208.584,26.5427 209.5,26.5C 210.713,26.7472 211.38,27.4138 211.5,28.5 Z"/></g>
<g><path style="opacity:0.894" fill="#a6b3c3" d="M 206.5,27.5 C 205.432,28.4345 204.099,28.7678 202.5,28.5C 202.62,27.4138 203.287,26.7472 204.5,26.5C 205.416,26.5427 206.083,26.8761 206.5,27.5 Z"/></g>
<g><path style="opacity:0.882" fill="#a8b3c8" d="M 201.5,28.5 C 199.901,28.7678 198.568,28.4345 197.5,27.5C 197.917,26.8761 198.584,26.5427 199.5,26.5C 200.713,26.7472 201.38,27.4138 201.5,28.5 Z"/></g>
<g><path style="opacity:0.863" fill="#a6b3c3" d="M 196.5,27.5 C 195.432,28.4345 194.099,28.7678 192.5,28.5C 192.62,27.4138 193.287,26.7472 194.5,26.5C 195.416,26.5427 196.083,26.8761 196.5,27.5 Z"/></g>
<g><path style="opacity:0.863" fill="#a7b3c8" d="M 176.5,27.5 C 175.432,28.4345 174.099,28.7678 172.5,28.5C 172.62,27.4138 173.287,26.7472 174.5,26.5C 175.416,26.5427 176.083,26.8761 176.5,27.5 Z"/></g>
<g><path style="opacity:0.902" fill="#a8b3c9" d="M 161.5,28.5 C 160.167,28.5 158.833,28.5 157.5,28.5C 157.62,27.4138 158.287,26.7472 159.5,26.5C 160.713,26.7472 161.38,27.4138 161.5,28.5 Z"/></g>
<g><path style="opacity:0.894" fill="#a5b1c3" d="M 136.5,28.5 C 135.167,28.5 133.833,28.5 132.5,28.5C 132.62,27.4138 133.287,26.7472 134.5,26.5C 135.713,26.7472 136.38,27.4138 136.5,28.5 Z"/></g>
<g><path style="opacity:0.937" fill="#a5b1c3" d="M 131.5,28.5 C 130.833,28.5 130.167,28.5 129.5,28.5C 126.917,27.9085 126.917,27.2418 129.5,26.5C 130.713,26.7472 131.38,27.4138 131.5,28.5 Z"/></g>
<g><path style="opacity:0.214" fill="#a5b3c1" d="M 122.5,26.5 C 123.978,26.238 125.311,26.5713 126.5,27.5C 125.833,27.8333 125.167,28.1667 124.5,28.5C 123.287,28.2528 122.62,27.5862 122.5,26.5 Z"/></g>
<g><path style="opacity:0.239" fill="#a4b2c1" d="M 112.5,26.5 C 113.978,26.238 115.311,26.5713 116.5,27.5C 115.833,27.8333 115.167,28.1667 114.5,28.5C 113.287,28.2528 112.62,27.5862 112.5,26.5 Z"/></g>
<g><path style="opacity:0.318" fill="#a2b1c5" d="M 92.5,26.5 C 93.9778,26.238 95.3112,26.5713 96.5,27.5C 95.8333,27.8333 95.1667,28.1667 94.5,28.5C 93.2867,28.2528 92.62,27.5862 92.5,26.5 Z"/></g>
<g><path style="opacity:0.804" fill="#9dafc2" d="M 67.5,26.5 C 68.9778,26.238 70.3112,26.5713 71.5,27.5C 70.8333,27.8333 70.1667,28.1667 69.5,28.5C 68.2867,28.2528 67.62,27.5862 67.5,26.5 Z"/></g>
<g><path style="opacity:0.843" fill="#9dacc2" d="M 52.5,26.5 C 53.9778,26.238 55.3112,26.5713 56.5,27.5C 55.8333,27.8333 55.1667,28.1667 54.5,28.5C 53.2867,28.2528 52.62,27.5862 52.5,26.5 Z"/></g>
<g><path style="opacity:0.941" fill="#9cafc2" d="M 311.5,28.5 C 310.167,28.5 308.833,28.5 307.5,28.5C 307.62,27.4138 308.287,26.7472 309.5,26.5C 310.713,26.7472 311.38,27.4138 311.5,28.5 Z"/></g>
<g><path style="opacity:0.948" fill="#9faec2" d="M 301.5,28.5 C 300.167,28.5 298.833,28.5 297.5,28.5C 297.62,27.4138 298.287,26.7472 299.5,26.5C 300.713,26.7472 301.38,27.4138 301.5,28.5 Z"/></g>
<g><path style="opacity:0.947" fill="#a1b0c4" d="M 291.5,28.5 C 290.167,28.5 288.833,28.5 287.5,28.5C 287.62,27.4138 288.287,26.7472 289.5,26.5C 290.713,26.7472 291.38,27.4138 291.5,28.5 Z"/></g>
<g><path style="opacity:1" fill="#a2b0c0" d="M 286.5,28.5 C 285.167,28.5 283.833,28.5 282.5,28.5C 282.62,27.4138 283.287,26.7472 284.5,26.5C 285.713,26.7472 286.38,27.4138 286.5,28.5 Z"/></g>
<g><path style="opacity:0.923" fill="#a3afc4" d="M 281.5,28.5 C 280.167,28.5 278.833,28.5 277.5,28.5C 277.62,27.4138 278.287,26.7472 279.5,26.5C 280.713,26.7472 281.38,27.4138 281.5,28.5 Z"/></g>
<g><path style="opacity:0.941" fill="#a4b1c4" d="M 261.5,28.5 C 259.901,28.7678 258.568,28.4345 257.5,27.5C 257.917,26.8761 258.584,26.5427 259.5,26.5C 260.713,26.7472 261.38,27.4138 261.5,28.5 Z"/></g>
<g><path style="opacity:0.957" fill="#a5b1c5" d="M 256.5,27.5 C 255.432,28.4345 254.099,28.7678 252.5,28.5C 252.62,27.4138 253.287,26.7472 254.5,26.5C 255.416,26.5427 256.083,26.8761 256.5,27.5 Z"/></g>
<g><path style="opacity:1" fill="#a4b0c6" d="M 251.5,28.5 C 249.901,28.7678 248.568,28.4345 247.5,27.5C 247.917,26.8761 248.584,26.5427 249.5,26.5C 250.713,26.7472 251.38,27.4138 251.5,28.5 Z"/></g>
<g><path style="opacity:0.953" fill="#a4b0c6" d="M 246.5,27.5 C 245.432,28.4345 244.099,28.7678 242.5,28.5C 242.62,27.4138 243.287,26.7472 244.5,26.5C 245.416,26.5427 246.083,26.8761 246.5,27.5 Z"/></g>
<g><path style="opacity:0.965" fill="#a6b2c7" d="M 241.5,28.5 C 239.901,28.7678 238.568,28.4345 237.5,27.5C 237.917,26.8761 238.584,26.5427 239.5,26.5C 240.713,26.7472 241.38,27.4138 241.5,28.5 Z"/></g>
<g><path style="opacity:0.943" fill="#a4b0c6" d="M 236.5,27.5 C 235.432,28.4345 234.099,28.7678 232.5,28.5C 232.62,27.4138 233.287,26.7472 234.5,26.5C 235.416,26.5427 236.083,26.8761 236.5,27.5 Z"/></g>
<g><path style="opacity:1" fill="#a4b1c6" d="M 226.5,27.5 C 225.432,28.4345 224.099,28.7678 222.5,28.5C 222.62,27.4138 223.287,26.7472 224.5,26.5C 225.416,26.5427 226.083,26.8761 226.5,27.5 Z"/></g>
<g><path style="opacity:0.948" fill="#a5b1c3" d="M 221.5,28.5 C 219.901,28.7678 218.568,28.4345 217.5,27.5C 217.917,26.8761 218.584,26.5427 219.5,26.5C 220.713,26.7472 221.38,27.4138 221.5,28.5 Z"/></g>
<g><path style="opacity:0.929" fill="#a6b3c5" d="M 216.5,27.5 C 215.432,28.4345 214.099,28.7678 212.5,28.5C 212.62,27.4138 213.287,26.7472 214.5,26.5C 215.416,26.5427 216.083,26.8761 216.5,27.5 Z"/></g>
<g><path style="opacity:0.923" fill="#a6b2c4" d="M 191.5,28.5 C 189.901,28.7678 188.568,28.4345 187.5,27.5C 187.917,26.8761 188.584,26.5427 189.5,26.5C 190.713,26.7472 191.38,27.4138 191.5,28.5 Z"/></g>
<g><path style="opacity:0.945" fill="#a6b3c6" d="M 186.5,27.5 C 185.432,28.4345 184.099,28.7678 182.5,28.5C 182.62,27.4138 183.287,26.7472 184.5,26.5C 185.416,26.5427 186.083,26.8761 186.5,27.5 Z"/></g>
<g><path style="opacity:0.947" fill="#a6b3c5" d="M 181.5,28.5 C 179.901,28.7678 178.568,28.4345 177.5,27.5C 177.917,26.8761 178.584,26.5427 179.5,26.5C 180.713,26.7472 181.38,27.4138 181.5,28.5 Z"/></g>
<g><path style="opacity:1" fill="#a5b2c7" d="M 171.5,28.5 C 169.901,28.7678 168.568,28.4345 167.5,27.5C 167.917,26.8761 168.584,26.5427 169.5,26.5C 170.713,26.7472 171.38,27.4138 171.5,28.5 Z"/></g>
<g><path style="opacity:0.92" fill="#a6b2c7" d="M 166.5,27.5 C 165.432,28.4345 164.099,28.7678 162.5,28.5C 162.62,27.4138 163.287,26.7472 164.5,26.5C 165.416,26.5427 166.083,26.8761 166.5,27.5 Z"/></g>
<g><path style="opacity:0.957" fill="#a6b2c7" d="M 156.5,28.5 C 155.167,28.5 153.833,28.5 152.5,28.5C 152.62,27.4138 153.287,26.7472 154.5,26.5C 155.713,26.7472 156.38,27.4138 156.5,28.5 Z"/></g>
<g><path style="opacity:0.963" fill="#a5b1c7" d="M 151.5,28.5 C 150.167,28.5 148.833,28.5 147.5,28.5C 147.62,27.4138 148.287,26.7472 149.5,26.5C 150.713,26.7472 151.38,27.4138 151.5,28.5 Z"/></g>
<g><path style="opacity:0.957" fill="#a5b1c6" d="M 146.5,28.5 C 145.167,28.5 143.833,28.5 142.5,28.5C 142.62,27.4138 143.287,26.7472 144.5,26.5C 145.713,26.7472 146.38,27.4138 146.5,28.5 Z"/></g>
<g><path style="opacity:0.962" fill="#a5b2c4" d="M 141.5,28.5 C 140.167,28.5 138.833,28.5 137.5,28.5C 137.62,27.4138 138.287,26.7472 139.5,26.5C 140.713,26.7472 141.38,27.4138 141.5,28.5 Z"/></g>
<g><path style="opacity:0.324" fill="#a5b1c7" d="M 117.5,26.5 C 118.978,26.238 120.311,26.5713 121.5,27.5C 120.833,27.8333 120.167,28.1667 119.5,28.5C 118.287,28.2528 117.62,27.5862 117.5,26.5 Z"/></g>
<g><path style="opacity:0.324" fill="#a5b0c6" d="M 107.5,26.5 C 108.978,26.238 110.311,26.5713 111.5,27.5C 110.833,27.8333 110.167,28.1667 109.5,28.5C 108.287,28.2528 107.62,27.5862 107.5,26.5 Z"/></g>
<g><path style="opacity:0.359" fill="#a4afc5" d="M 102.5,26.5 C 103.978,26.238 105.311,26.5713 106.5,27.5C 105.833,27.8333 105.167,28.1667 104.5,28.5C 103.287,28.2528 102.62,27.5862 102.5,26.5 Z"/></g>
<g><path style="opacity:0.345" fill="#a3afc5" d="M 97.5,26.5 C 98.9778,26.238 100.311,26.5713 101.5,27.5C 100.833,27.8333 100.167,28.1667 99.5,28.5C 98.2867,28.2528 97.62,27.5862 97.5,26.5 Z"/></g>
<g><path style="opacity:0.49" fill="#a1afc4" d="M 87.5,26.5 C 88.9778,26.238 90.3112,26.5713 91.5,27.5C 90.8333,27.8333 90.1667,28.1667 89.5,28.5C 88.2867,28.2528 87.62,27.5862 87.5,26.5 Z"/></g>
<g><path style="opacity:0.59" fill="#a0b0c4" d="M 82.5,26.5 C 83.9778,26.238 85.3112,26.5713 86.5,27.5C 85.8333,27.8333 85.1667,28.1667 84.5,28.5C 83.2867,28.2528 82.62,27.5862 82.5,26.5 Z"/></g>
<g><path style="opacity:0.804" fill="#a0b1c4" d="M 77.5,26.5 C 78.9778,26.238 80.3112,26.5713 81.5,27.5C 80.8333,27.8333 80.1667,28.1667 79.5,28.5C 78.2867,28.2528 77.62,27.5862 77.5,26.5 Z"/></g>
<g><path style="opacity:0.755" fill="#9eb0c3" d="M 72.5,26.5 C 73.9778,26.238 75.3112,26.5713 76.5,27.5C 75.8333,27.8333 75.1667,28.1667 74.5,28.5C 73.2867,28.2528 72.62,27.5862 72.5,26.5 Z"/></g>
<g><path style="opacity:0.791" fill="#9eb0c2" d="M 62.5,26.5 C 63.9778,26.238 65.3112,26.5713 66.5,27.5C 65.8333,27.8333 65.1667,28.1667 64.5,28.5C 63.2867,28.2528 62.62,27.5862 62.5,26.5 Z"/></g>
<g><path style="opacity:0.938" fill="#9faec1" d="M 57.5,26.5 C 58.9778,26.238 60.3112,26.5713 61.5,27.5C 60.8333,27.8333 60.1667,28.1667 59.5,28.5C 58.2867,28.2528 57.62,27.5862 57.5,26.5 Z"/></g>
<g><path style="opacity:0.004" fill="#fefffe" d="M 322.5,31.5 C 323.833,32.1667 323.833,32.1667 322.5,31.5 Z"/></g>
<g><path style="opacity:0.004" fill="#fefffe" d="M 352.5,31.5 C 353.833,32.1667 353.833,32.1667 352.5,31.5 Z"/></g>
<g><path style="opacity:0.004" fill="#fefffe" d="M 362.5,32.5 C 363.833,33.1667 363.833,33.1667 362.5,32.5 Z"/></g>
<g><path style="opacity:0.004" fill="#fefffe" d="M 75.5,33.5 C 76.8333,34.1667 76.8333,34.1667 75.5,33.5 Z"/></g>
<g><path style="opacity:0.004" fill="#fefffe" d="M 132.5,33.5 C 133.833,34.1667 133.833,34.1667 132.5,33.5 Z"/></g>
<g><path style="opacity:0.004" fill="#fefffe" d="M 342.5,33.5 C 343.833,34.1667 343.833,34.1667 342.5,33.5 Z"/></g>
<g><path style="opacity:0.004" fill="#fefffe" d="M 118.5,34.5 C 119.833,35.1667 119.833,35.1667 118.5,34.5 Z"/></g>
<g><path style="opacity:0.004" fill="#fefffe" d="M 184.5,34.5 C 185.833,35.1667 185.833,35.1667 184.5,34.5 Z"/></g>
<g><path style="opacity:0.004" fill="#fefffe" d="M 259.5,34.5 C 260.833,35.1667 260.833,35.1667 259.5,34.5 Z"/></g>
<g><path style="opacity:0.004" fill="#fefffe" d="M 364.5,34.5 C 365.833,35.1667 365.833,35.1667 364.5,34.5 Z"/></g>
<g><path style="opacity:0.004" fill="#fefffe" d="M 3.5,36.5 C 4.83333,37.1667 4.83333,37.1667 3.5,36.5 Z"/></g>
<g><path style="opacity:0.004" fill="#fefffe" d="M 102.5,36.5 C 103.833,37.1667 103.833,37.1667 102.5,36.5 Z"/></g>
<g><path style="opacity:0.004" fill="#fefffe" d="M 112.5,37.5 C 113.833,38.1667 113.833,38.1667 112.5,37.5 Z"/></g>
<g><path style="opacity:0.004" fill="#fefffe" d="M 208.5,37.5 C 209.833,38.1667 209.833,38.1667 208.5,37.5 Z"/></g>
<g><path style="opacity:0.004" fill="#fefffe" d="M 178.5,40.5 C 179.833,41.1667 179.833,41.1667 178.5,40.5 Z"/></g>
<g><path style="opacity:0.004" fill="#fefffe" d="M 173.5,41.5 C 174.833,42.1667 174.833,42.1667 173.5,41.5 Z"/></g>
<g><path style="opacity:0.004" fill="#fefffe" d="M 242.5,41.5 C 243.833,42.1667 243.833,42.1667 242.5,41.5 Z"/></g>
<g><path style="opacity:0.004" fill="#fefffe" d="M 72.5,42.5 C 73.8333,43.1667 73.8333,43.1667 72.5,42.5 Z"/></g>
<g><path style="opacity:0.004" fill="#fefffe" d="M 96.5,42.5 C 97.8333,43.1667 97.8333,43.1667 96.5,42.5 Z"/></g>
<g><path style="opacity:0.004" fill="#fefffe" d="M 265.5,43.5 C 266.833,44.1667 266.833,44.1667 265.5,43.5 Z"/></g>
<g><path style="opacity:0.004" fill="#fefffe" d="M 86.5,44.5 C 87.8333,45.1667 87.8333,45.1667 86.5,44.5 Z"/></g>
<g><path style="opacity:0.004" fill="#fefffe" d="M 119.5,44.5 C 120.833,45.1667 120.833,45.1667 119.5,44.5 Z"/></g>
<g><path style="opacity:0.004" fill="#fefffe" d="M 122.5,44.5 C 123.833,45.1667 123.833,45.1667 122.5,44.5 Z"/></g>
<g><path style="opacity:0.004" fill="#fefffe" d="M 185.5,44.5 C 186.833,45.1667 186.833,45.1667 185.5,44.5 Z"/></g>
<g><path style="opacity:0.004" fill="#fefffe" d="M 236.5,44.5 C 237.833,45.1667 237.833,45.1667 236.5,44.5 Z"/></g>
<g><path style="opacity:0.004" fill="#fefffe" d="M 21.5,45.5 C 22.8333,46.1667 22.8333,46.1667 21.5,45.5 Z"/></g>
<g><path style="opacity:0.004" fill="#fefffe" d="M 27.5,45.5 C 28.8333,46.1667 28.8333,46.1667 27.5,45.5 Z"/></g>
<g><path style="opacity:0.004" fill="#fefffe" d="M 180.5,45.5 C 181.833,46.1667 181.833,46.1667 180.5,45.5 Z"/></g>
<g><path style="opacity:0.004" fill="#fefffe" d="M 11.5,47.5 C 10.8333,46.1667 10.8333,46.1667 11.5,47.5 Z"/></g>
</svg>
