<svg width="25" height="24" viewBox="0 0 25 24" fill="fill" xmlns="http://www.w3.org/2000/svg">
<g id="Export">
<path id="Vector" d="M9.27519 7.7099L11.5652 5.4099V14.9999C11.5652 15.2651 11.6705 15.5195 11.8581 15.707C12.0456 15.8945 12.3 15.9999 12.5652 15.9999C12.8304 15.9999 13.0848 15.8945 13.2723 15.707C13.4598 15.5195 13.5652 15.2651 13.5652 14.9999V5.4099L15.8552 7.7099C15.9481 7.80363 16.0587 7.87802 16.1806 7.92879C16.3025 7.97956 16.4332 8.00569 16.5652 8.00569C16.6972 8.00569 16.8279 7.97956 16.9498 7.92879C17.0716 7.87802 17.1822 7.80363 17.2752 7.7099C17.3689 7.61693 17.4433 7.50633 17.4941 7.38447C17.5448 7.26261 17.571 7.13191 17.571 6.9999C17.571 6.86788 17.5448 6.73718 17.4941 6.61532C17.4433 6.49346 17.3689 6.38286 17.2752 6.2899L13.2752 2.2899C13.1801 2.19886 13.0679 2.12749 12.9452 2.0799C12.7017 1.97988 12.4286 1.97988 12.1852 2.0799C12.0624 2.12749 11.9503 2.19886 11.8552 2.2899L7.85519 6.2899C7.76195 6.38313 7.68799 6.49383 7.63753 6.61565C7.58707 6.73747 7.56109 6.86804 7.56109 6.9999C7.56109 7.13176 7.58707 7.26232 7.63753 7.38415C7.68799 7.50597 7.76195 7.61666 7.85519 7.7099C7.94842 7.80313 8.05911 7.8771 8.18094 7.92756C8.30276 7.97802 8.43333 8.00399 8.56519 8.00399C8.69704 8.00399 8.82761 7.97802 8.94944 7.92756C9.07126 7.8771 9.18195 7.80313 9.27519 7.7099ZM21.5652 13.9999C21.3 13.9999 21.0456 14.1053 20.8581 14.2928C20.6705 14.4803 20.5652 14.7347 20.5652 14.9999V18.9999C20.5652 19.2651 20.4598 19.5195 20.2723 19.707C20.0848 19.8945 19.8304 19.9999 19.5652 19.9999H5.56519C5.29997 19.9999 5.04562 19.8945 4.85808 19.707C4.67054 19.5195 4.56519 19.2651 4.56519 18.9999V14.9999C4.56519 14.7347 4.45983 14.4803 4.27229 14.2928C4.08476 14.1053 3.8304 13.9999 3.56519 13.9999C3.29997 13.9999 3.04562 14.1053 2.85808 14.2928C2.67054 14.4803 2.56519 14.7347 2.56519 14.9999V18.9999C2.56519 19.7955 2.88126 20.5586 3.44387 21.1212C4.00647 21.6838 4.76954 21.9999 5.56519 21.9999H19.5652C20.3608 21.9999 21.1239 21.6838 21.6865 21.1212C22.2491 20.5586 22.5652 19.7955 22.5652 18.9999V14.9999C22.5652 14.7347 22.4598 14.4803 22.2723 14.2928C22.0848 14.1053 21.8304 13.9999 21.5652 13.9999Z" fill="fill"/>
</g>
</svg>
