<?xml version="1.0" encoding="UTF-8"?>
<!DOCTYPE svg PUBLIC "-//W3C//DTD SVG 1.1//EN" "http://www.w3.org/Graphics/SVG/1.1/DTD/svg11.dtd">
<svg xmlns="http://www.w3.org/2000/svg" version="1.1" width="612px" height="407px" style="shape-rendering:geometricPrecision; text-rendering:geometricPrecision; image-rendering:optimizeQuality; fill-rule:evenodd; clip-rule:evenodd" xmlns:xlink="http://www.w3.org/1999/xlink">
<g><path style="opacity:0.004" fill="#fefffe" d="M 497.5,17.5 C 498.833,18.1667 498.833,18.1667 497.5,17.5 Z"/></g>
<g><path style="opacity:0.004" fill="#fefffe" d="M 566.5,23.5 C 567.833,24.1667 567.833,24.1667 566.5,23.5 Z"/></g>
<g><path style="opacity:0.004" fill="#fefffe" d="M 410.5,32.5 C 411.833,33.1667 411.833,33.1667 410.5,32.5 Z"/></g>
<g><path style="opacity:0.522" fill="#2d3340" d="M 277.5,34.5 C 283.682,35.1716 286.182,38.5049 285,44.5C 279.189,50.1723 275.022,49.1723 272.5,41.5C 272.661,38.0172 274.327,35.6839 277.5,34.5 Z M 277.5,38.5 C 279.196,38.6854 280.529,39.5187 281.5,41C 280.383,42.8921 278.716,43.7254 276.5,43.5C 276.366,41.7085 276.699,40.0418 277.5,38.5 Z"/></g>
<g><path style="opacity:0.918" fill="#b2dbd6" d="M 196.5,39.5 C 200.145,38.6797 202.478,40.013 203.5,43.5C 200.613,48.5797 197.613,48.5797 194.5,43.5C 195.18,42.1401 195.847,40.8068 196.5,39.5 Z"/></g>
<g><path style="opacity:0.918" fill="#2d3441" d="M 384.5,36.5 C 391.333,37.5054 393.499,41.1721 391,47.5C 385.151,51.7177 380.984,50.3844 378.5,43.5C 379.143,39.866 381.143,37.5327 384.5,36.5 Z M 384.5,40.5 C 386.759,41.344 387.759,43.0107 387.5,45.5C 386.167,45.5 384.833,45.5 383.5,45.5C 383.366,43.7085 383.699,42.0418 384.5,40.5 Z"/></g>
<g><path style="opacity:0.937" fill="#2e363b" d="M 448.5,46.5 C 453.123,45.4082 454.956,47.0748 454,51.5C 453.768,50.2625 453.268,49.2625 452.5,48.5C 451.5,47.1667 450.5,47.1667 449.5,48.5C 448.732,49.2625 448.232,50.2625 448,51.5C 447.51,50.2068 447.343,48.8734 447.5,47.5C 447.5,46.8333 447.833,46.5 448.5,46.5 Z"/></g>
<g><path style="opacity:0.831" fill="#787d80" d="M 447.5,47.5 C 447.343,48.8734 447.51,50.2068 448,51.5C 448.232,50.2625 448.732,49.2625 449.5,48.5C 449.5,49.5 449.5,50.5 449.5,51.5C 450.5,51.5 451.5,51.5 452.5,51.5C 452.5,50.5 452.5,49.5 452.5,48.5C 453.268,49.2625 453.768,50.2625 454,51.5C 454.956,47.0748 453.123,45.4082 448.5,46.5C 450.139,44.0578 452.139,43.8911 454.5,46C 456.736,53.098 454.402,55.4313 447.5,53C 446.193,51.0565 446.193,49.2232 447.5,47.5 Z"/></g>
<g><path style="opacity:0.518" fill="#dee7eb" d="M 452.5,48.5 C 452.5,49.5 452.5,50.5 452.5,51.5C 451.5,51.5 450.5,51.5 449.5,51.5C 449.5,50.5 449.5,49.5 449.5,48.5C 450.5,47.1667 451.5,47.1667 452.5,48.5 Z"/></g>
<g><path style="opacity:0.004" fill="#fefffe" d="M 539.5,55.5 C 540.833,56.1667 540.833,56.1667 539.5,55.5 Z"/></g>
<g><path style="opacity:0.855" fill="#34363f" d="M 368.5,59.5 C 375.486,59.331 377.153,62.1643 373.5,68C 366.416,68.475 364.749,65.6417 368.5,59.5 Z"/></g>
<g><path style="opacity:0.004" fill="#fefffe" d="M 422.5,73.5 C 423.833,74.1667 423.833,74.1667 422.5,73.5 Z"/></g>
<g><path style="opacity:0.004" fill="#fefffe" d="M 20.5,77.5 C 21.8333,78.1667 21.8333,78.1667 20.5,77.5 Z"/></g>
<g><path style="opacity:0.004" fill="#fefffe" d="M 149.5,78.5 C 150.833,79.1667 150.833,79.1667 149.5,78.5 Z"/></g>
<g><path style="opacity:0.004" fill="#fefffe" d="M 2.5,80.5 C 3.83333,81.1667 3.83333,81.1667 2.5,80.5 Z"/></g>
<g><path style="opacity:1" fill="#c6cfd4" d="M 205.5,81.5 C 205.842,80.6618 206.508,80.3284 207.5,80.5C 242.833,80.5 278.167,80.5 313.5,80.5C 313.5,93.5 313.5,106.5 313.5,119.5C 312.505,107.011 312.171,94.3443 312.5,81.5C 277.833,81.5 243.167,81.5 208.5,81.5C 207.5,81.5 206.5,81.5 205.5,81.5 Z"/></g>
<g><path style="opacity:1" fill="#f9fbfb" d="M 208.5,81.5 C 243.167,81.5 277.833,81.5 312.5,81.5C 312.171,94.3443 312.505,107.011 313.5,119.5C 315.246,125.149 318.912,128.982 324.5,131C 341.83,131.5 359.163,131.667 376.5,131.5C 376.5,148.833 376.5,166.167 376.5,183.5C 379.5,183.5 382.5,183.5 385.5,183.5C 386.167,185.833 386.833,188.167 387.5,190.5C 374.396,188.206 362.729,191.04 352.5,199C 350.963,200.11 350.297,201.61 350.5,203.5C 333.846,228.747 338.179,249.581 363.5,266C 371.719,268.591 380.052,269.091 388.5,267.5C 389.298,267.957 389.631,268.624 389.5,269.5C 387.884,271.738 386.551,274.071 385.5,276.5C 382.5,276.5 379.5,276.5 376.5,276.5C 376.5,290.833 376.5,305.167 376.5,319.5C 375.432,322.075 373.765,324.242 371.5,326C 316.167,326.667 260.833,326.667 205.5,326C 203.536,324.549 202.203,322.716 201.5,320.5C 201.5,242.167 201.5,163.833 201.5,85.5C 205.132,86.9252 207.466,85.5919 208.5,81.5 Z"/></g>
<g><path style="opacity:1" fill="#304055" d="M 264.5,71.5 C 282.008,71.17 299.341,71.5033 316.5,72.5C 312.366,73.4849 308.032,73.8182 303.5,73.5C 303.5,74.8333 303.5,76.1667 303.5,77.5C 298.156,77.334 292.823,77.5006 287.5,78C 296.167,78.3333 304.833,78.6667 313.5,79C 277.998,79.1675 242.664,79.6675 207.5,80.5C 206.508,80.3284 205.842,80.6618 205.5,81.5C 202.833,82.1667 201.167,83.8333 200.5,86.5C 198.835,164.162 197.835,242.162 197.5,320.5C 196.522,320.023 195.689,319.357 195,318.5C 194.333,254.5 194.333,190.5 195,126.5C 195.571,119.005 196.071,111.505 196.5,104C 193.529,95.4742 193.862,87.1408 197.5,79C 200.5,78.1667 203.5,77.3333 206.5,76.5C 205.833,76.1667 205.167,75.8333 204.5,75.5C 205.376,74.7492 206.376,74.2492 207.5,74C 207.167,73.6667 206.833,73.3333 206.5,73C 226.004,72.8318 245.338,72.3318 264.5,71.5 Z"/></g>
<g><path style="opacity:1" fill="#7dc3ba" d="M 420.5,82.5 C 422.106,83.3591 423.773,83.5258 425.5,83C 429.596,86.8908 429.263,90.3908 424.5,93.5C 422.979,93.1203 421.313,92.9536 419.5,93C 416.64,89.1508 416.973,85.6508 420.5,82.5 Z"/></g>
<g><path style="opacity:1" fill="#e4ecef" d="M 205.5,81.5 C 206.5,81.5 207.5,81.5 208.5,81.5C 207.466,85.5919 205.132,86.9252 201.5,85.5C 201.5,163.833 201.5,242.167 201.5,320.5C 200.501,242.668 200.167,164.668 200.5,86.5C 201.167,83.8333 202.833,82.1667 205.5,81.5 Z"/></g>
<g><path style="opacity:0.004" fill="#fefffe" d="M 401.5,96.5 C 402.833,97.1667 402.833,97.1667 401.5,96.5 Z"/></g>
<g><path style="opacity:0.004" fill="#fefffe" d="M 407.5,96.5 C 408.833,97.1667 408.833,97.1667 407.5,96.5 Z"/></g>
<g><path style="opacity:0.004" fill="#fefffe" d="M 590.5,99.5 C 591.833,100.167 591.833,100.167 590.5,99.5 Z"/></g>
<g><path style="opacity:0.004" fill="#fefffe" d="M 146.5,104.5 C 147.833,105.167 147.833,105.167 146.5,104.5 Z"/></g>
<g><path style="opacity:0.798" fill="#a2b1b4" d="M 186.5,109.5 C 190.001,111.347 190.335,113.68 187.5,116.5C 187.738,112.901 186.738,112.567 184.5,115.5C 182.889,114.68 182.222,113.346 182.5,111.5C 184.144,111.286 185.644,111.62 187,112.5C 187.47,111.423 187.303,110.423 186.5,109.5 Z"/></g>
<g><path style="opacity:0.004" fill="#fefffe" d="M 479.5,112.5 C 480.833,113.167 480.833,113.167 479.5,112.5 Z"/></g>
<g><path style="opacity:0.737" fill="#4a5256" d="M 186.5,109.5 C 187.303,110.423 187.47,111.423 187,112.5C 185.644,111.62 184.144,111.286 182.5,111.5C 182.222,113.346 182.889,114.68 184.5,115.5C 186.738,112.567 187.738,112.901 187.5,116.5C 183.548,118.342 180.881,117.176 179.5,113C 180.784,109.138 183.118,107.971 186.5,109.5 Z"/></g>
<g><path style="opacity:0.204" fill="#b9eee9" d="M 148.5,120.5 C 146.312,121.536 146.312,123.036 148.5,125C 143.167,125.667 143.167,126.333 148.5,127C 146.453,129.054 146.453,130.054 148.5,130C 149.742,126.643 150.576,126.81 151,130.5C 151.671,131.252 152.504,131.586 153.5,131.5C 151.434,131.805 149.267,132.139 147,132.5C 145.084,130.767 143.918,128.6 143.5,126C 145.013,124.121 145.679,121.954 145.5,119.5C 146.791,119.263 147.791,119.596 148.5,120.5 Z"/></g>
<g><path style="opacity:1" fill="#6abbb0" d="M 153.5,120.5 C 153.249,122.17 152.582,123.67 151.5,125C 153.991,125.626 153.991,126.459 151.5,127.5C 152.63,128.622 153.297,129.956 153.5,131.5C 152.504,131.586 151.671,131.252 151,130.5C 150.576,126.81 149.742,126.643 148.5,130C 146.453,130.054 146.453,129.054 148.5,127C 143.167,126.333 143.167,125.667 148.5,125C 146.312,123.036 146.312,121.536 148.5,120.5C 150.334,119.506 152.001,119.506 153.5,120.5 Z"/></g>
<g><path style="opacity:0.592" fill="#b7e0dd" d="M 153.5,120.5 C 154.604,121.997 155.604,123.664 156.5,125.5C 155.488,127.563 154.488,129.563 153.5,131.5C 153.297,129.956 152.63,128.622 151.5,127.5C 153.991,126.459 153.991,125.626 151.5,125C 152.582,123.67 153.249,122.17 153.5,120.5 Z"/></g>
<g><path style="opacity:0.004" fill="#fefffe" d="M 461.5,126.5 C 462.833,127.167 462.833,127.167 461.5,126.5 Z"/></g>
<g><path style="opacity:1" fill="#314353" d="M 316.5,72.5 C 339.751,90.0819 362.418,108.415 384.5,127.5C 383.503,145.659 383.17,163.992 383.5,182.5C 381.5,182.5 379.5,182.5 377.5,182.5C 377.83,165.325 377.497,148.325 376.5,131.5C 359.163,131.667 341.83,131.5 324.5,131C 318.912,128.982 315.246,125.149 313.5,119.5C 313.5,106.5 313.5,93.5 313.5,80.5C 278.167,80.5 242.833,80.5 207.5,80.5C 242.664,79.6675 277.998,79.1675 313.5,79C 304.833,78.6667 296.167,78.3333 287.5,78C 292.823,77.5006 298.156,77.334 303.5,77.5C 303.5,76.1667 303.5,74.8333 303.5,73.5C 308.032,73.8182 312.366,73.4849 316.5,72.5 Z"/></g>
<g><path style="opacity:1" fill="#f6f9f9" d="M 321.5,87.5 C 336.292,99.1202 350.959,110.954 365.5,123C 351.739,123.963 338.072,123.63 324.5,122C 323.299,121.097 322.465,119.931 322,118.5C 321.5,108.172 321.334,97.8387 321.5,87.5 Z"/></g>
<g><path style="opacity:0.004" fill="#fefffe" d="M 512.5,128.5 C 513.833,129.167 513.833,129.167 512.5,128.5 Z"/></g>
<g><path style="opacity:1" fill="#6a757c" d="M 376.5,131.5 C 377.497,148.325 377.83,165.325 377.5,182.5C 379.5,182.5 381.5,182.5 383.5,182.5C 384.167,182.5 384.833,182.5 385.5,182.5C 385.5,182.833 385.5,183.167 385.5,183.5C 382.5,183.5 379.5,183.5 376.5,183.5C 376.5,166.167 376.5,148.833 376.5,131.5 Z"/></g>
<g><path style="opacity:1" fill="#324453" d="M 246.5,92.5 C 251.777,91.9312 256.777,92.7645 261.5,95C 263.121,97.166 263.955,99.666 264,102.5C 275.889,107.712 280.889,116.712 279,129.5C 277.854,131.644 276.354,133.477 274.5,135C 282.818,146.821 282.151,158.154 272.5,169C 269.873,170.897 267.039,172.397 264,173.5C 264.188,177.232 262.688,180.066 259.5,182C 254.833,182.667 250.167,182.667 245.5,182C 242.156,180.106 240.822,177.273 241.5,173.5C 227.283,169.399 221.45,160.065 224,145.5C 225.745,143.251 227.912,141.584 230.5,140.5C 222.278,129.433 222.611,118.599 231.5,108C 234.286,105.94 237.286,104.44 240.5,103.5C 240.171,98.4866 242.171,94.82 246.5,92.5 Z"/></g>
<g><path style="opacity:1" fill="#f4f7f7" d="M 249.5,100.5 C 251.5,100.5 253.5,100.5 255.5,100.5C 255.5,103.5 255.5,106.5 255.5,109.5C 265.683,110.681 271.017,116.348 271.5,126.5C 267.5,126.5 263.5,126.5 259.5,126.5C 259.244,119.421 255.577,116.588 248.5,118C 244.584,120.655 243.584,124.155 245.5,128.5C 252.575,132.805 259.908,136.638 267.5,140C 275.891,151.516 273.558,160.183 260.5,166C 258.866,166.494 257.199,166.66 255.5,166.5C 255.5,169.167 255.5,171.833 255.5,174.5C 253.5,174.5 251.5,174.5 249.5,174.5C 249.768,171.881 249.435,169.381 248.5,167C 237.184,166.519 231.517,160.685 231.5,149.5C 235.167,149.5 238.833,149.5 242.5,149.5C 243.779,157.648 248.446,160.481 256.5,158C 261.726,153.585 261.726,149.251 256.5,145C 248.236,143.119 241.069,139.286 235,133.5C 229.821,119.531 234.655,111.531 249.5,109.5C 249.5,106.5 249.5,103.5 249.5,100.5 Z"/></g>
<g><path style="opacity:0.876" fill="#1a2537" d="M 384.5,127.5 C 385.497,145.659 385.83,163.992 385.5,182.5C 384.833,182.5 384.167,182.5 383.5,182.5C 383.17,163.992 383.503,145.659 384.5,127.5 Z"/></g>
<g><path style="opacity:0.004" fill="#fefffe" d="M 83.5,152.5 C 84.8333,153.167 84.8333,153.167 83.5,152.5 Z"/></g>
<g><path style="opacity:0.004" fill="#fefffe" d="M 68.5,155.5 C 69.8333,156.167 69.8333,156.167 68.5,155.5 Z"/></g>
<g><path style="opacity:0.004" fill="#fefffe" d="M 494.5,159.5 C 495.833,160.167 495.833,160.167 494.5,159.5 Z"/></g>
<g><path style="opacity:0.004" fill="#fefffe" d="M 98.5,172.5 C 99.8333,173.167 99.8333,173.167 98.5,172.5 Z"/></g>
<g><path style="opacity:0.004" fill="#fefffe" d="M 491.5,173.5 C 492.833,174.167 492.833,174.167 491.5,173.5 Z"/></g>
<g><path style="opacity:0.153" fill="#64b6a7" d="M 437.5,163.5 C 439.114,165.075 441.114,165.741 443.5,165.5C 443.477,167.6 444.144,169.433 445.5,171C 444.144,172.567 443.477,174.4 443.5,176.5C 440.833,176.5 438.167,176.5 435.5,176.5C 435.421,174.334 434.754,172.334 433.5,170.5C 434.071,167.687 435.404,165.354 437.5,163.5 Z"/></g>
<g><path style="opacity:1" fill="#c8f9f5" d="M 387.5,190.5 C 388.492,190.328 389.158,190.662 389.5,191.5C 374.152,188.364 361.152,192.364 350.5,203.5C 350.297,201.61 350.963,200.11 352.5,199C 362.729,191.04 374.396,188.206 387.5,190.5 Z"/></g>
<g><path style="opacity:0.004" fill="#fefffe" d="M 110.5,195.5 C 111.833,196.167 111.833,196.167 110.5,195.5 Z"/></g>
<g><path style="opacity:1" fill="#324454" d="M 230.5,195.5 C 267.835,195.333 305.168,195.5 342.5,196C 343.866,198.382 343.533,200.548 341.5,202.5C 304.5,203.833 267.5,203.833 230.5,202.5C 229.178,200.135 229.178,197.802 230.5,195.5 Z"/></g>
<g><path style="opacity:1" fill="#324152" d="M 230.5,215.5 C 265.173,215.167 299.84,215.5 334.5,216.5C 333.626,218.747 333.292,221.08 333.5,223.5C 299.165,223.667 264.832,223.5 230.5,223C 229.221,220.502 229.221,218.002 230.5,215.5 Z"/></g>
<g><path style="opacity:0.004" fill="#fefffe" d="M 119.5,222.5 C 120.833,223.167 120.833,223.167 119.5,222.5 Z"/></g>
<g><path style="opacity:0.004" fill="#fefffe" d="M 167.5,228.5 C 168.833,229.167 168.833,229.167 167.5,228.5 Z"/></g>
<g><path style="opacity:0.004" fill="#fefffe" d="M 575.5,230.5 C 576.833,231.167 576.833,231.167 575.5,230.5 Z"/></g>
<g><path style="opacity:0.004" fill="#fefffe" d="M 494.5,234.5 C 495.833,235.167 495.833,235.167 494.5,234.5 Z"/></g>
<g><path style="opacity:1" fill="#2d4050" d="M 333.5,242.5 C 299.337,243.498 265.004,243.832 230.5,243.5C 229.232,241.33 229.232,239.163 230.5,237C 264.832,236.5 299.165,236.333 333.5,236.5C 333.5,238.5 333.5,240.5 333.5,242.5 Z"/></g>
<g><path style="opacity:0.004" fill="#fefffe" d="M 74.5,242.5 C 75.8333,243.167 75.8333,243.167 74.5,242.5 Z"/></g>
<g><path style="opacity:1" fill="#56626b" d="M 333.5,242.5 C 334.043,242.56 334.376,242.893 334.5,243.5C 299.669,244.83 265.002,244.83 230.5,243.5C 265.004,243.832 299.337,243.498 333.5,242.5 Z"/></g>
<g><path style="opacity:0.004" fill="#fefffe" d="M 185.5,245.5 C 186.833,246.167 186.833,246.167 185.5,245.5 Z"/></g>
<g><path style="opacity:0.004" fill="#fefffe" d="M 482.5,245.5 C 483.833,246.167 483.833,246.167 482.5,245.5 Z"/></g>
<g><path style="opacity:1" fill="#dbe2e9" d="M 343.5,262.5 C 343.617,260.516 342.95,258.85 341.5,257.5C 304.839,256.5 268.173,256.167 231.5,256.5C 268.384,256.16 305.217,255.16 342,253.5C 344.47,256.314 344.97,259.314 343.5,262.5 Z"/></g>
<g><path style="opacity:1" fill="#324353" d="M 231.5,256.5 C 268.173,256.167 304.839,256.5 341.5,257.5C 342.95,258.85 343.617,260.516 343.5,262.5C 343.082,263.222 342.416,263.722 341.5,264C 304.5,264.667 267.5,264.667 230.5,264C 229.093,261.215 229.426,258.715 231.5,256.5 Z"/></g>
<g><path style="opacity:1" fill="#2dc4ad" d="M 389.5,191.5 C 392.912,192.042 395.912,193.375 398.5,195.5C 385.377,190.771 372.711,191.604 360.5,198C 358.077,199.571 356.744,201.737 356.5,204.5C 359.278,204.978 361.278,203.978 362.5,201.5C 380.916,193.645 396.082,197.645 408,213.5C 408.692,212.975 409.192,212.308 409.5,211.5C 408.846,209.885 408.346,208.218 408,206.5C 407.333,207.833 406.667,207.833 406,206.5C 404.949,203.039 402.949,200.373 400,198.5C 399.517,197.552 399.351,196.552 399.5,195.5C 420.574,211.03 424.741,230.363 412,253.5C 405.733,260.606 398.233,265.939 389.5,269.5C 389.631,268.624 389.298,267.957 388.5,267.5C 380.052,269.091 371.719,268.591 363.5,266C 338.179,249.581 333.846,228.747 350.5,203.5C 361.152,192.364 374.152,188.364 389.5,191.5 Z"/></g>
<g><path style="opacity:1" fill="#d1fcf9" d="M 357.5,250.5 C 359.435,251.15 361.435,251.483 363.5,251.5C 363.5,252.5 363.5,253.5 363.5,254.5C 366.532,255.511 369.532,256.678 372.5,258C 374.833,258.167 377.167,258.333 379.5,258.5C 384.025,257.2 389.359,256.2 395.5,255.5C 393.035,257.837 390.035,259.337 386.5,260C 374.902,262.195 365.235,259.028 357.5,250.5 Z"/></g>
<g><path style="opacity:1" fill="#f6fcfb" d="M 395.5,255.5 C 389.359,256.2 384.025,257.2 379.5,258.5C 377.167,258.333 374.833,258.167 372.5,258C 369.532,256.678 366.532,255.511 363.5,254.5C 363.5,253.5 363.5,252.5 363.5,251.5C 361.435,251.483 359.435,251.15 357.5,250.5C 349.939,242.315 347.439,232.648 350,221.5C 358.833,201.107 373.666,194.94 394.5,203C 411.425,214.537 414.925,229.37 405,247.5C 402.715,249.907 400.549,252.407 398.5,255C 397.552,255.483 396.552,255.649 395.5,255.5 Z"/></g>
<g><path style="opacity:1" fill="#334352" d="M 391.5,217.5 C 396.459,216.628 398.625,218.628 398,223.5C 391.136,230.698 383.97,237.532 376.5,244C 375.167,244.667 373.833,244.667 372.5,244C 369.283,240.483 365.783,237.316 362,234.5C 360.739,228.92 362.906,227.087 368.5,229C 370.401,231.613 372.735,233.28 375.5,234C 381.113,228.557 386.446,223.057 391.5,217.5 Z"/></g>
<g><path style="opacity:1" fill="#15cab0" d="M 398.5,195.5 C 398.833,195.5 399.167,195.5 399.5,195.5C 399.351,196.552 399.517,197.552 400,198.5C 402.949,200.373 404.949,203.039 406,206.5C 406.667,207.833 407.333,207.833 408,206.5C 408.346,208.218 408.846,209.885 409.5,211.5C 409.192,212.308 408.692,212.975 408,213.5C 396.082,197.645 380.916,193.645 362.5,201.5C 361.278,203.978 359.278,204.978 356.5,204.5C 356.744,201.737 358.077,199.571 360.5,198C 372.711,191.604 385.377,190.771 398.5,195.5 Z"/></g>
<g><path style="opacity:0.004" fill="#fefffe" d="M 608.5,267.5 C 609.833,268.167 609.833,268.167 608.5,267.5 Z"/></g>
<g><path style="opacity:0.004" fill="#fefffe" d="M 110.5,272.5 C 111.833,273.167 111.833,273.167 110.5,272.5 Z"/></g>
<g><path style="opacity:0.004" fill="#fefffe" d="M 446.5,279.5 C 447.833,280.167 447.833,280.167 446.5,279.5 Z"/></g>
<g><path style="opacity:0.004" fill="#fefffe" d="M -0.5,286.5 C 0.833333,287.167 0.833333,287.167 -0.5,286.5 Z"/></g>
<g><path style="opacity:1" fill="#667379" d="M 385.5,276.5 C 385.5,276.833 385.5,277.167 385.5,277.5C 382.833,277.5 380.167,277.5 377.5,277.5C 377.829,291.677 377.496,305.677 376.5,319.5C 376.5,305.167 376.5,290.833 376.5,276.5C 379.5,276.5 382.5,276.5 385.5,276.5 Z"/></g>
<g><path style="opacity:0.004" fill="#fefffe" d="M 131.5,291.5 C 132.833,292.167 132.833,292.167 131.5,291.5 Z"/></g>
<g><path style="opacity:0.004" fill="#fefffe" d="M 458.5,293.5 C 459.833,294.167 459.833,294.167 458.5,293.5 Z"/></g>
<g><path style="opacity:0.004" fill="#fefffe" d="M 422.5,297.5 C 423.833,298.167 423.833,298.167 422.5,297.5 Z"/></g>
<g><path style="opacity:0.004" fill="#fefffe" d="M 470.5,297.5 C 471.833,298.167 471.833,298.167 470.5,297.5 Z"/></g>
<g><path style="opacity:0.004" fill="#fefffe" d="M 566.5,299.5 C 567.833,300.167 567.833,300.167 566.5,299.5 Z"/></g>
<g><path style="opacity:0.004" fill="#fefffe" d="M 158.5,300.5 C 159.833,301.167 159.833,301.167 158.5,300.5 Z"/></g>
<g><path style="opacity:0.004" fill="#fefffe" d="M 533.5,301.5 C 534.833,302.167 534.833,302.167 533.5,301.5 Z"/></g>
<g><path style="opacity:0.004" fill="#feff00" d="M 2.5,309.5 C 3.83333,310.167 3.83333,310.167 2.5,309.5 Z"/></g>
<g><path style="opacity:0.004" fill="#fefffe" d="M 8.5,312.5 C 9.83333,313.167 9.83333,313.167 8.5,312.5 Z"/></g>
<g><path style="opacity:0.004" fill="#fefffe" d="M 116.5,314.5 C 117.833,315.167 117.833,315.167 116.5,314.5 Z"/></g>
<g><path style="opacity:0.004" fill="#fefffe" d="M 35.5,319.5 C 36.8333,320.167 36.8333,320.167 35.5,319.5 Z"/></g>
<g><path style="opacity:0.004" fill="#fefffe" d="M 170.5,323.5 C 171.833,324.167 171.833,324.167 170.5,323.5 Z"/></g>
<g><path style="opacity:0.004" fill="#fefffe" d="M 572.5,324.5 C 573.833,325.167 573.833,325.167 572.5,324.5 Z"/></g>
<g><path style="opacity:1" fill="#3b4b59" d="M 264.5,71.5 C 245.338,72.3318 226.004,72.8318 206.5,73C 206.833,73.3333 207.167,73.6667 207.5,74C 206.376,74.2492 205.376,74.7492 204.5,75.5C 205.167,75.8333 205.833,76.1667 206.5,76.5C 203.5,77.3333 200.5,78.1667 197.5,79C 193.862,87.1408 193.529,95.4742 196.5,104C 196.071,111.505 195.571,119.005 195,126.5C 194.333,190.5 194.333,254.5 195,318.5C 195.689,319.357 196.522,320.023 197.5,320.5C 197.835,242.162 198.835,164.162 200.5,86.5C 200.167,164.668 200.501,242.668 201.5,320.5C 202.203,322.716 203.536,324.549 205.5,326C 260.833,326.667 316.167,326.667 371.5,326C 373.765,324.242 375.432,322.075 376.5,319.5C 377.496,305.677 377.829,291.677 377.5,277.5C 380.167,277.5 382.833,277.5 385.5,277.5C 385.667,292.504 385.5,307.504 385,322.5C 384.626,323.416 384.126,324.25 383.5,325C 403.833,325.333 424.167,325.667 444.5,326C 445.756,326.417 446.423,327.25 446.5,328.5C 445.898,330.68 444.565,332.346 442.5,333.5C 441.914,333.291 441.414,332.957 441,332.5C 379.069,333.165 317.236,333.832 255.5,334.5C 247.977,334.335 240.477,334.668 233,335.5C 210.512,334.714 188.012,334.214 165.5,334C 162.75,330.988 163.083,328.321 166.5,326C 175.5,325.667 184.5,325.333 193.5,325C 192.809,323.933 192.309,322.766 192,321.5C 191.833,282 191.667,242.5 191.5,203C 191.342,162.442 191.842,121.942 193,81.5C 195.751,76.4097 199.917,73.243 205.5,72C 225.164,71.5 244.831,71.3334 264.5,71.5 Z"/></g>
<g><path style="opacity:1" fill="#30414f" d="M 231.5,297.5 C 268.168,297.333 304.835,297.5 341.5,298C 344.167,300.333 344.167,302.667 341.5,305C 304.5,305.667 267.5,305.667 230.5,305C 229.046,302.216 229.379,299.716 231.5,297.5 Z"/></g>
<g><path style="opacity:1" fill="#324454" d="M 230.5,277.5 C 267.835,277.333 305.168,277.5 342.5,278C 343.982,280.592 343.648,282.925 341.5,285C 304.495,285.833 267.495,285.667 230.5,284.5C 229.178,282.135 229.178,279.802 230.5,277.5 Z"/></g>
<g><path style="opacity:0.749" fill="#26303a" d="M 471.5,325.5 C 477.803,325.924 479.469,328.757 476.5,334C 469.237,334.821 467.571,331.988 471.5,325.5 Z"/></g>
<g><path style="opacity:1" fill="#43505c" d="M 147.5,325.5 C 150.85,325.335 154.183,325.502 157.5,326C 158.191,327.067 158.691,328.234 159,329.5C 159.333,329.167 159.667,328.833 160,328.5C 160.825,330.701 160.325,332.534 158.5,334C 154.833,334.667 151.167,334.667 147.5,334C 143.893,331.303 143.893,328.47 147.5,325.5 Z"/></g>
<g><path style="opacity:1" fill="#2d3d4c" d="M 453.5,325.5 C 456.85,325.335 460.183,325.502 463.5,326C 466.417,328.169 466.917,330.669 465,333.5C 460.921,334.629 456.755,334.796 452.5,334C 449.83,330.838 450.163,328.005 453.5,325.5 Z"/></g>
<g><path style="opacity:0.784" fill="#4c575f" d="M 135.5,325.5 C 141.351,325.892 143.018,328.559 140.5,333.5C 132.254,334.922 130.587,332.256 135.5,325.5 Z"/></g>
<g><path style="opacity:0.71" fill="#1e2937" d="M 446.5,328.5 C 447.887,330.489 447.553,332.322 445.5,334C 385.495,334.206 325.495,334.706 265.5,335.5C 261.982,335.498 258.649,335.165 255.5,334.5C 317.236,333.832 379.069,333.165 441,332.5C 441.414,332.957 441.914,333.291 442.5,333.5C 444.565,332.346 445.898,330.68 446.5,328.5 Z"/></g>
<g><path style="opacity:0.004" fill="#fefffe" d="M 179.5,335.5 C 180.833,336.167 180.833,336.167 179.5,335.5 Z"/></g>
<g><path style="opacity:0.004" fill="#fefffe" d="M 197.5,345.5 C 198.833,346.167 198.833,346.167 197.5,345.5 Z"/></g>
<g><path style="opacity:1" fill="#19c7af" d="M 315.5,353.5 C 314.65,356.261 315.65,356.928 318.5,355.5C 323.437,357.134 328.771,358.134 334.5,358.5C 335.953,360.644 335.62,362.477 333.5,364C 315.158,364.833 296.824,364.666 278.5,363.5C 277.035,361.055 277.535,359.055 280,357.5C 285.447,358.648 290.947,358.648 296.5,357.5C 296.941,352.077 295.108,350.411 291,352.5C 281.534,351.705 272.034,351.205 262.5,351C 261.14,349.062 261.473,347.396 263.5,346C 291.833,345.333 320.167,345.333 348.5,346C 350.14,348.776 349.473,350.776 346.5,352C 335.992,352.17 325.659,352.67 315.5,353.5 Z"/></g>
<g><path style="opacity:0.999" fill="#25bca5" d="M 357.5,343.5 C 364.547,343.337 371.547,343.837 378.5,345C 381.263,347.955 380.93,350.622 377.5,353C 370.5,353.667 363.5,353.667 356.5,353C 352.622,349.447 352.955,346.281 357.5,343.5 Z"/></g>
<g><path style="opacity:0.004" fill="#fefffe" d="M 560.5,348.5 C 561.833,349.167 561.833,349.167 560.5,348.5 Z"/></g>
<g><path style="opacity:1" fill="#3ebfac" d="M 239.5,343.5 C 243.878,343.629 248.045,343.629 252,343.5C 259.333,347.167 259.333,350.833 252,354.5C 245.915,353.688 239.748,353.188 233.5,353C 230.583,350.831 230.083,348.331 232,345.5C 234.607,344.877 237.107,344.21 239.5,343.5 Z"/></g>
<g><path style="opacity:0.004" fill="#fefffe" d="M 143.5,350.5 C 144.833,351.167 144.833,351.167 143.5,350.5 Z"/></g>
<g><path style="opacity:0.004" fill="#fefffe" d="M 215.5,357.5 C 216.833,358.167 216.833,358.167 215.5,357.5 Z"/></g>
<g><path style="opacity:0.004" fill="#fefffe" d="M 548.5,361.5 C 549.833,362.167 549.833,362.167 548.5,361.5 Z"/></g>
<g><path style="opacity:0.004" fill="#fefffe" d="M 2.5,364.5 C 3.83333,365.167 3.83333,365.167 2.5,364.5 Z"/></g>
<g><path style="opacity:0.651" fill="#38ac9e" d="M 315.5,353.5 C 325.659,352.67 335.992,352.17 346.5,352C 349.473,350.776 350.14,348.776 348.5,346C 320.167,345.333 291.833,345.333 263.5,346C 261.473,347.396 261.14,349.062 262.5,351C 272.034,351.205 281.534,351.705 291,352.5C 295.108,350.411 296.941,352.077 296.5,357.5C 290.947,358.648 285.447,358.648 280,357.5C 277.535,359.055 277.035,361.055 278.5,363.5C 296.824,364.666 315.158,364.833 333.5,364C 335.62,362.477 335.953,360.644 334.5,358.5C 328.771,358.134 323.437,357.134 318.5,355.5C 324.085,356.288 329.752,356.788 335.5,357C 337.425,359.465 337.425,362.132 335.5,365C 316.167,365.667 296.833,365.667 277.5,365C 274.966,362.253 274.966,359.587 277.5,357C 283.615,355.67 289.615,355.17 295.5,355.5C 284.514,354.509 273.514,353.676 262.5,353C 258.303,349.464 258.636,346.464 263.5,344C 291.167,343.333 318.833,343.333 346.5,344C 352.218,345.872 352.885,348.872 348.5,353C 337.505,353.5 326.505,353.667 315.5,353.5 Z"/></g>
<g><path style="opacity:0.004" fill="#fefffe" d="M 188.5,367.5 C 189.833,368.167 189.833,368.167 188.5,367.5 Z"/></g>
<g><path style="opacity:0.004" fill="#fefffe" d="M 203.5,367.5 C 204.833,368.167 204.833,368.167 203.5,367.5 Z"/></g>
<g><path style="opacity:0.004" fill="#fefffe" d="M 107.5,371.5 C 108.833,372.167 108.833,372.167 107.5,371.5 Z"/></g>
<g><path style="opacity:0.004" fill="#fefffe" d="M 470.5,379.5 C 471.833,380.167 471.833,380.167 470.5,379.5 Z"/></g>
<g><path style="opacity:0.004" fill="#fefffe" d="M 416.5,382.5 C 417.833,383.167 417.833,383.167 416.5,382.5 Z"/></g>
<g><path style="opacity:0.004" fill="#fefffe" d="M 407.5,386.5 C 408.833,387.167 408.833,387.167 407.5,386.5 Z"/></g>
<g><path style="opacity:0.004" fill="#fefffe" d="M 359.5,388.5 C 360.833,389.167 360.833,389.167 359.5,388.5 Z"/></g>
<g><path style="opacity:0.004" fill="#fefffe" d="M 299.5,395.5 C 300.833,396.167 300.833,396.167 299.5,395.5 Z"/></g>
<g><path style="opacity:0.004" fill="#fefffe" d="M 179.5,397.5 C 180.833,398.167 180.833,398.167 179.5,397.5 Z"/></g>
<g><path style="opacity:0.004" fill="#fefffe" d="M 317.5,397.5 C 318.833,398.167 318.833,398.167 317.5,397.5 Z"/></g>
<g><path style="opacity:0.004" fill="#fefffe" d="M 545.5,398.5 C 546.833,399.167 546.833,399.167 545.5,398.5 Z"/></g>
<g><path style="opacity:0.004" fill="#fefffe" d="M 146.5,402.5 C 147.833,403.167 147.833,403.167 146.5,402.5 Z"/></g>
</svg>
