<?xml version="1.0" encoding="UTF-8"?>
<!DOCTYPE svg PUBLIC "-//W3C//DTD SVG 1.1//EN" "http://www.w3.org/Graphics/SVG/1.1/DTD/svg11.dtd">
<svg xmlns="http://www.w3.org/2000/svg" version="1.1" width="136px" height="138px" style="shape-rendering:geometricPrecision; text-rendering:geometricPrecision; image-rendering:optimizeQuality; fill-rule:evenodd; clip-rule:evenodd" xmlns:xlink="http://www.w3.org/1999/xlink">
<g><path style="opacity:1" fill="#4c4e54" d="M -0.5,-0.5 C 44.8333,-0.5 90.1667,-0.5 135.5,-0.5C 135.5,45.5 135.5,91.5 135.5,137.5C 90.1667,137.5 44.8333,137.5 -0.5,137.5C -0.5,91.5 -0.5,45.5 -0.5,-0.5 Z"/></g>
<g><path style="opacity:1" fill="#5f697d" d="M 5.5,3.5 C 5.97041,4.69348 6.97041,5.36015 8.5,5.5C 10.0296,5.36015 11.0296,4.69348 11.5,3.5C 12.8333,3.5 14.1667,3.5 15.5,3.5C 15.9704,4.69348 16.9704,5.36015 18.5,5.5C 20.0296,5.36015 21.0296,4.69348 21.5,3.5C 22.8333,3.5 24.1667,3.5 25.5,3.5C 25.9704,4.69348 26.9704,5.36015 28.5,5.5C 30.0296,5.36015 31.0296,4.69348 31.5,3.5C 32.8333,3.5 34.1667,3.5 35.5,3.5C 35.9704,4.69348 36.9704,5.36015 38.5,5.5C 40.0296,5.36015 41.0296,4.69348 41.5,3.5C 42.8333,3.5 44.1667,3.5 45.5,3.5C 45.9704,4.69348 46.9704,5.36015 48.5,5.5C 50.0296,5.36015 51.0296,4.69348 51.5,3.5C 52.5,3.5 53.5,3.5 54.5,3.5C 55.1522,4.72507 56.3189,5.39174 58,5.5C 59.6811,5.39174 60.8478,4.72507 61.5,3.5C 62.5,3.5 63.5,3.5 64.5,3.5C 65.1522,4.72507 66.3189,5.39174 68,5.5C 69.6811,5.39174 70.8478,4.72507 71.5,3.5C 72.5,3.5 73.5,3.5 74.5,3.5C 75.1522,4.72507 76.3189,5.39174 78,5.5C 79.6811,5.39174 80.8478,4.72507 81.5,3.5C 82.5,3.5 83.5,3.5 84.5,3.5C 84.9704,4.69348 85.9704,5.36015 87.5,5.5C 89.0296,5.36015 90.0296,4.69348 90.5,3.5C 91.8333,3.5 93.1667,3.5 94.5,3.5C 94.9704,4.69348 95.9704,5.36015 97.5,5.5C 99.0296,5.36015 100.03,4.69348 100.5,3.5C 101.833,3.5 103.167,3.5 104.5,3.5C 104.97,4.69348 105.97,5.36015 107.5,5.5C 109.03,5.36015 110.03,4.69348 110.5,3.5C 111.833,3.5 113.167,3.5 114.5,3.5C 114.97,4.69348 115.97,5.36015 117.5,5.5C 119.03,5.36015 120.03,4.69348 120.5,3.5C 121.833,3.5 123.167,3.5 124.5,3.5C 125.574,5.2155 127.241,6.2155 129.5,6.5C 130.298,6.04311 130.631,5.37644 130.5,4.5C 131.451,5.91866 131.784,7.58533 131.5,9.5C 130.275,10.1522 129.608,11.3189 129.5,13C 129.608,14.6811 130.275,15.8478 131.5,16.5C 131.5,17.5 131.5,18.5 131.5,19.5C 130.307,19.9704 129.64,20.9704 129.5,22.5C 129.64,24.0296 130.307,25.0296 131.5,25.5C 131.5,26.8333 131.5,28.1667 131.5,29.5C 130.307,29.9704 129.64,30.9704 129.5,32.5C 129.64,34.0296 130.307,35.0296 131.5,35.5C 131.5,36.8333 131.5,38.1667 131.5,39.5C 130.307,39.9704 129.64,40.9704 129.5,42.5C 129.64,44.0296 130.307,45.0296 131.5,45.5C 131.5,46.8333 131.5,48.1667 131.5,49.5C 130.307,49.9704 129.64,50.9704 129.5,52.5C 129.64,54.0296 130.307,55.0296 131.5,55.5C 131.5,56.8333 131.5,58.1667 131.5,59.5C 130.307,59.9704 129.64,60.9704 129.5,62.5C 129.64,64.0296 130.307,65.0296 131.5,65.5C 131.5,66.8333 131.5,68.1667 131.5,69.5C 130.307,69.9704 129.64,70.9704 129.5,72.5C 129.64,74.0296 130.307,75.0296 131.5,75.5C 131.5,76.8333 131.5,78.1667 131.5,79.5C 130.307,79.9704 129.64,80.9704 129.5,82.5C 129.64,84.0296 130.307,85.0296 131.5,85.5C 131.5,86.8333 131.5,88.1667 131.5,89.5C 130.307,89.9704 129.64,90.9704 129.5,92.5C 129.64,94.0296 130.307,95.0296 131.5,95.5C 131.5,96.8333 131.5,98.1667 131.5,99.5C 130.307,99.9704 129.64,100.97 129.5,102.5C 129.64,104.03 130.307,105.03 131.5,105.5C 131.5,106.5 131.5,107.5 131.5,108.5C 130.275,109.152 129.608,110.319 129.5,112C 129.608,113.681 130.275,114.848 131.5,115.5C 131.5,116.5 131.5,117.5 131.5,118.5C 130.275,119.152 129.608,120.319 129.5,122C 129.608,123.681 130.275,124.848 131.5,125.5C 131.5,126.5 131.5,127.5 131.5,128.5C 129.5,129.833 127.833,131.5 126.5,133.5C 125.167,133.5 123.833,133.5 122.5,133.5C 122.03,132.307 121.03,131.64 119.5,131.5C 117.97,131.64 116.97,132.307 116.5,133.5C 115.167,133.5 113.833,133.5 112.5,133.5C 112.03,132.307 111.03,131.64 109.5,131.5C 107.97,131.64 106.97,132.307 106.5,133.5C 105.5,133.5 104.5,133.5 103.5,133.5C 102.848,132.275 101.681,131.608 100,131.5C 98.3189,131.608 97.1522,132.275 96.5,133.5C 95.5,133.5 94.5,133.5 93.5,133.5C 92.8478,132.275 91.6811,131.608 90,131.5C 88.3189,131.608 87.1522,132.275 86.5,133.5C 85.5,133.5 84.5,133.5 83.5,133.5C 82.8478,132.275 81.6811,131.608 80,131.5C 78.3189,131.608 77.1522,132.275 76.5,133.5C 75.5,133.5 74.5,133.5 73.5,133.5C 72.8478,132.275 71.6811,131.608 70,131.5C 68.3189,131.608 67.1522,132.275 66.5,133.5C 65.5,133.5 64.5,133.5 63.5,133.5C 63.0296,132.307 62.0296,131.64 60.5,131.5C 58.9704,131.64 57.9704,132.307 57.5,133.5C 56.1667,133.5 54.8333,133.5 53.5,133.5C 53.0296,132.307 52.0296,131.64 50.5,131.5C 48.9704,131.64 47.9704,132.307 47.5,133.5C 46.1667,133.5 44.8333,133.5 43.5,133.5C 43.0296,132.307 42.0296,131.64 40.5,131.5C 38.9704,131.64 37.9704,132.307 37.5,133.5C 36.1667,133.5 34.8333,133.5 33.5,133.5C 33.0296,132.307 32.0296,131.64 30.5,131.5C 28.9704,131.64 27.9704,132.307 27.5,133.5C 26.1667,133.5 24.8333,133.5 23.5,133.5C 23.0296,132.307 22.0296,131.64 20.5,131.5C 18.9704,131.64 17.9704,132.307 17.5,133.5C 16.1667,133.5 14.8333,133.5 13.5,133.5C 13.0296,132.307 12.0296,131.64 10.5,131.5C 8.97041,131.64 7.97041,132.307 7.5,133.5C 5.58533,133.784 3.91866,133.451 2.5,132.5C 3.37644,132.631 4.04311,132.298 4.5,131.5C 4.2155,129.241 3.2155,127.574 1.5,126.5C 1.5,125.167 1.5,123.833 1.5,122.5C 2.69348,122.03 3.36015,121.03 3.5,119.5C 3.36015,117.97 2.69348,116.97 1.5,116.5C 1.5,115.167 1.5,113.833 1.5,112.5C 2.69348,112.03 3.36015,111.03 3.5,109.5C 3.36015,107.97 2.69348,106.97 1.5,106.5C 1.5,105.167 1.5,103.833 1.5,102.5C 2.69348,102.03 3.36015,101.03 3.5,99.5C 3.36015,97.9704 2.69348,96.9704 1.5,96.5C 1.5,95.1667 1.5,93.8333 1.5,92.5C 2.69348,92.0296 3.36015,91.0296 3.5,89.5C 3.36015,87.9704 2.69348,86.9704 1.5,86.5C 1.5,85.1667 1.5,83.8333 1.5,82.5C 2.69348,82.0296 3.36015,81.0296 3.5,79.5C 3.36015,77.9704 2.69348,76.9704 1.5,76.5C 1.5,75.1667 1.5,73.8333 1.5,72.5C 2.69348,72.0296 3.36015,71.0296 3.5,69.5C 3.36015,67.9704 2.69348,66.9704 1.5,66.5C 1.5,65.1667 1.5,63.8333 1.5,62.5C 2.69348,62.0296 3.36015,61.0296 3.5,59.5C 3.36015,57.9704 2.69348,56.9704 1.5,56.5C 1.5,55.5 1.5,54.5 1.5,53.5C 2.72507,52.8478 3.39174,51.6811 3.5,50C 3.39174,48.3189 2.72507,47.1522 1.5,46.5C 1.5,45.5 1.5,44.5 1.5,43.5C 2.72507,42.8478 3.39174,41.6811 3.5,40C 3.39174,38.3189 2.72507,37.1522 1.5,36.5C 1.5,35.5 1.5,34.5 1.5,33.5C 2.72507,32.8478 3.39174,31.6811 3.5,30C 3.39174,28.3189 2.72507,27.1522 1.5,26.5C 1.5,25.5 1.5,24.5 1.5,23.5C 2.72507,22.8478 3.39174,21.6811 3.5,20C 3.39174,18.3189 2.72507,17.1522 1.5,16.5C 1.5,15.5 1.5,14.5 1.5,13.5C 2.69348,13.0296 3.36015,12.0296 3.5,10.5C 3.36015,8.97041 2.69348,7.97041 1.5,7.5C 1.83333,5.16667 3.16667,3.83333 5.5,3.5 Z"/></g>
<g><path style="opacity:1" fill="#8cade1" d="M 5.5,3.5 C 7.5,3.5 9.5,3.5 11.5,3.5C 11.0296,4.69348 10.0296,5.36015 8.5,5.5C 6.97041,5.36015 5.97041,4.69348 5.5,3.5 Z"/></g>
<g><path style="opacity:1" fill="#8cade1" d="M 15.5,3.5 C 17.5,3.5 19.5,3.5 21.5,3.5C 21.0296,4.69348 20.0296,5.36015 18.5,5.5C 16.9704,5.36015 15.9704,4.69348 15.5,3.5 Z"/></g>
<g><path style="opacity:1" fill="#8aaadd" d="M 25.5,3.5 C 27.5,3.5 29.5,3.5 31.5,3.5C 31.0296,4.69348 30.0296,5.36015 28.5,5.5C 26.9704,5.36015 25.9704,4.69348 25.5,3.5 Z"/></g>
<g><path style="opacity:1" fill="#8aaadd" d="M 35.5,3.5 C 37.5,3.5 39.5,3.5 41.5,3.5C 41.0296,4.69348 40.0296,5.36015 38.5,5.5C 36.9704,5.36015 35.9704,4.69348 35.5,3.5 Z"/></g>
<g><path style="opacity:1" fill="#8aaadd" d="M 45.5,3.5 C 47.5,3.5 49.5,3.5 51.5,3.5C 51.0296,4.69348 50.0296,5.36015 48.5,5.5C 46.9704,5.36015 45.9704,4.69348 45.5,3.5 Z"/></g>
<g><path style="opacity:1" fill="#86a4d4" d="M 54.5,3.5 C 56.8333,3.5 59.1667,3.5 61.5,3.5C 60.8478,4.72507 59.6811,5.39174 58,5.5C 56.3189,5.39174 55.1522,4.72507 54.5,3.5 Z"/></g>
<g><path style="opacity:1" fill="#86a4d4" d="M 64.5,3.5 C 66.8333,3.5 69.1667,3.5 71.5,3.5C 70.8478,4.72507 69.6811,5.39174 68,5.5C 66.3189,5.39174 65.1522,4.72507 64.5,3.5 Z"/></g>
<g><path style="opacity:1" fill="#86a4d4" d="M 74.5,3.5 C 76.8333,3.5 79.1667,3.5 81.5,3.5C 80.8478,4.72507 79.6811,5.39174 78,5.5C 76.3189,5.39174 75.1522,4.72507 74.5,3.5 Z"/></g>
<g><path style="opacity:1" fill="#8aaadd" d="M 84.5,3.5 C 86.5,3.5 88.5,3.5 90.5,3.5C 90.0296,4.69348 89.0296,5.36015 87.5,5.5C 85.9704,5.36015 84.9704,4.69348 84.5,3.5 Z"/></g>
<g><path style="opacity:1" fill="#8aaadd" d="M 94.5,3.5 C 96.5,3.5 98.5,3.5 100.5,3.5C 100.03,4.69348 99.0296,5.36015 97.5,5.5C 95.9704,5.36015 94.9704,4.69348 94.5,3.5 Z"/></g>
<g><path style="opacity:1" fill="#8aaadd" d="M 104.5,3.5 C 106.5,3.5 108.5,3.5 110.5,3.5C 110.03,4.69348 109.03,5.36015 107.5,5.5C 105.97,5.36015 104.97,4.69348 104.5,3.5 Z"/></g>
<g><path style="opacity:1" fill="#8aaadd" d="M 114.5,3.5 C 116.5,3.5 118.5,3.5 120.5,3.5C 120.03,4.69348 119.03,5.36015 117.5,5.5C 115.97,5.36015 114.97,4.69348 114.5,3.5 Z"/></g>
<g><path style="opacity:1" fill="#88a7d9" d="M 124.5,3.5 C 126.621,3.32526 128.621,3.65859 130.5,4.5C 130.631,5.37644 130.298,6.04311 129.5,6.5C 127.241,6.2155 125.574,5.2155 124.5,3.5 Z"/></g>
<g><path style="opacity:1" fill="#8aaadd" d="M 1.5,7.5 C 2.69348,7.97041 3.36015,8.97041 3.5,10.5C 3.36015,12.0296 2.69348,13.0296 1.5,13.5C 1.5,11.5 1.5,9.5 1.5,7.5 Z"/></g>
<g><path style="opacity:1" fill="#86a4d4" d="M 131.5,9.5 C 131.5,11.8333 131.5,14.1667 131.5,16.5C 130.275,15.8478 129.608,14.6811 129.5,13C 129.608,11.3189 130.275,10.1522 131.5,9.5 Z"/></g>
<g><path style="opacity:1" fill="#608ad1" d="M 57.5,15.5 C 89.8057,13.8858 110.306,28.5524 119,59.5C 121.504,89.9803 108.338,110.147 79.5,120C 47.5007,124.751 26.0007,111.917 15,81.5C 10.3897,47.2974 24.5564,25.2974 57.5,15.5 Z"/></g>
<g><path style="opacity:1" fill="#86a4d4" d="M 1.5,16.5 C 2.72507,17.1522 3.39174,18.3189 3.5,20C 3.39174,21.6811 2.72507,22.8478 1.5,23.5C 1.5,21.1667 1.5,18.8333 1.5,16.5 Z"/></g>
<g><path style="opacity:1" fill="#8aaadd" d="M 131.5,19.5 C 131.5,21.5 131.5,23.5 131.5,25.5C 130.307,25.0296 129.64,24.0296 129.5,22.5C 129.64,20.9704 130.307,19.9704 131.5,19.5 Z"/></g>
<g><path style="opacity:1" fill="#86a4d4" d="M 1.5,26.5 C 2.72507,27.1522 3.39174,28.3189 3.5,30C 3.39174,31.6811 2.72507,32.8478 1.5,33.5C 1.5,31.1667 1.5,28.8333 1.5,26.5 Z"/></g>
<g><path style="opacity:1" fill="#8aaadd" d="M 131.5,29.5 C 131.5,31.5 131.5,33.5 131.5,35.5C 130.307,35.0296 129.64,34.0296 129.5,32.5C 129.64,30.9704 130.307,29.9704 131.5,29.5 Z"/></g>
<g><path style="opacity:1" fill="#86a4d4" d="M 1.5,36.5 C 2.72507,37.1522 3.39174,38.3189 3.5,40C 3.39174,41.6811 2.72507,42.8478 1.5,43.5C 1.5,41.1667 1.5,38.8333 1.5,36.5 Z"/></g>
<g><path style="opacity:1" fill="#8aaadd" d="M 131.5,39.5 C 131.5,41.5 131.5,43.5 131.5,45.5C 130.307,45.0296 129.64,44.0296 129.5,42.5C 129.64,40.9704 130.307,39.9704 131.5,39.5 Z"/></g>
<g><path style="opacity:1" fill="#86a4d4" d="M 1.5,46.5 C 2.72507,47.1522 3.39174,48.3189 3.5,50C 3.39174,51.6811 2.72507,52.8478 1.5,53.5C 1.5,51.1667 1.5,48.8333 1.5,46.5 Z"/></g>
<g><path style="opacity:1" fill="#8cade1" d="M 131.5,49.5 C 131.5,51.5 131.5,53.5 131.5,55.5C 130.307,55.0296 129.64,54.0296 129.5,52.5C 129.64,50.9704 130.307,49.9704 131.5,49.5 Z"/></g>
<g><path style="opacity:1" fill="#fafbfd" d="M 59.5,50.5 C 63.8461,50.3343 68.1794,50.501 72.5,51C 74.1667,52.6667 75.8333,54.3333 77.5,56C 81.4886,55.8928 84.9886,57.0595 88,59.5C 88.6667,67.1667 88.6667,74.8333 88,82.5C 87.5348,83.9308 86.7014,85.0975 85.5,86C 73.1667,86.6667 60.8333,86.6667 48.5,86C 47.0692,85.5348 45.9025,84.7014 45,83.5C 44.3333,75.8333 44.3333,68.1667 45,60.5C 45.4652,59.0692 46.2986,57.9025 47.5,57C 53.3963,57.9773 57.3963,55.8106 59.5,50.5 Z"/></g>
<g><path style="opacity:1" fill="#618bd2" d="M 62.5,54.5 C 68.1749,53.244 72.5082,55.0774 75.5,60C 78.4816,60.498 81.4816,60.6646 84.5,60.5C 84.6663,67.5079 84.4996,74.5079 84,81.5C 72.3333,82.8333 60.6667,82.8333 49,81.5C 48.5004,74.5079 48.3337,67.5079 48.5,60.5C 54.7264,61.6856 59.3931,59.6856 62.5,54.5 Z"/></g>
<g><path style="opacity:1" fill="#8aaadd" d="M 1.5,56.5 C 2.69348,56.9704 3.36015,57.9704 3.5,59.5C 3.36015,61.0296 2.69348,62.0296 1.5,62.5C 1.5,60.5 1.5,58.5 1.5,56.5 Z"/></g>
<g><path style="opacity:1" fill="#8cade1" d="M 131.5,59.5 C 131.5,61.5 131.5,63.5 131.5,65.5C 130.307,65.0296 129.64,64.0296 129.5,62.5C 129.64,60.9704 130.307,59.9704 131.5,59.5 Z"/></g>
<g><path style="opacity:1" fill="#f5f7fc" d="M 63.5,62.5 C 71.6779,61.8424 75.1779,65.5091 74,73.5C 71.7742,77.8608 68.2742,79.3608 63.5,78C 59.1392,75.7742 57.6392,72.2742 59,67.5C 60.025,65.313 61.525,63.6464 63.5,62.5 Z"/></g>
<g><path style="opacity:1" fill="#8aaadd" d="M 1.5,66.5 C 2.69348,66.9704 3.36015,67.9704 3.5,69.5C 3.36015,71.0296 2.69348,72.0296 1.5,72.5C 1.5,70.5 1.5,68.5 1.5,66.5 Z"/></g>
<g><path style="opacity:1" fill="#6790d4" d="M 64.5,66.5 C 70.4877,66.664 71.821,69.164 68.5,74C 62.4034,74.1475 61.0701,71.6475 64.5,66.5 Z"/></g>
<g><path style="opacity:1" fill="#8cade1" d="M 131.5,69.5 C 131.5,71.5 131.5,73.5 131.5,75.5C 130.307,75.0296 129.64,74.0296 129.5,72.5C 129.64,70.9704 130.307,69.9704 131.5,69.5 Z"/></g>
<g><path style="opacity:1" fill="#8aaadd" d="M 1.5,76.5 C 2.69348,76.9704 3.36015,77.9704 3.5,79.5C 3.36015,81.0296 2.69348,82.0296 1.5,82.5C 1.5,80.5 1.5,78.5 1.5,76.5 Z"/></g>
<g><path style="opacity:1" fill="#8aaadd" d="M 131.5,79.5 C 131.5,81.5 131.5,83.5 131.5,85.5C 130.307,85.0296 129.64,84.0296 129.5,82.5C 129.64,80.9704 130.307,79.9704 131.5,79.5 Z"/></g>
<g><path style="opacity:1" fill="#8cade1" d="M 1.5,86.5 C 2.69348,86.9704 3.36015,87.9704 3.5,89.5C 3.36015,91.0296 2.69348,92.0296 1.5,92.5C 1.5,90.5 1.5,88.5 1.5,86.5 Z"/></g>
<g><path style="opacity:1" fill="#8aaadd" d="M 131.5,89.5 C 131.5,91.5 131.5,93.5 131.5,95.5C 130.307,95.0296 129.64,94.0296 129.5,92.5C 129.64,90.9704 130.307,89.9704 131.5,89.5 Z"/></g>
<g><path style="opacity:1" fill="#8cade1" d="M 1.5,96.5 C 2.69348,96.9704 3.36015,97.9704 3.5,99.5C 3.36015,101.03 2.69348,102.03 1.5,102.5C 1.5,100.5 1.5,98.5 1.5,96.5 Z"/></g>
<g><path style="opacity:1" fill="#8aaadd" d="M 131.5,99.5 C 131.5,101.5 131.5,103.5 131.5,105.5C 130.307,105.03 129.64,104.03 129.5,102.5C 129.64,100.97 130.307,99.9704 131.5,99.5 Z"/></g>
<g><path style="opacity:1" fill="#8cade1" d="M 1.5,106.5 C 2.69348,106.97 3.36015,107.97 3.5,109.5C 3.36015,111.03 2.69348,112.03 1.5,112.5C 1.5,110.5 1.5,108.5 1.5,106.5 Z"/></g>
<g><path style="opacity:1" fill="#86a4d4" d="M 131.5,108.5 C 131.5,110.833 131.5,113.167 131.5,115.5C 130.275,114.848 129.608,113.681 129.5,112C 129.608,110.319 130.275,109.152 131.5,108.5 Z"/></g>
<g><path style="opacity:1" fill="#8aaadd" d="M 1.5,116.5 C 2.69348,116.97 3.36015,117.97 3.5,119.5C 3.36015,121.03 2.69348,122.03 1.5,122.5C 1.5,120.5 1.5,118.5 1.5,116.5 Z"/></g>
<g><path style="opacity:1" fill="#86a4d4" d="M 131.5,118.5 C 131.5,120.833 131.5,123.167 131.5,125.5C 130.275,124.848 129.608,123.681 129.5,122C 129.608,120.319 130.275,119.152 131.5,118.5 Z"/></g>
<g><path style="opacity:1" fill="#87a6d6" d="M 1.5,126.5 C 3.2155,127.574 4.2155,129.241 4.5,131.5C 4.04311,132.298 3.37644,132.631 2.5,132.5C 1.65859,130.621 1.32526,128.621 1.5,126.5 Z"/></g>
<g><path style="opacity:1" fill="#8cade1" d="M 13.5,133.5 C 11.5,133.5 9.5,133.5 7.5,133.5C 7.97041,132.307 8.97041,131.64 10.5,131.5C 12.0296,131.64 13.0296,132.307 13.5,133.5 Z"/></g>
<g><path style="opacity:1" fill="#8cade1" d="M 23.5,133.5 C 21.5,133.5 19.5,133.5 17.5,133.5C 17.9704,132.307 18.9704,131.64 20.5,131.5C 22.0296,131.64 23.0296,132.307 23.5,133.5 Z"/></g>
<g><path style="opacity:1" fill="#8cade1" d="M 33.5,133.5 C 31.5,133.5 29.5,133.5 27.5,133.5C 27.9704,132.307 28.9704,131.64 30.5,131.5C 32.0296,131.64 33.0296,132.307 33.5,133.5 Z"/></g>
<g><path style="opacity:1" fill="#8aaadd" d="M 43.5,133.5 C 41.5,133.5 39.5,133.5 37.5,133.5C 37.9704,132.307 38.9704,131.64 40.5,131.5C 42.0296,131.64 43.0296,132.307 43.5,133.5 Z"/></g>
<g><path style="opacity:1" fill="#8aaadd" d="M 53.5,133.5 C 51.5,133.5 49.5,133.5 47.5,133.5C 47.9704,132.307 48.9704,131.64 50.5,131.5C 52.0296,131.64 53.0296,132.307 53.5,133.5 Z"/></g>
<g><path style="opacity:1" fill="#8aaadd" d="M 63.5,133.5 C 61.5,133.5 59.5,133.5 57.5,133.5C 57.9704,132.307 58.9704,131.64 60.5,131.5C 62.0296,131.64 63.0296,132.307 63.5,133.5 Z"/></g>
<g><path style="opacity:1" fill="#86a4d4" d="M 73.5,133.5 C 71.1667,133.5 68.8333,133.5 66.5,133.5C 67.1522,132.275 68.3189,131.608 70,131.5C 71.6811,131.608 72.8478,132.275 73.5,133.5 Z"/></g>
<g><path style="opacity:1" fill="#86a4d4" d="M 83.5,133.5 C 81.1667,133.5 78.8333,133.5 76.5,133.5C 77.1522,132.275 78.3189,131.608 80,131.5C 81.6811,131.608 82.8478,132.275 83.5,133.5 Z"/></g>
<g><path style="opacity:1" fill="#86a4d4" d="M 93.5,133.5 C 91.1667,133.5 88.8333,133.5 86.5,133.5C 87.1522,132.275 88.3189,131.608 90,131.5C 91.6811,131.608 92.8478,132.275 93.5,133.5 Z"/></g>
<g><path style="opacity:1" fill="#86a4d4" d="M 103.5,133.5 C 101.167,133.5 98.8333,133.5 96.5,133.5C 97.1522,132.275 98.3189,131.608 100,131.5C 101.681,131.608 102.848,132.275 103.5,133.5 Z"/></g>
<g><path style="opacity:1" fill="#8aaadd" d="M 112.5,133.5 C 110.5,133.5 108.5,133.5 106.5,133.5C 106.97,132.307 107.97,131.64 109.5,131.5C 111.03,131.64 112.03,132.307 112.5,133.5 Z"/></g>
<g><path style="opacity:1" fill="#8aaadd" d="M 122.5,133.5 C 120.5,133.5 118.5,133.5 116.5,133.5C 116.97,132.307 117.97,131.64 119.5,131.5C 121.03,131.64 122.03,132.307 122.5,133.5 Z"/></g>
<g><path style="opacity:1" fill="#84a2d1" d="M 131.5,128.5 C 131.5,131.833 129.833,133.5 126.5,133.5C 127.833,131.5 129.5,129.833 131.5,128.5 Z"/></g>
</svg>
