<?xml version="1.0" encoding="UTF-8"?>
<!DOCTYPE svg PUBLIC "-//W3C//DTD SVG 1.1//EN" "http://www.w3.org/Graphics/SVG/1.1/DTD/svg11.dtd">
<svg xmlns="http://www.w3.org/2000/svg" version="1.1" width="512px" height="512px" style="shape-rendering:geometricPrecision; text-rendering:geometricPrecision; image-rendering:optimizeQuality; fill-rule:evenodd; clip-rule:evenodd" xmlns:xlink="http://www.w3.org/1999/xlink">
<g><path style="opacity:0.979" fill="#fef2fd" d="M 467.5,83.5 C 463.833,83.5 460.167,83.5 456.5,83.5C 454.833,83.5 453.167,83.5 451.5,83.5C 444.825,83.3337 438.158,83.5004 431.5,84C 428.967,87.5277 426.134,90.6944 423,93.5C 422.228,93.3552 421.561,93.0219 421,92.5C 420.433,89.8323 419.933,87.1656 419.5,84.5C 414.758,84.8636 410.592,83.5302 407,80.5C 405.652,73.2392 405.152,65.9059 405.5,58.5C 405.815,54.6286 405.482,50.9619 404.5,47.5C 404.139,41.4067 404.639,35.4067 406,29.5C 407.214,27.9512 408.714,26.7845 410.5,26C 432.5,25.5 454.5,25 476.5,24.5C 484.599,24.3635 492.599,24.8635 500.5,26C 502.487,27.3189 503.654,29.1523 504,31.5C 504.667,47.1667 504.667,62.8333 504,78.5C 502.833,80.3333 501.333,81.8333 499.5,83C 488.839,83.4998 478.172,83.6665 467.5,83.5 Z"/></g>
<g><path style="opacity:1" fill="#f5de11" d="M 430.5,36.5 C 447.503,36.3334 464.503,36.5001 481.5,37C 482,37.5 482.5,38 483,38.5C 483.667,49.8333 483.667,61.1667 483,72.5C 482.167,73.3333 481.333,74.1667 480.5,75C 463.789,75.8185 447.122,75.6518 430.5,74.5C 429.808,73.9747 429.308,73.3081 429,72.5C 428.333,61.5 428.333,50.5 429,39.5C 429.513,38.4734 430.013,37.4734 430.5,36.5 Z"/></g>
<g><path style="opacity:1" fill="#6a2572" d="M 476.5,42.5 C 477.314,40.7274 478.648,40.2274 480.5,41C 479.255,41.7914 477.922,42.2914 476.5,42.5 Z"/></g>
<g><path style="opacity:1" fill="#672074" d="M 476.5,42.5 C 475.341,44.2503 473.674,45.2503 471.5,45.5C 472.659,43.7497 474.326,42.7497 476.5,42.5 Z"/></g>
<g><path style="opacity:0.96" fill="#078541" d="M 404.5,47.5 C 405.482,50.9619 405.815,54.6286 405.5,58.5C 397.16,58.6664 388.827,58.4997 380.5,58C 378.36,57.0267 376.693,55.5267 375.5,53.5C 367.343,52.1796 359.343,52.1796 351.5,53.5C 348.5,53.5 345.5,53.5 342.5,53.5C 344.508,50.1574 347.508,48.3241 351.5,48C 369.164,47.5001 386.83,47.3334 404.5,47.5 Z"/></g>
<g><path style="opacity:1" fill="#682273" d="M 471.5,45.5 C 470.341,47.2503 468.674,48.2503 466.5,48.5C 467.659,46.7497 469.326,45.7497 471.5,45.5 Z"/></g>
<g><path style="opacity:1" fill="#0de3de" d="M 351.5,53.5 C 359.343,52.1796 367.343,52.1796 375.5,53.5C 376.693,55.5267 378.36,57.0267 380.5,58C 388.827,58.4997 397.16,58.6664 405.5,58.5C 405.152,65.9059 405.652,73.2392 407,80.5C 410.592,83.5302 414.758,84.8636 419.5,84.5C 419.933,87.1656 420.433,89.8323 421,92.5C 421.561,93.0219 422.228,93.3552 423,93.5C 426.134,90.6944 428.967,87.5277 431.5,84C 438.158,83.5004 444.825,83.3337 451.5,83.5C 451.169,105.673 451.503,127.673 452.5,149.5C 452.667,184.502 452.5,219.502 452,254.5C 450.362,256.734 448.195,258.067 445.5,258.5C 445.667,245.829 445.5,233.162 445,220.5C 442.593,216.834 439.093,215.167 434.5,215.5C 434.401,212.395 433.401,209.728 431.5,207.5C 429.34,209.831 427.34,212.331 425.5,215C 414.657,215.633 403.824,215.466 393,214.5C 389.41,214.472 385.91,214.972 382.5,216C 380.513,217.319 379.346,219.152 379,221.5C 378.831,235.339 378.331,249.006 377.5,262.5C 377.5,261.5 377.5,260.5 377.5,259.5C 368.827,259.666 360.16,259.5 351.5,259C 349.667,257.833 348.167,256.333 347,254.5C 346.25,209.502 345.75,164.502 345.5,119.5C 347.148,120.81 348.814,122.143 350.5,123.5C 352.015,121.453 352.849,119.119 353,116.5C 355.802,115.67 358.635,114.837 361.5,114C 362.893,112.829 363.727,111.329 364,109.5C 364.695,92.4817 364.361,75.4817 363,58.5C 360.468,54.0928 356.635,52.4262 351.5,53.5 Z"/></g>
<g><path style="opacity:0.983" fill="#fef2fe" d="M 342.5,53.5 C 345.5,53.5 348.5,53.5 351.5,53.5C 356.635,52.4262 360.468,54.0928 363,58.5C 364.361,75.4817 364.695,92.4817 364,109.5C 363.727,111.329 362.893,112.829 361.5,114C 358.635,114.837 355.802,115.67 353,116.5C 352.849,119.119 352.015,121.453 350.5,123.5C 348.814,122.143 347.148,120.81 345.5,119.5C 344.963,116.259 343.296,115.259 340.5,116.5C 329.475,116.234 318.475,116.568 307.5,117.5C 301.346,117.508 297.846,114.508 297,108.5C 296.333,91.8333 296.333,75.1667 297,58.5C 299.273,55.196 302.439,53.696 306.5,54C 318.495,53.5001 330.495,53.3335 342.5,53.5 Z"/></g>
<g><path style="opacity:1" fill="#6d2870" d="M 466.5,48.5 C 465.426,49.8846 464.093,51.0513 462.5,52C 466.77,55.7615 470.437,59.9281 473.5,64.5C 469.108,60.1028 464.442,56.1028 459.5,52.5C 461.336,50.412 463.669,49.0787 466.5,48.5 Z"/></g>
<g><path style="opacity:1" fill="#722f6c" d="M 459.5,52.5 C 458.504,53.6651 457.171,54.3318 455.5,54.5C 453.49,53.6379 451.49,53.1379 449.5,53C 445.333,57.8333 441.167,62.6667 437,67.5C 435.887,69.3293 434.387,70.1626 432.5,70C 438.02,63.9809 443.353,57.8143 448.5,51.5C 444.173,48.0013 439.506,45.0013 434.5,42.5C 433.167,41.8333 433.167,41.1667 434.5,40.5C 440.702,44.532 447.035,48.3653 453.5,52C 455.473,52.4955 457.473,52.6621 459.5,52.5 Z"/></g>
<g><path style="opacity:1" fill="#ff9618" d="M 329.5,61.5 C 342.463,60.6304 348.63,66.6304 348,79.5C 347.3,83.0662 345.467,85.8995 342.5,88C 337.676,89.8187 332.676,90.9854 327.5,91.5C 324,97.1667 320.5,102.833 317,108.5C 315.513,107.845 314.347,106.845 313.5,105.5C 316.969,99.5334 320.636,93.7001 324.5,88C 318.13,82.0807 316.963,75.2474 321,67.5C 323.322,64.6047 326.155,62.6047 329.5,61.5 Z"/></g>
<g><path style="opacity:1" fill="#fff1fb" d="M 330.5,65.5 C 342.698,66.5172 346.198,72.5172 341,83.5C 334.401,87.9139 328.734,86.9139 324,80.5C 322.387,73.7372 324.553,68.7372 330.5,65.5 Z"/></g>
<g><path style="opacity:1" fill="#7d3b68" d="M 473.5,64.5 C 475.584,66.0767 477.584,67.91 479.5,70C 476.474,69.4813 474.474,67.648 473.5,64.5 Z"/></g>
<g><path style="opacity:0.992" fill="#560c7e" d="M 456.5,83.5 C 460.167,83.5 463.833,83.5 467.5,83.5C 470.164,94.8676 470.164,106.201 467.5,117.5C 467.477,119.067 467.977,120.4 469,121.5C 469.64,134.537 469.14,147.537 467.5,160.5C 468.577,191.494 468.744,222.494 468,253.5C 464.251,261.913 457.751,264.913 448.5,262.5C 452.479,260.685 455.312,257.685 457,253.5C 456.976,217.503 456.81,181.503 456.5,145.5C 456.5,124.833 456.5,104.167 456.5,83.5 Z"/></g>
<g><path style="opacity:1" fill="#0f8244" d="M 456.5,145.5 C 456.81,181.503 456.976,217.503 457,253.5C 455.312,257.685 452.479,260.685 448.5,262.5C 447.5,262.5 446.5,262.5 445.5,262.5C 445.5,261.167 445.5,259.833 445.5,258.5C 448.195,258.067 450.362,256.734 452,254.5C 452.5,219.502 452.667,184.502 452.5,149.5C 452.5,127.833 452.5,106.167 452.5,84.5C 453.5,84.5 454.5,84.5 455.5,84.5C 455.17,105.007 455.503,125.34 456.5,145.5 Z"/></g>
<g><path style="opacity:1" fill="#59167f" d="M 426.5,127.5 C 426.809,131.343 425.309,132.676 422,131.5C 421.501,127.848 421.335,124.182 421.5,120.5C 422.208,116.215 422.708,111.882 423,107.5C 424.587,106.273 425.921,106.606 427,108.5C 426.987,114.818 426.821,121.151 426.5,127.5 Z"/></g>
<g><path style="opacity:0.943" fill="#068744" d="M 345.5,119.5 C 345.75,164.502 346.25,209.502 347,254.5C 348.167,256.333 349.667,257.833 351.5,259C 360.16,259.5 368.827,259.666 377.5,259.5C 377.5,260.5 377.5,261.5 377.5,262.5C 377.5,262.833 377.5,263.167 377.5,263.5C 368.827,263.666 360.16,263.5 351.5,263C 347.814,261.911 344.981,259.745 343,256.5C 341.79,209.863 340.956,163.197 340.5,116.5C 343.296,115.259 344.963,116.259 345.5,119.5 Z"/></g>
<g><path style="opacity:1" fill="#1d9274" d="M 451.5,83.5 C 453.167,83.5 454.833,83.5 456.5,83.5C 456.5,104.167 456.5,124.833 456.5,145.5C 455.503,125.34 455.17,105.007 455.5,84.5C 454.5,84.5 453.5,84.5 452.5,84.5C 452.5,106.167 452.5,127.833 452.5,149.5C 451.503,127.673 451.169,105.673 451.5,83.5 Z"/></g>
<g><path style="opacity:1" fill="#ead11e" d="M 421.5,120.5 C 421.335,124.182 421.501,127.848 422,131.5C 425.309,132.676 426.809,131.343 426.5,127.5C 428.067,139.935 422.4,145.602 409.5,144.5C 404.453,144.663 399.453,144.329 394.5,143.5C 384.891,141.727 381.058,136.06 383,126.5C 386.061,118.801 391.727,115.801 400,117.5C 407.402,117.376 414.569,118.376 421.5,120.5 Z"/></g>
<g><path style="opacity:1" fill="#590e7e" d="M 390.5,119.5 C 396.176,119.334 401.843,119.501 407.5,120C 417.204,122.574 420.037,128.407 416,137.5C 413.471,140.348 410.305,142.015 406.5,142.5C 401.887,141.721 397.22,141.221 392.5,141C 384.121,136.909 382.288,130.742 387,122.5C 388.518,121.837 389.685,120.837 390.5,119.5 Z"/></g>
<g><path style="opacity:0.996" fill="#570d7e" d="M 224.5,155.5 C 222.956,159.522 223.789,163.189 227,166.5C 227.497,168.81 227.663,171.143 227.5,173.5C 226.883,173.611 226.383,173.944 226,174.5C 220.677,172.46 215.177,170.96 209.5,170C 209.105,167.14 207.772,164.973 205.5,163.5C 206.391,162.739 207.058,161.739 207.5,160.5C 210.421,159.457 212.921,157.79 215,155.5C 216.803,150.318 217.636,144.984 217.5,139.5C 215.473,139.662 213.473,139.495 211.5,139C 210.407,136.557 209.407,134.057 208.5,131.5C 207.311,130.571 205.978,130.238 204.5,130.5C 204.705,134.758 202.872,137.758 199,139.5C 196.667,136.833 194.333,136.833 192,139.5C 190.973,143.18 191.806,146.347 194.5,149C 195.449,149.617 196.282,149.451 197,148.5C 197.167,149.167 197.333,149.833 197.5,150.5C 195.8,154.557 194.133,158.557 192.5,162.5C 189.404,163.76 187.071,165.926 185.5,169C 171.802,171.358 159.135,176.191 147.5,183.5C 145.908,180.034 145.242,176.367 145.5,172.5C 147.392,164.442 152.058,158.609 159.5,155C 165.254,153.584 170.921,151.917 176.5,150C 179.191,144.266 181.691,138.432 184,132.5C 189.599,125.745 196.599,123.411 205,125.5C 209.076,121.966 213.409,121.633 218,124.5C 219.217,127.994 220.717,131.327 222.5,134.5C 224.5,133.5 226.5,132.5 228.5,131.5C 233.255,134.527 234.755,138.861 233,144.5C 231.333,147.5 229,149.833 226,151.5C 225.209,152.745 224.709,154.078 224.5,155.5 Z"/></g>
<g><path style="opacity:1" fill="#f37bd8" d="M 205.5,163.5 C 201.176,163.073 196.842,162.739 192.5,162.5C 194.133,158.557 195.8,154.557 197.5,150.5C 197.333,149.833 197.167,149.167 197,148.5C 196.282,149.451 195.449,149.617 194.5,149C 191.806,146.347 190.973,143.18 192,139.5C 194.333,136.833 196.667,136.833 199,139.5C 202.872,137.758 204.705,134.758 204.5,130.5C 205.978,130.238 207.311,130.571 208.5,131.5C 209.407,134.057 210.407,136.557 211.5,139C 213.473,139.495 215.473,139.662 217.5,139.5C 217.636,144.984 216.803,150.318 215,155.5C 212.921,157.79 210.421,159.457 207.5,160.5C 207.058,161.739 206.391,162.739 205.5,163.5 Z"/></g>
<g><path style="opacity:1" fill="#f5e5f7" d="M 395.5,133.5 C 397.823,134.058 400.157,134.725 402.5,135.5C 398.794,138.663 396.461,137.996 395.5,133.5 Z"/></g>
<g><path style="opacity:0.946" fill="#fb80dd" d="M 328.5,181.5 C 322.21,179.68 316.21,177.346 310.5,174.5C 310.908,165.387 312.074,156.387 314,147.5C 318.561,140.97 324.728,137.804 332.5,138C 333.451,138.718 333.617,139.551 333,140.5C 331.59,141.787 330.09,142.954 328.5,144C 331.167,144.333 333.833,144.667 336.5,145C 337.412,147.488 336.412,149.155 333.5,150C 335.996,151.08 338.33,152.414 340.5,154C 339.421,156.043 337.754,157.376 335.5,158C 341.069,161.7 340.402,164.033 333.5,165C 335.459,169.927 334.125,173.76 329.5,176.5C 328.548,178.045 328.215,179.712 328.5,181.5 Z"/></g>
<g><path style="opacity:1" fill="#5a127d" d="M 394.5,143.5 C 399.453,144.329 404.453,144.663 409.5,144.5C 409.5,146.167 409.5,147.833 409.5,149.5C 404.446,148.356 399.446,148.356 394.5,149.5C 394.5,147.5 394.5,145.5 394.5,143.5 Z"/></g>
<g><path style="opacity:1" fill="#f3dc13" d="M 409.5,149.5 C 411.336,151.588 413.669,152.921 416.5,153.5C 418.5,155.833 420.5,158.167 422.5,160.5C 431.059,176.238 428.059,189.405 413.5,200C 396.014,206.838 382.848,202.004 374,185.5C 372.607,180.905 372.274,176.239 373,171.5C 374.311,166.047 376.477,161.047 379.5,156.5C 382.135,155.189 384.469,153.522 386.5,151.5C 389.112,150.629 391.779,149.963 394.5,149.5C 399.446,148.356 404.446,148.356 409.5,149.5 Z"/></g>
<g><path style="opacity:1" fill="#561781" d="M 386.5,151.5 C 384.469,153.522 382.135,155.189 379.5,156.5C 371.143,158.503 365.477,163.503 362.5,171.5C 360.883,170.962 359.216,170.629 357.5,170.5C 362.755,157.376 372.422,151.042 386.5,151.5 Z"/></g>
<g><path style="opacity:1" fill="#6d1b8b" d="M 324.5,146.5 C 326.167,146.5 327.833,146.5 329.5,146.5C 328.22,153.06 327.387,159.727 327,166.5C 326.704,163.294 326.204,160.128 325.5,157C 327.661,154.523 328.495,151.689 328,148.5C 325.709,147.689 323.875,148.523 322.5,151C 321.241,151.982 319.908,152.315 318.5,152C 320.996,150.669 322.996,148.836 324.5,146.5 Z"/></g>
<g><path style="opacity:1" fill="#561981" d="M 416.5,153.5 C 429.603,155.935 437.937,163.602 441.5,176.5C 439.833,176.5 438.167,176.5 436.5,176.5C 434.323,168.99 429.657,163.656 422.5,160.5C 420.5,158.167 418.5,155.833 416.5,153.5 Z"/></g>
<g><path style="opacity:0.984" fill="#fdc600" d="M 224.5,155.5 C 245.022,160.428 263.355,169.594 279.5,183C 284.669,187.337 289.669,191.837 294.5,196.5C 289.731,205.17 287.564,214.503 288,224.5C 273.737,209.233 258.571,195.066 242.5,182C 237.73,178.619 232.73,175.786 227.5,173.5C 227.663,171.143 227.497,168.81 227,166.5C 223.789,163.189 222.956,159.522 224.5,155.5 Z"/></g>
<g><path style="opacity:0.999" fill="#098540" d="M 192.5,162.5 C 196.842,162.739 201.176,163.073 205.5,163.5C 207.772,164.973 209.105,167.14 209.5,170C 215.177,170.96 220.677,172.46 226,174.5C 226.383,173.944 226.883,173.611 227.5,173.5C 232.73,175.786 237.73,178.619 242.5,182C 258.571,195.066 273.737,209.233 288,224.5C 287.564,214.503 289.731,205.17 294.5,196.5C 297,192.516 298.833,188.182 300,183.5C 301.42,181.578 303.253,180.245 305.5,179.5C 306.309,177.929 306.643,176.262 306.5,174.5C 307.833,174.5 309.167,174.5 310.5,174.5C 316.21,177.346 322.21,179.68 328.5,181.5C 329.117,181.611 329.617,181.944 330,182.5C 331.073,200.601 330.24,218.601 327.5,236.5C 325.49,244.852 322.99,253.185 320,261.5C 316.138,272.791 308.638,280.291 297.5,284C 293.848,284.499 290.182,284.665 286.5,284.5C 286.639,273.272 281.972,264.772 272.5,259C 269.607,257.851 266.607,257.351 263.5,257.5C 263.027,256.094 262.027,255.427 260.5,255.5C 256.519,253.119 252.186,252.119 247.5,252.5C 239.051,233.434 234.218,213.434 233,192.5C 232.92,209.027 235.587,225.361 241,241.5C 242.847,245.193 244.68,248.86 246.5,252.5C 243.5,252.5 240.5,252.5 237.5,252.5C 221.488,242.109 204.488,240.109 186.5,246.5C 183.852,244.558 181.185,244.224 178.5,245.5C 180.665,245.116 182.332,245.783 183.5,247.5C 181.894,255.072 183.727,261.738 189,267.5C 189.671,266.748 190.504,266.414 191.5,266.5C 191.649,267.552 191.483,268.552 191,269.5C 188.798,270.913 186.632,272.413 184.5,274C 186.154,281.709 184.154,288.375 178.5,294C 171.048,296.374 164.048,299.707 157.5,304C 148.838,315.006 138.172,323.339 125.5,329C 122.28,330.352 118.947,331.186 115.5,331.5C 105.1,332.388 97.9335,328.055 94,318.5C 90.7705,305.847 90.7705,293.181 94,280.5C 100.649,254.528 110.649,229.861 124,206.5C 131.066,197.933 138.899,190.266 147.5,183.5C 159.135,176.191 171.802,171.358 185.5,169C 187.071,165.926 189.404,163.76 192.5,162.5 Z"/></g>
<g><path style="opacity:1" fill="#5f167a" d="M 393.5,163.5 C 395.265,162.539 397.265,162.205 399.5,162.5C 404.284,161.839 408.618,162.839 412.5,165.5C 414.187,168.903 413.52,171.736 410.5,174C 403.444,174.788 396.444,174.455 389.5,173C 388.584,172.626 387.75,172.126 387,171.5C 386.204,168.961 386.371,166.628 387.5,164.5C 387.232,166.099 387.566,167.432 388.5,168.5C 390.265,169.461 392.265,169.795 394.5,169.5C 394.795,167.265 394.461,165.265 393.5,163.5 Z"/></g>
<g><path style="opacity:1" fill="#eed31b" d="M 393.5,163.5 C 394.461,165.265 394.795,167.265 394.5,169.5C 392.265,169.795 390.265,169.461 388.5,168.5C 387.833,164.5 389.5,162.833 393.5,163.5 Z"/></g>
<g><path style="opacity:1" fill="#824361" d="M 399.5,162.5 C 397.265,162.205 395.265,162.539 393.5,163.5C 389.5,162.833 387.833,164.5 388.5,168.5C 387.566,167.432 387.232,166.099 387.5,164.5C 388.058,163.21 389.058,162.377 390.5,162C 393.696,161.195 396.696,161.362 399.5,162.5 Z"/></g>
<g><path style="opacity:1" fill="#e1c12b" d="M 404.5,164.5 C 410.555,163.942 411.888,166.109 408.5,171C 403.57,171.427 402.237,169.26 404.5,164.5 Z"/></g>
<g><path style="opacity:1" fill="#edde1d" d="M 357.5,170.5 C 359.216,170.629 360.883,170.962 362.5,171.5C 365.84,175.052 366.34,179.052 364,183.5C 358.243,188.266 353.91,187.266 351,180.5C 349.704,174.956 351.871,171.623 357.5,170.5 Z"/></g>
<g><path style="opacity:0.993" fill="#fec601" d="M 145.5,172.5 C 145.242,176.367 145.908,180.034 147.5,183.5C 138.899,190.266 131.066,197.933 124,206.5C 110.649,229.861 100.649,254.528 94,280.5C 90.7705,293.181 90.7705,305.847 94,318.5C 97.9335,328.055 105.1,332.388 115.5,331.5C 110.448,354.688 117.781,372.688 137.5,385.5C 134.116,386.63 130.782,387.963 127.5,389.5C 121.294,416.624 127.461,440.624 146,461.5C 150.192,460.978 152.859,458.645 154,454.5C 154.497,451.854 154.664,449.187 154.5,446.5C 153.954,437.348 154.788,428.348 157,419.5C 158.271,416.567 159.938,413.901 162,411.5C 168.029,406.301 173.862,400.967 179.5,395.5C 183.086,393.42 186.253,390.754 189,387.5C 187.838,393.52 186.338,399.52 184.5,405.5C 181.831,412.171 179.164,418.838 176.5,425.5C 172.002,429.83 167.335,433.997 162.5,438C 171.554,455.388 184.888,468.388 202.5,477C 208.19,478.865 214.023,480.032 220,480.5C 221.981,480.371 223.647,479.704 225,478.5C 225.667,475.5 225.667,472.5 225,469.5C 224.623,468.058 223.79,467.058 222.5,466.5C 221.266,463.414 219.766,460.414 218,457.5C 211.437,451.041 206.937,443.374 204.5,434.5C 207.193,429.114 209.86,423.78 212.5,418.5C 238.944,385.307 261.111,349.307 279,310.5C 282.258,301.91 284.758,293.243 286.5,284.5C 290.182,284.665 293.848,284.499 297.5,284C 308.638,280.291 316.138,272.791 320,261.5C 322.99,253.185 325.49,244.852 327.5,236.5C 362.884,290.492 381.051,349.825 382,414.5C 378.391,450.102 359.225,471.936 324.5,480C 309.957,482.721 295.29,484.388 280.5,485C 228.842,486.486 177.175,486.82 125.5,486C 109.453,485.718 93.4534,484.718 77.5,483C 34.9661,479.8 11.4661,456.967 7,414.5C 3.66296,370.489 18.3296,333.822 51,304.5C 67.9154,283.351 81.2487,260.017 91,234.5C 102.005,207.458 120.171,186.792 145.5,172.5 Z"/></g>
<g><path style="opacity:1" fill="#eddf1e" d="M 436.5,176.5 C 438.167,176.5 439.833,176.5 441.5,176.5C 448.051,179.755 449.051,184.255 444.5,190C 435.457,193.292 431.29,190.126 432,180.5C 433.397,178.93 434.897,177.596 436.5,176.5 Z"/></g>
<g><path style="opacity:1" fill="#672075" d="M 379.5,178.5 C 383.226,178.177 386.893,178.511 390.5,179.5C 390.709,180.086 391.043,180.586 391.5,181C 388.028,182.58 384.362,182.913 380.5,182C 378.627,181.047 378.294,179.88 379.5,178.5 Z"/></g>
<g><path style="opacity:1" fill="#e4c626" d="M 380.5,180.5 C 383.355,179.197 386.355,179.197 389.5,180.5C 386.502,181.643 383.502,181.643 380.5,180.5 Z"/></g>
<g><path style="opacity:1" fill="#661f75" d="M 407.5,180.5 C 411.555,180.176 415.555,180.509 419.5,181.5C 419.709,182.086 420.043,182.586 420.5,183C 416.65,184.755 412.65,184.922 408.5,183.5C 407.873,182.583 407.539,181.583 407.5,180.5 Z"/></g>
<g><path style="opacity:1" fill="#e4c626" d="M 409.5,182.5 C 412.355,181.197 415.355,181.197 418.5,182.5C 415.502,183.643 412.502,183.643 409.5,182.5 Z"/></g>
<g><path style="opacity:1" fill="#6a2472" d="M 378.5,184.5 C 382.182,184.335 385.848,184.501 389.5,185C 390.337,186.011 390.67,187.178 390.5,188.5C 386.818,188.665 383.152,188.499 379.5,188C 378.663,186.989 378.33,185.822 378.5,184.5 Z"/></g>
<g><path style="opacity:1" fill="#e3c527" d="M 379.5,186.5 C 382.74,185.258 386.074,185.424 389.5,187C 386.076,187.747 382.743,187.58 379.5,186.5 Z"/></g>
<g><path style="opacity:1" fill="#692273" d="M 407.5,186.5 C 411.182,186.335 414.848,186.501 418.5,187C 419.337,188.011 419.67,189.178 419.5,190.5C 415.818,190.665 412.152,190.499 408.5,190C 407.663,188.989 407.33,187.822 407.5,186.5 Z"/></g>
<g><path style="opacity:1" fill="#e7cb23" d="M 408.5,188.5 C 411.74,187.258 415.074,187.424 418.5,189C 415.076,189.747 411.743,189.58 408.5,188.5 Z"/></g>
<g><path style="opacity:0.988" fill="#fbf1fc" d="M 445.5,258.5 C 445.5,259.833 445.5,261.167 445.5,262.5C 447.357,274.309 442.357,279.642 430.5,278.5C 415.174,277.807 399.841,277.307 384.5,277C 378.389,274.615 376.055,270.115 377.5,263.5C 377.5,263.167 377.5,262.833 377.5,262.5C 378.331,249.006 378.831,235.339 379,221.5C 379.346,219.152 380.513,217.319 382.5,216C 385.91,214.972 389.41,214.472 393,214.5C 403.824,215.466 414.657,215.633 425.5,215C 427.34,212.331 429.34,209.831 431.5,207.5C 433.401,209.728 434.401,212.395 434.5,215.5C 439.093,215.167 442.593,216.834 445,220.5C 445.5,233.162 445.667,245.829 445.5,258.5 Z"/></g>
<g><path style="opacity:1" fill="#492474" d="M 160.5,247.5 C 153.442,249.746 146.442,252.413 139.5,255.5C 144.377,252.797 148.877,249.464 153,245.5C 158.835,236.99 163.835,227.99 168,218.5C 169.585,212.168 170.252,205.835 170,199.5C 172.482,210.925 170.482,221.592 164,231.5C 160.556,237.276 156.723,242.776 152.5,248C 155.192,248.43 157.859,248.263 160.5,247.5 Z"/></g>
<g><path style="opacity:1" fill="#188948" d="M 413.5,221.5 C 414.461,223.265 414.795,225.265 414.5,227.5C 416.827,227.665 418.993,228.331 421,229.5C 422.353,228.315 423.52,226.981 424.5,225.5C 426.5,227.167 428.5,228.833 430.5,230.5C 429.5,231.833 428.5,233.167 427.5,234.5C 428.806,235.912 429.64,237.579 430,239.5C 431.699,240.406 433.533,240.739 435.5,240.5C 435.993,242.806 436.326,245.139 436.5,247.5C 434.833,247.5 433.167,247.5 431.5,247.5C 431.534,250.199 430.867,252.699 429.5,255C 434.172,257.188 434.172,259.854 429.5,263C 427.536,263.624 425.869,263.124 424.5,261.5C 422.833,262.333 421.167,263.167 419.5,264C 419.216,265.956 419.216,268.123 419.5,270.5C 416.833,270.5 414.167,270.5 411.5,270.5C 411.5,268.833 411.5,267.167 411.5,265.5C 409.063,265.244 406.729,264.577 404.5,263.5C 402.887,265.123 401.22,266.29 399.5,267C 395.263,264.65 394.596,261.65 397.5,258C 396.144,256.433 395.477,254.6 395.5,252.5C 393.5,252.5 391.5,252.5 389.5,252.5C 388.908,249.873 388.575,247.206 388.5,244.5C 390.167,244.5 391.833,244.5 393.5,244.5C 393.586,242.323 394.253,240.323 395.5,238.5C 391.493,234.82 391.827,231.486 396.5,228.5C 399.501,232.133 402.668,232.133 406,228.5C 406.651,226.765 406.485,225.098 405.5,223.5C 408.306,222.832 410.972,222.166 413.5,221.5 Z"/></g>
<g><path style="opacity:1" fill="#fbf1fc" d="M 408.5,233.5 C 423.499,233.648 428.332,240.648 423,254.5C 416.073,261.089 409.073,261.089 402,254.5C 397.647,245.395 399.814,238.395 408.5,233.5 Z"/></g>
<g><path style="opacity:1" fill="#fb82dd" d="M 237.5,252.5 C 234.992,254.237 231.992,255.07 228.5,255C 235.66,259.251 234.993,261.085 226.5,260.5C 226.5,261.5 226.5,262.5 226.5,263.5C 223.421,263.74 220.421,263.407 217.5,262.5C 217.094,263.557 217.094,264.891 217.5,266.5C 213.902,266.393 210.402,265.726 207,264.5C 201.687,265.098 196.521,265.765 191.5,266.5C 190.504,266.414 189.671,266.748 189,267.5C 183.727,261.738 181.894,255.072 183.5,247.5C 182.332,245.783 180.665,245.116 178.5,245.5C 181.185,244.224 183.852,244.558 186.5,246.5C 204.488,240.109 221.488,242.109 237.5,252.5 Z"/></g>
<g><path style="opacity:1" fill="#452e6f" d="M 160.5,247.5 C 165.039,244.693 169.373,245.193 173.5,249C 171.565,250.895 169.898,250.562 168.5,248C 165.854,247.503 163.187,247.336 160.5,247.5 Z"/></g>
<g><path style="opacity:1" fill="#492a72" d="M 286.5,229.5 C 287.152,230.449 287.486,231.615 287.5,233C 284.553,244.64 284.886,256.14 288.5,267.5C 288.167,267.833 287.833,268.167 287.5,268.5C 284.939,262.978 283.606,257.145 283.5,251C 284.052,243.749 285.052,236.583 286.5,229.5 Z"/></g>
<g><path style="opacity:1" fill="#501879" d="M 178.5,245.5 C 177.998,247.085 176.998,247.585 175.5,247C 176.244,245.961 177.244,245.461 178.5,245.5 Z"/></g>
<g><path style="opacity:1" fill="#3f3a6a" d="M 247.5,252.5 C 247.167,252.5 246.833,252.5 246.5,252.5C 244.68,248.86 242.847,245.193 241,241.5C 235.587,225.361 232.92,209.027 233,192.5C 234.218,213.434 239.051,233.434 247.5,252.5 Z"/></g>
<g><path style="opacity:1" fill="#7a2492" d="M 210.5,248.5 C 216.502,247.634 221.836,249.468 226.5,254C 221.379,251.903 216.045,250.07 210.5,248.5 Z"/></g>
<g><path style="opacity:1" fill="#fef1fe" d="M 237.5,252.5 C 240.5,252.5 243.5,252.5 246.5,252.5C 246.833,252.5 247.167,252.5 247.5,252.5C 252.186,252.119 256.519,253.119 260.5,255.5C 263.713,259.259 265.879,263.592 267,268.5C 267.397,275.523 267.397,282.523 267,289.5C 271.138,278.169 269.971,267.502 263.5,257.5C 266.607,257.351 269.607,257.851 272.5,259C 281.972,264.772 286.639,273.272 286.5,284.5C 284.758,293.243 282.258,301.91 279,310.5C 261.111,349.307 238.944,385.307 212.5,418.5C 203.4,413.616 194.067,409.283 184.5,405.5C 186.338,399.52 187.838,393.52 189,387.5C 186.253,390.754 183.086,393.42 179.5,395.5C 173.547,387.708 167.38,380.041 161,372.5C 160.845,370.144 160.845,367.811 161,365.5C 160.152,368.38 158.652,370.88 156.5,373C 151.288,377.052 145.955,380.885 140.5,384.5C 139.391,384.557 138.391,384.89 137.5,385.5C 117.781,372.688 110.448,354.688 115.5,331.5C 118.947,331.186 122.28,330.352 125.5,329C 138.172,323.339 148.838,315.006 157.5,304C 164.048,299.707 171.048,296.374 178.5,294C 184.154,288.375 186.154,281.709 184.5,274C 186.632,272.413 188.798,270.913 191,269.5C 191.483,268.552 191.649,267.552 191.5,266.5C 196.521,265.765 201.687,265.098 207,264.5C 210.402,265.726 213.902,266.393 217.5,266.5C 217.094,264.891 217.094,263.557 217.5,262.5C 220.421,263.407 223.421,263.74 226.5,263.5C 226.5,262.5 226.5,261.5 226.5,260.5C 234.993,261.085 235.66,259.251 228.5,255C 231.992,255.07 234.992,254.237 237.5,252.5 Z"/></g>
<g><path style="opacity:1" fill="#501879" d="M 139.5,255.5 C 139.027,256.906 138.027,257.573 136.5,257.5C 136.973,256.094 137.973,255.427 139.5,255.5 Z"/></g>
<g><path style="opacity:1" fill="#772491" d="M 207.5,252.5 C 214.291,253.151 220.291,255.651 225.5,260C 220.376,257.957 215.043,256.124 209.5,254.5C 208.287,254.253 207.62,253.586 207.5,252.5 Z"/></g>
<g><path style="opacity:1" fill="#501679" d="M 136.5,257.5 C 136.027,258.906 135.027,259.573 133.5,259.5C 133.973,258.094 134.973,257.427 136.5,257.5 Z"/></g>
<g><path style="opacity:1" fill="#792492" d="M 202.5,259.5 C 206.717,258.01 210.717,258.676 214.5,261.5C 214.333,261.833 214.167,262.167 214,262.5C 210.265,261.087 206.432,260.087 202.5,259.5 Z"/></g>
<g><path style="opacity:1" fill="#4a2374" d="M 133.5,259.5 C 126.397,265.429 119.397,271.596 112.5,278C 111.833,278.667 111.167,278.667 110.5,278C 117.482,270.837 125.149,264.671 133.5,259.5 Z"/></g>
<g><path style="opacity:1" fill="#7a3e99" d="M 260.5,255.5 C 262.027,255.427 263.027,256.094 263.5,257.5C 269.971,267.502 271.138,278.169 267,289.5C 267.397,282.523 267.397,275.523 267,268.5C 265.879,263.592 263.713,259.259 260.5,255.5 Z"/></g>
<g><path style="opacity:1" fill="#6f2e91" d="M 194.5,298.5 C 200.564,286.074 209.231,275.74 220.5,267.5C 216.549,271.965 212.049,276.631 207,281.5C 202.812,287.234 198.646,292.901 194.5,298.5 Z"/></g>
<g><path style="opacity:1" fill="#772d6a" d="M 311.5,283.5 C 316.611,280.528 321.944,280.028 327.5,282C 322.239,282.006 316.906,282.506 311.5,283.5 Z"/></g>
<g><path style="opacity:1" fill="#631876" d="M 311.5,283.5 C 308.485,285.674 305.151,287.341 301.5,288.5C 304.247,285.793 307.58,284.127 311.5,283.5 Z"/></g>
<g><path style="opacity:1" fill="#782f67" d="M 297.5,296.5 C 303.865,293.881 310.532,293.214 317.5,294.5C 310.839,295.333 304.173,295.999 297.5,296.5 Z"/></g>
<g><path style="opacity:1" fill="#5e1584" d="M 263.5,295.5 C 264.621,297.089 264.454,298.756 263,300.5C 262.616,298.803 262.782,297.137 263.5,295.5 Z"/></g>
<g><path style="opacity:1" fill="#70266f" d="M 301.5,288.5 C 298.729,290.767 296.062,293.267 293.5,296C 294.793,296.49 296.127,296.657 297.5,296.5C 294.259,298.121 290.925,299.787 287.5,301.5C 287.167,301.167 286.833,300.833 286.5,300.5C 289.6,297.111 292.933,293.945 296.5,291C 298.078,289.906 299.745,289.072 301.5,288.5 Z"/></g>
<g><path style="opacity:1" fill="#68248c" d="M 194.5,298.5 C 194.25,300.674 193.25,302.341 191.5,303.5C 191.75,301.326 192.75,299.659 194.5,298.5 Z"/></g>
<g><path style="opacity:1" fill="#66228a" d="M 191.5,303.5 C 190.921,306.331 189.588,308.664 187.5,310.5C 188.079,307.669 189.412,305.336 191.5,303.5 Z"/></g>
<g><path style="opacity:1" fill="#67238a" d="M 255.5,313.5 C 255.795,311.577 256.628,309.91 258,308.5C 258.249,310.668 257.416,312.335 255.5,313.5 Z"/></g>
<g><path style="opacity:1" fill="#71276d" d="M 62.5,315.5 C 72.4298,314.732 81.4298,317.232 89.5,323C 95.0603,326.625 100.06,330.958 104.5,336C 97.5514,334.08 90.3847,332.914 83,332.5C 75.7446,333.073 68.5779,333.907 61.5,335C 74.0871,331.25 86.7537,330.583 99.5,333C 88.534,321.509 75.2007,316.176 59.5,317C 60.7375,316.768 61.7375,316.268 62.5,315.5 Z"/></g>
<g><path style="opacity:1" fill="#631e88" d="M 187.5,310.5 C 185.872,315.09 183.705,319.423 181,323.5C 182.085,318.663 184.252,314.33 187.5,310.5 Z"/></g>
<g><path style="opacity:1" fill="#67238b" d="M 177.5,327.5 C 178.573,328.251 178.74,329.251 178,330.5C 176,334.5 174,338.5 172,342.5C 171.675,340.447 172.009,338.447 173,336.5C 175.038,333.757 176.538,330.757 177.5,327.5 Z"/></g>
<g><path style="opacity:1" fill="#713193" d="M 255.5,313.5 C 254.038,317.817 251.872,321.817 249,325.5C 231.811,348.027 212.478,368.694 191,387.5C 190.333,386.833 190.333,386.167 191,385.5C 216.015,364.336 237.515,340.336 255.5,313.5 Z"/></g>
<g><path style="opacity:1" fill="#67248b" d="M 169.5,344.5 C 170.097,344.735 170.43,345.235 170.5,346C 169.804,347.893 168.97,349.726 168,351.5C 167.4,348.905 167.9,346.571 169.5,344.5 Z"/></g>
<g><path style="opacity:1" fill="#5e1584" d="M 164.5,358.5 C 164.491,356.692 164.991,355.025 166,353.5C 166.599,355.535 166.099,357.201 164.5,358.5 Z"/></g>
<g><path style="opacity:1" fill="#601986" d="M 164.5,358.5 C 164.509,360.308 164.009,361.975 163,363.5C 162.401,361.465 162.901,359.799 164.5,358.5 Z"/></g>
<g><path style="opacity:1" fill="#58107f" d="M 179.5,395.5 C 173.862,400.967 168.029,406.301 162,411.5C 159.938,413.901 158.271,416.567 157,419.5C 154.788,428.348 153.954,437.348 154.5,446.5C 145.606,449.159 140.273,445.992 138.5,437C 139.374,433.185 139.54,429.351 139,425.5C 135.339,421.849 132.506,417.683 130.5,413C 132.345,408.145 134.845,403.645 138,399.5C 140.033,394.705 140.866,389.705 140.5,384.5C 145.955,380.885 151.288,377.052 156.5,373C 158.652,370.88 160.152,368.38 161,365.5C 160.845,367.811 160.845,370.144 161,372.5C 167.38,380.041 173.547,387.708 179.5,395.5 Z"/></g>
<g><path style="opacity:1" fill="#17853f" d="M 140.5,384.5 C 140.866,389.705 140.033,394.705 138,399.5C 134.845,403.645 132.345,408.145 130.5,413C 132.506,417.683 135.339,421.849 139,425.5C 139.54,429.351 139.374,433.185 138.5,437C 140.273,445.992 145.606,449.159 154.5,446.5C 154.664,449.187 154.497,451.854 154,454.5C 152.859,458.645 150.192,460.978 146,461.5C 127.461,440.624 121.294,416.624 127.5,389.5C 130.782,387.963 134.116,386.63 137.5,385.5C 138.391,384.89 139.391,384.557 140.5,384.5 Z"/></g>
<g><path style="opacity:1" fill="#570f7e" d="M 184.5,405.5 C 194.067,409.283 203.4,413.616 212.5,418.5C 209.86,423.78 207.193,429.114 204.5,434.5C 206.937,443.374 211.437,451.041 218,457.5C 219.766,460.414 221.266,463.414 222.5,466.5C 220.473,466.338 218.473,466.505 216.5,467C 209.21,472.276 202.71,471.443 197,464.5C 195.318,458.093 192.151,452.593 187.5,448C 184.51,447.103 181.51,446.269 178.5,445.5C 177.533,441.367 177.533,437.2 178.5,433C 178.59,430.256 177.923,427.756 176.5,425.5C 179.164,418.838 181.831,412.171 184.5,405.5 Z"/></g>
<g><path style="opacity:1" fill="#651b75" d="M 244.5,430.5 C 242.118,425.039 241.118,419.205 241.5,413C 241.667,409.833 241.833,406.667 242,403.5C 242.17,401.285 242.837,399.285 244,397.5C 243.193,402.738 242.693,408.072 242.5,413.5C 242.648,419.238 243.315,424.905 244.5,430.5 Z"/></g>
<g><path style="opacity:1" fill="#138440" d="M 176.5,425.5 C 177.923,427.756 178.59,430.256 178.5,433C 177.533,437.2 177.533,441.367 178.5,445.5C 181.51,446.269 184.51,447.103 187.5,448C 192.151,452.593 195.318,458.093 197,464.5C 202.71,471.443 209.21,472.276 216.5,467C 218.473,466.505 220.473,466.338 222.5,466.5C 223.79,467.058 224.623,468.058 225,469.5C 225.667,472.5 225.667,475.5 225,478.5C 223.647,479.704 221.981,480.371 220,480.5C 214.023,480.032 208.19,478.865 202.5,477C 184.888,468.388 171.554,455.388 162.5,438C 167.335,433.997 172.002,429.83 176.5,425.5 Z"/></g>
<g><path style="opacity:1" fill="#611677" d="M 244.5,430.5 C 246.099,431.799 246.599,433.465 246,435.5C 244.991,433.975 244.491,432.308 244.5,430.5 Z"/></g>
<g><path style="opacity:1" fill="#6b2071" d="M 231.5,431.5 C 233.273,432.314 233.773,433.648 233,435.5C 232.209,434.255 231.709,432.922 231.5,431.5 Z"/></g>
<g><path style="opacity:1" fill="#6a2071" d="M 237.5,441.5 C 235.554,440.746 234.721,439.412 235,437.5C 236.481,438.471 237.315,439.804 237.5,441.5 Z"/></g>
<g><path style="opacity:1" fill="#6b2171" d="M 255.5,448.5 C 251.47,445.745 248.97,442.078 248,437.5C 250.52,441.224 253.02,444.891 255.5,448.5 Z"/></g>
<g><path style="opacity:1" fill="#752c6a" d="M 237.5,441.5 C 243.631,447.731 250.964,451.564 259.5,453C 258.944,452.617 258.611,452.117 258.5,451.5C 261.562,452.187 262.895,453.853 262.5,456.5C 254.234,454.866 246.9,451.366 240.5,446C 238.859,444.871 237.859,443.371 237.5,441.5 Z"/></g>
<g><path style="opacity:1" fill="#6e256f" d="M 255.5,448.5 C 256.833,449.167 257.833,450.167 258.5,451.5C 256.5,451.5 255.5,450.5 255.5,448.5 Z"/></g>
</svg>
