<?xml version="1.0" encoding="UTF-8"?>
<!DOCTYPE svg PUBLIC "-//W3C//DTD SVG 1.1//EN" "http://www.w3.org/Graphics/SVG/1.1/DTD/svg11.dtd">
<svg xmlns="http://www.w3.org/2000/svg" version="1.1" width="512px" height="512px" style="shape-rendering:geometricPrecision; text-rendering:geometricPrecision; image-rendering:optimizeQuality; fill-rule:evenodd; clip-rule:evenodd" xmlns:xlink="http://www.w3.org/1999/xlink">
<g><path style="opacity:0.668" fill="#fec700" d="M 355.5,5.5 C 356.496,5.41423 357.329,5.74756 358,6.5C 358.667,16.1667 358.667,25.8333 358,35.5C 357.586,35.9574 357.086,36.2907 356.5,36.5C 355.501,26.1881 355.168,15.8548 355.5,5.5 Z"/></g>
<g><path style="opacity:0.742" fill="#fec700" d="M 304.5,26.5 C 312.078,32.5722 319.244,39.2389 326,46.5C 326.749,47.635 326.583,48.635 325.5,49.5C 318.514,43.0147 311.681,36.348 305,29.5C 304.517,28.552 304.351,27.552 304.5,26.5 Z"/></g>
<g><path style="opacity:0.814" fill="#fec700" d="M 407.5,26.5 C 408.289,26.7828 408.956,27.2828 409.5,28C 402.319,35.348 394.986,42.5146 387.5,49.5C 386.479,48.9984 386.312,48.3317 387,47.5C 394.036,40.6315 400.869,33.6315 407.5,26.5 Z"/></g>
<g><path style="opacity:0.981" fill="#ffc700" d="M 346.5,39.5 C 368.579,37.1145 383.746,46.1145 392,66.5C 397.175,90.6573 388.341,107.157 365.5,116C 348.606,119.924 334.44,115.424 323,102.5C 313.817,87.9055 313.151,72.9055 321,57.5C 327.415,48.39 335.915,42.39 346.5,39.5 Z"/></g>
<g><path style="opacity:0.976" fill="#fe58ce" d="M 185.5,155.5 C 184.883,155.389 184.383,155.056 184,154.5C 181.329,144.323 178.163,134.323 174.5,124.5C 174.233,122.035 173.566,119.701 172.5,117.5C 171.699,115.958 171.366,114.292 171.5,112.5C 185.467,109.894 199.467,107.394 213.5,105C 195.983,96.7426 178.316,88.7426 160.5,81C 156.225,79.8418 151.891,79.0085 147.5,78.5C 142.833,78.5 138.167,78.5 133.5,78.5C 133.675,73.5477 136.342,71.0477 141.5,71C 140.016,70.3378 138.683,69.5045 137.5,68.5C 132.52,65.5313 129.853,61.1979 129.5,55.5C 132.011,55.838 134.345,55.838 136.5,55.5C 134.754,52.7325 134.421,49.8992 135.5,47C 137.903,46.3698 139.737,47.2031 141,49.5C 142.022,41.8368 144.356,41.5035 148,48.5C 148.473,46.221 149.473,44.221 151,42.5C 153.684,45.7017 155.517,49.3684 156.5,53.5C 161.543,55.6889 165.876,58.8555 169.5,63C 193.955,61.447 216.621,67.1136 237.5,80C 260.648,97.1802 261.315,115.18 239.5,134C 223.427,145.865 205.427,153.032 185.5,155.5 Z"/></g>
<g><path style="opacity:1" fill="#8f2599" d="M 152.5,58.5 C 153.239,58.369 153.906,58.5357 154.5,59C 152,61.5 149.5,64 147,66.5C 147.958,68.7867 147.124,70.4534 144.5,71.5C 143.417,70.635 143.251,69.635 144,68.5C 146.669,65.0003 149.502,61.667 152.5,58.5 Z"/></g>
<g><path style="opacity:0.987" fill="#5a0c80" d="M 137.5,68.5 C 138.683,69.5045 140.016,70.3378 141.5,71C 136.342,71.0477 133.675,73.5477 133.5,78.5C 138.167,78.5 142.833,78.5 147.5,78.5C 146.837,81.6641 145.17,84.1641 142.5,86C 143.98,87.2991 144.646,88.9658 144.5,91C 144.693,93.0081 144.026,94.5081 142.5,95.5C 140.801,95.6602 139.134,95.4935 137.5,95C 135.343,90.255 133.676,90.4217 132.5,95.5C 126.553,97.0519 124.553,94.8853 126.5,89C 129.985,88.6737 133.318,89.1737 136.5,90.5C 136.5,89.5 136.5,88.5 136.5,87.5C 139.957,87.3328 140.29,86.3328 137.5,84.5C 134.081,87.1461 131.081,86.6461 128.5,83C 127.167,82.3333 125.833,82.3333 124.5,83C 123.712,86.0757 123.212,89.2423 123,92.5C 118.815,90.6946 116.815,92.028 117,96.5C 118.634,101.414 121.468,102.414 125.5,99.5C 126.68,103.06 126.347,106.393 124.5,109.5C 117.687,106.685 113.354,101.685 111.5,94.5C 108.954,93.4543 107.287,91.6209 106.5,89C 107.944,86.5515 109.778,84.3848 112,82.5C 111.549,74.951 115.049,71.451 122.5,72C 126.259,66.6154 130.592,66.1154 135.5,70.5C 136.522,70.1445 137.189,69.4778 137.5,68.5 Z"/></g>
<g><path style="opacity:0.655" fill="#fec700" d="M 283.5,77.5 C 293.998,77.0259 304.331,77.5259 314.5,79C 304.326,80.639 293.993,80.9724 283.5,80C 282.402,79.2303 282.402,78.397 283.5,77.5 Z"/></g>
<g><path style="opacity:0.665" fill="#fec700" d="M 400.5,77.5 C 410.172,77.3335 419.839,77.5002 429.5,78C 429.957,78.414 430.291,78.914 430.5,79.5C 420.167,80.8333 409.833,80.8333 399.5,79.5C 399.863,78.8165 400.196,78.1499 400.5,77.5 Z"/></g>
<g><path style="opacity:0.98" fill="#f753ca" d="M 142.5,95.5 C 142.675,100.49 141.008,104.657 137.5,108C 138.275,110.822 138.942,113.656 139.5,116.5C 139.5,118.167 139.5,119.833 139.5,121.5C 139.423,122.75 138.756,123.583 137.5,124C 134.739,124.722 132.073,124.555 129.5,123.5C 128.205,122.512 126.872,121.512 125.5,120.5C 125.167,119.833 124.833,119.167 124.5,118.5C 124.5,115.5 124.5,112.5 124.5,109.5C 126.347,106.393 126.68,103.06 125.5,99.5C 121.468,102.414 118.634,101.414 117,96.5C 116.815,92.028 118.815,90.6946 123,92.5C 123.212,89.2423 123.712,86.0757 124.5,83C 125.833,82.3333 127.167,82.3333 128.5,83C 131.081,86.6461 134.081,87.1461 137.5,84.5C 140.29,86.3328 139.957,87.3328 136.5,87.5C 136.5,88.5 136.5,89.5 136.5,90.5C 133.318,89.1737 129.985,88.6737 126.5,89C 124.553,94.8853 126.553,97.0519 132.5,95.5C 133.676,90.4217 135.343,90.255 137.5,95C 139.134,95.4935 140.801,95.6602 142.5,95.5 Z"/></g>
<g><path style="opacity:0.739" fill="#fec700" d="M 387.5,108.5 C 395.146,115.479 402.479,122.812 409.5,130.5C 408.635,131.583 407.635,131.749 406.5,131C 400,124.5 393.5,118 387,111.5C 386.53,110.423 386.697,109.423 387.5,108.5 Z"/></g>
<g><path style="opacity:1" fill="#92269b" d="M 214.5,105.5 C 214.56,104.957 214.893,104.624 215.5,104.5C 221.344,109.173 228.01,112.007 235.5,113C 227.381,113.572 220.381,111.072 214.5,105.5 Z"/></g>
<g><path style="opacity:0.822" fill="#fec700" d="M 324.5,109.5 C 325.552,109.351 326.552,109.517 327.5,110C 320.319,117.348 312.986,124.515 305.5,131.5C 304.479,130.998 304.312,130.332 305,129.5C 311.703,122.965 318.203,116.298 324.5,109.5 Z"/></g>
<g><path style="opacity:0.888" fill="#fef0fe" d="M 171.5,112.5 C 171.366,114.292 171.699,115.958 172.5,117.5C 163.312,117.298 154.146,117.631 145,118.5C 143.014,118.431 141.514,117.765 140.5,116.5C 150.756,114.606 161.089,113.273 171.5,112.5 Z"/></g>
<g><path style="opacity:1" fill="#e5cae5" d="M 139.5,116.5 C 139.833,116.5 140.167,116.5 140.5,116.5C 141.514,117.765 143.014,118.431 145,118.5C 154.146,117.631 163.312,117.298 172.5,117.5C 173.566,119.701 174.233,122.035 174.5,124.5C 162.839,123.44 151.173,122.44 139.5,121.5C 139.5,119.833 139.5,118.167 139.5,116.5 Z"/></g>
<g><path style="opacity:0.937" fill="#fef0fe" d="M 124.5,118.5 C 124.833,119.167 125.167,119.833 125.5,120.5C 115.68,127.994 108.013,137.328 102.5,148.5C 100.999,147.248 99.3325,146.248 97.5,145.5C 102.811,132.855 111.811,123.855 124.5,118.5 Z"/></g>
<g><path style="opacity:0.996" fill="#fef2fe" d="M 139.5,121.5 C 151.173,122.44 162.839,123.44 174.5,124.5C 178.163,134.323 181.329,144.323 184,154.5C 184.383,155.056 184.883,155.389 185.5,155.5C 186.564,162.191 188.731,168.524 192,174.5C 201.077,191.661 210.911,208.328 221.5,224.5C 220.807,225.518 220.141,226.518 219.5,227.5C 210.02,236.397 199.686,244.064 188.5,250.5C 180.407,245.294 171.74,241.127 162.5,238C 148.299,228.968 133.966,220.135 119.5,211.5C 119.167,210.667 118.833,209.833 118.5,209C 120.833,199.333 123.167,189.667 125.5,180C 122.006,170.015 116.34,161.515 108.5,154.5C 113.577,142.776 120.577,132.442 129.5,123.5C 132.073,124.555 134.739,124.722 137.5,124C 138.756,123.583 139.423,122.75 139.5,121.5 Z"/></g>
<g><path style="opacity:0.651" fill="#fec700" d="M 356.5,121.5 C 357.117,121.611 357.617,121.944 358,122.5C 358.667,132.5 358.667,142.5 358,152.5C 357.586,152.957 357.086,153.291 356.5,153.5C 355.192,142.772 355.192,132.106 356.5,121.5 Z"/></g>
<g><path style="opacity:1" fill="#e5cbe6" d="M 125.5,120.5 C 126.872,121.512 128.205,122.512 129.5,123.5C 120.577,132.442 113.577,142.776 108.5,154.5C 106.167,152.833 104.167,150.833 102.5,148.5C 108.013,137.328 115.68,127.994 125.5,120.5 Z"/></g>
<g><path style="opacity:0.991" fill="#fc59ce" d="M 97.5,145.5 C 99.3325,146.248 100.999,147.248 102.5,148.5C 104.167,150.833 106.167,152.833 108.5,154.5C 116.34,161.515 122.006,170.015 125.5,180C 123.167,189.667 120.833,199.333 118.5,209C 118.833,209.833 119.167,210.667 119.5,211.5C 133.966,220.135 148.299,228.968 162.5,238C 171.74,241.127 180.407,245.294 188.5,250.5C 191.658,257.568 190.825,264.234 186,270.5C 184.989,271.337 183.822,271.67 182.5,271.5C 182.851,269.131 183.018,266.797 183,264.5C 182.089,267.576 180.256,269.909 177.5,271.5C 175.606,270.399 174.939,269.066 175.5,267.5C 173.619,269.734 171.285,271.067 168.5,271.5C 168.297,269.61 168.963,268.11 170.5,267C 168.799,266.655 167.466,267.322 166.5,269C 159.935,270.624 158.935,269.124 163.5,264.5C 160.816,263.158 158.149,261.824 155.5,260.5C 154.71,259.206 153.71,258.039 152.5,257C 133.87,253.4 115.87,247.9 98.5,240.5C 86.0901,232.355 80.0901,220.688 80.5,205.5C 82.1443,184.241 87.811,164.241 97.5,145.5 Z"/></g>
<g><path style="opacity:0.998" fill="#069046" d="M 219.5,227.5 C 244.987,263.119 268.487,300.119 290,338.5C 300.563,358.365 310.063,378.698 318.5,399.5C 314.757,402.038 310.757,404.038 306.5,405.5C 295.799,411.183 285.132,416.85 274.5,422.5C 269.107,425.615 263.607,428.615 258,431.5C 246.059,405.952 234.393,380.286 223,354.5C 216.918,344 210.584,333.666 204,323.5C 204.954,335.829 204.621,348.162 203,360.5C 191.818,392.189 178.484,422.855 163,452.5C 157.727,451.059 152.56,449.392 147.5,447.5C 135.594,443.786 123.594,440.453 111.5,437.5C 108.958,436.376 106.292,435.542 103.5,435C 102.572,434.612 101.905,433.945 101.5,433C 111.655,401.711 121.655,370.378 131.5,339C 125.415,325.083 119.915,310.916 115,296.5C 110.774,283.144 108.274,269.477 107.5,255.5C 123.143,260.015 139.143,261.682 155.5,260.5C 158.149,261.824 160.816,263.158 163.5,264.5C 158.935,269.124 159.935,270.624 166.5,269C 167.466,267.322 168.799,266.655 170.5,267C 168.963,268.11 168.297,269.61 168.5,271.5C 171.285,271.067 173.619,269.734 175.5,267.5C 174.939,269.066 175.606,270.399 177.5,271.5C 180.256,269.909 182.089,267.576 183,264.5C 183.018,266.797 182.851,269.131 182.5,271.5C 183.822,271.67 184.989,271.337 186,270.5C 190.825,264.234 191.658,257.568 188.5,250.5C 199.686,244.064 210.02,236.397 219.5,227.5 Z"/></g>
<g><path style="opacity:0.986" fill="#fdf0fc" d="M 98.5,240.5 C 115.87,247.9 133.87,253.4 152.5,257C 153.71,258.039 154.71,259.206 155.5,260.5C 139.143,261.682 123.143,260.015 107.5,255.5C 104.529,254.173 101.529,252.84 98.5,251.5C 97.3166,247.825 97.3166,244.159 98.5,240.5 Z"/></g>
<g><path style="opacity:1" fill="#04bdcc" d="M 115.5,265.5 C 117.39,265.297 118.89,265.963 120,267.5C 126.136,286.907 132.469,306.24 139,325.5C 140.231,329.591 141.065,333.758 141.5,338C 133.223,370.274 124.557,402.441 115.5,434.5C 113.801,434.66 112.134,434.494 110.5,434C 120.352,402.095 129.352,369.928 137.5,337.5C 129.958,313.542 122.624,289.542 115.5,265.5 Z"/></g>
<g><path style="opacity:1" fill="#3f376d" d="M 194.5,264.5 C 195.139,265.097 195.472,265.93 195.5,267C 194.946,269.824 194.446,272.657 194,275.5C 193.421,271.797 193.588,268.131 194.5,264.5 Z"/></g>
<g><path style="opacity:1" fill="#403c6c" d="M 192.5,276.5 C 195.032,290.957 198.698,305.29 203.5,319.5C 203.167,319.833 202.833,320.167 202.5,320.5C 198.527,308.614 194.861,296.614 191.5,284.5C 192.393,281.916 192.726,279.249 192.5,276.5 Z"/></g>
<g><path style="opacity:1" fill="#04bdcb" d="M 202.5,309.5 C 205.47,308.543 207.97,309.543 210,312.5C 217.742,322.314 224.742,332.648 231,343.5C 242.646,369.29 254.146,395.123 265.5,421C 263.741,421.798 262.074,421.631 260.5,420.5C 251.857,402.209 244.023,383.542 237,364.5C 227.977,344.418 216.477,326.085 202.5,309.5 Z"/></g>
<g><path style="opacity:0.978" fill="#fc59cd" d="M 306.5,405.5 C 309.438,413.651 311.772,421.984 313.5,430.5C 304.269,435.948 294.602,440.615 284.5,444.5C 280.615,437.398 277.282,430.065 274.5,422.5C 285.132,416.85 295.799,411.183 306.5,405.5 Z"/></g>
<g><path style="opacity:0.996" fill="#580d80" d="M 313.5,430.5 C 314.15,430.804 314.817,431.137 315.5,431.5C 316.658,434.476 317.658,437.476 318.5,440.5C 311.396,443.496 310.063,447.996 314.5,454C 322.495,457.169 327.829,454.669 330.5,446.5C 340.178,440.86 349.511,441.193 358.5,447.5C 339.674,460.911 319.007,470.577 296.5,476.5C 293.605,466.246 289.272,456.579 283.5,447.5C 284.127,446.583 284.461,445.583 284.5,444.5C 294.602,440.615 304.269,435.948 313.5,430.5 Z"/></g>
<g><path style="opacity:0.983" fill="#fb59cd" d="M 111.5,437.5 C 123.594,440.453 135.594,443.786 147.5,447.5C 142.92,455.419 137.92,463.086 132.5,470.5C 122.988,466.774 113.321,463.44 103.5,460.5C 106.168,452.828 108.835,445.162 111.5,437.5 Z"/></g>
<g><path style="opacity:0.975" fill="#8b00c7" d="M 318.5,440.5 C 318.286,442.144 318.62,443.644 319.5,445C 323.06,446.237 326.727,446.737 330.5,446.5C 327.829,454.669 322.495,457.169 314.5,454C 310.063,447.996 311.396,443.496 318.5,440.5 Z"/></g>
<g><path style="opacity:0.948" fill="#8d00cb" d="M 358.5,447.5 C 362.837,447.969 364.504,450.135 363.5,454C 350.319,462.427 336.652,470.093 322.5,477C 315.717,479.872 308.717,482.039 301.5,483.5C 300.228,483.43 299.062,483.097 298,482.5C 297.187,480.564 296.687,478.564 296.5,476.5C 319.007,470.577 339.674,460.911 358.5,447.5 Z"/></g>
<g><path style="opacity:1" fill="#f4e3f6" d="M 294.5,447.5 C 300.705,447.037 302.705,449.704 300.5,455.5C 292.79,457.123 290.79,454.457 294.5,447.5 Z"/></g>
<g><path style="opacity:1" fill="#be99cd" d="M 336.5,445.5 C 337.034,449.367 338.034,453.2 339.5,457C 339.167,457.167 338.833,457.333 338.5,457.5C 336.835,455.744 335.835,453.577 335.5,451C 336.233,449.234 336.567,447.401 336.5,445.5 Z"/></g>
<g><path style="opacity:0.999" fill="#5a1081" d="M 103.5,460.5 C 113.321,463.44 122.988,466.774 132.5,470.5C 133.471,471.962 133.138,473.295 131.5,474.5C 128.228,473.149 124.894,473.316 121.5,475C 118.404,480.175 119.404,484.508 124.5,488C 128.973,488.962 132.973,488.129 136.5,485.5C 141.729,486.224 146.729,487.724 151.5,490C 153.79,491.777 155.457,493.944 156.5,496.5C 133.167,496.5 109.833,496.5 86.5,496.5C 91.6873,484.132 97.3539,472.132 103.5,460.5 Z"/></g>
<g><path style="opacity:1" fill="#c09bcf" d="M 296.5,462.5 C 303.377,460.893 309.377,462.726 314.5,468C 311.494,467.004 308.494,465.671 305.5,464C 302.487,463.498 299.487,462.998 296.5,462.5 Z"/></g>
<g><path style="opacity:1" fill="#f6e7f8" d="M 103.5,471.5 C 109.487,470.977 111.487,473.477 109.5,479C 105.067,481.73 102.401,480.563 101.5,475.5C 101.752,473.927 102.418,472.594 103.5,471.5 Z"/></g>
<g><path style="opacity:0.982" fill="#8b00c7" d="M 131.5,474.5 C 130.392,476.781 129.058,478.948 127.5,481C 130.363,482.787 133.363,484.287 136.5,485.5C 132.973,488.129 128.973,488.962 124.5,488C 119.404,484.508 118.404,480.175 121.5,475C 124.894,473.316 128.228,473.149 131.5,474.5 Z"/></g>
<g><path style="opacity:1" fill="#cbaad7" d="M 98.5,486.5 C 99.7211,485.535 101.054,485.702 102.5,487C 105.379,488.836 106.879,491.336 107,494.5C 104.953,490.952 102.12,488.285 98.5,486.5 Z"/></g>
<g><path style="opacity:1" fill="#d5b8de" d="M 135.5,491.5 C 137.973,491.947 138.14,492.947 136,494.5C 135.517,493.552 135.351,492.552 135.5,491.5 Z"/></g>
<g><path style="opacity:0.992" fill="#8b00c8" d="M 86.5,496.5 C 109.833,496.5 133.167,496.5 156.5,496.5C 158.73,499.012 159.397,501.845 158.5,505C 133.836,505.5 109.169,505.667 84.5,505.5C 84.2069,502.246 84.8736,499.246 86.5,496.5 Z"/></g>
</svg>
