<svg version="1.0" xmlns="http://www.w3.org/2000/svg" width="536" height="600" viewBox="0 0 402 450"><path d="M192 25.1c-3.3 1.4-6.6 4.5-10.1 9.5l-2.8 4.1-8.3-2.4c-19.2-5.6-32.1-5.3-37.2.7-3.8 4.6-4.1 8.2-1.3 14.2 4.2 8.9 12.2 16.3 28 25.8 4.9 3 10.1 6.9 11.7 8.7 5.7 6.5 6.4 17.9 1.7 30.3l-2.3 6.4-6.1 1.2c-3.3.7-7.4 1.9-8.9 2.7-1.6.8-4.7 1.8-6.9 2.2-7.8 1.4-13.1 5.8-14.5 12-.9 3.9.2 8.8 2.6 11.6 2.2 2.5 1.7 3.5-4.3 8.4-8.3 6.6-23.4 21.7-31.3 31C62 239 52.9 295 75.4 354.5l4.4 11.5-7.7 13.3c-10.4 17.8-13.4 24.9-13.9 32.3-.4 5.7-.2 6.3 2.8 9.7 5.6 6.4 12.4 6.1 32.1-1.6 16.3-6.4 21.8-7.2 46.9-7.2 23.1.1 36.4 1.4 66.9 6.6 16.1 2.7 19.4 2.9 42.5 2.9 19.5 0 26.8.4 32.6 1.6 8.9 2 28.3 2.2 35.4.5 21-5.1 30.8-20.5 24.6-38.7-2.3-6.8-6.6-14.8-12-21.9l-3-4.1 3.9-15.4c4.9-19.5 7.1-36.1 7.1-54.9 0-18-1.2-28-5-43.7-10-40.3-35.3-73.4-69.2-90.5L254 150l.1-4.9c.1-3.3-.5-6.1-1.8-8.3-1.6-2.9-1.7-3.8-.6-6.8 1.7-4.9 1.5-7.9-.6-12.6l-1.9-4.1 3.2-1.6c1.7-.8 9.8-4.6 18-8.3 16.9-7.7 25.1-12.7 28.4-17.3 6.8-9.3 4-17.2-8.9-25.4-7.1-4.5-8.4-6.2-11.6-16.6-2.9-9.6-5.8-13.3-11.8-15-5.9-1.6-12.8.2-26 6.6-8.4 4.2-10 4-19.3-2-3.7-2.5-8.7-5.4-11.1-6.7-5-2.5-14.3-3.5-18.1-1.9zm11.5 12.3c4.3 1.8 17.6 10.8 21.1 14.3s6.3 9.9 6.4 14.3c.1 8.9 2.4 6.2 7-8.2 1.7-5.3 3-7.5 6.1-10.2 4-3.3 12.9-6.6 18.2-6.6 2.8 0 2.6-.6 6.2 13.8 2 7.6.8 14.5-3.2 19.2l-2.4 2.9 5.7-3.4c6.7-4.1 10.7-4.4 16.5-1.5 9.7 5 5.7 8.7-24.9 22.6-10.3 4.7-21.2 10-24.2 11.8-5.6 3.4-14 5.7-14 3.8 0-1.2 2.9-4.9 12.2-15.4 4-4.4 6.1-7.4 5-7.1-3.1.8-12.7 8.5-17.6 14.3-2.6 3-6 7-7.5 8.7-5.1 5.9-5.6 4.9-5.7-11 0-7.8-.5-16-1.1-18.2-.8-3.5-1-2.4-1.7 9-.4 7.1-1.2 15.9-1.9 19.5-1.2 6.3-1.3 6.5-4.2 6.5-2.7 0-3.1-.4-3.9-4.3-1.2-5.5-2.6-5.4-2.6.3 0 4.1-.3 4.6-3.2 5.9-1.8.7-3.4 1.2-3.6 1.1-.1-.1.5-3.1 1.4-6.6 2.3-8.9 1.6-21.8-1.6-27.9-4-7.8-7-10.9-15.9-16.2-4.7-2.8-10.4-6.5-12.6-8.1-6-4.5-14.5-13-14.5-14.4 0-3.3 10.4-2.4 26.3 2.4 7.7 2.3 9.3 3.2 12.7 7 4.2 4.8 10.6 16.6 15.7 28.8 3.9 9.7 4 9.1.7-4.5-7.2-29.6-7.9-37.6-3.9-41.5 2.8-2.9 4.3-3 9-1.1zm37.1 81.8c.5.7-1.5 3.2-5.2 6.6l-5.9 5.5 6.3-4.8c4.7-3.6 6.5-4.6 7.4-3.7 1.5 1.5-.3 5.6-3.4 7.6-3 2-10.8 3.2-10.8 1.7 0-.6-1.4-.2-3.2.9-3.2 1.9-9.9 2.8-9.7 1.2 0-.4 3.6-3.6 8.1-7.2 10.4-8.4 14.8-10.5 16.4-7.8zm-15.1 5.4c-7 6.4-11 9.4-13.1 9.9-1.1.2-3.4.7-5.1 1.1-1.8.3-3.3.3-3.2-.2.1-1.3 12.7-11.5 16.8-13.6 1.9-1 4.9-1.8 6.6-1.8l3 .1-5 4.5zM215 124c0 .5-.3 1-.7 1-.5.1-3.3 2.3-6.3 5-4.7 4.2-6 4.9-9.2 4.8-2.1-.1-3.8-.5-3.8-.9 0-1.2 8.2-8 11.5-9.5 3.6-1.6 8.5-1.8 8.5-.4zm-15.2 2.8c-.1.4-2.4 2.7-5 5-4.2 3.9-5 4.3-8.2 3.7-2.9-.6-3.4-1-2.7-2.4 1.9-3.4 17.3-9.5 15.9-6.3zm-15 3.4c-.7 2.1-5.2 4.6-9.5 5.2-5.1.7-5.5-.3-1-2.9 5.4-3.3 11.2-4.6 10.5-2.3zm-15.3 3.8c-.3.5-1.5 1-2.5 1s-2.2-.5-2.5-1c-.4-.6.7-1 2.5-1s2.9.4 2.5 1zm19.5 4.7c2.5.9 8 3.4 12.3 5.5 4.4 2.2 8.1 3.8 8.3 3.6.2-.2-3.7-2.4-8.6-4.8-5-2.4-9-4.8-9-5.3 0-.6 2.7-.8 6.3-.5 4.6.4 8.3 1.6 14.6 4.7 4.5 2.3 8.5 4 8.8 3.7.3-.3-2.4-2-6.1-3.8-3.6-1.8-6.6-3.5-6.6-3.9 0-2.7 10.3-.9 19 3.2 3.6 1.7 8 3.8 9.8 4.5 5.8 2.6 3.4.8-4.3-3.1-4.1-2-7.5-4.1-7.5-4.6 0-1.3 8.1-1.1 12.1.2 7.2 2.4 8.7 5.8 4.2 9.6-2.8 2.5-6.6 2.9-10.9 1.3-2-.8-2.9-.8-3.5.1-.7 1.3-11.7.8-15.3-.7-1.4-.5-1.7-.4-1.2.4 1.1 1.8-9.2 1.5-14.3-.3-6.9-2.4-21.1-9.4-21.1-10.4 0-2.3 5.4-2.1 13 .6zm-7.7 3.9c6.7 3.1 12.6 6 13.2 6.5 1.6 1.6-9.1 1.4-13.4-.2-1.7-.7-2.7-.6-3.2.2-.7 1.3-11.9.8-15.3-.6-1.3-.6-1.7-.5-1.3.2 1 1.6-6.3 2.4-10.6 1.2s-6.7-3.3-6.7-6c0-2.6 2.1-2.4 8.1.7 2.8 1.4 5.3 2.4 5.5 2.1.2-.2-2.3-1.6-5.6-3.2s-5.9-3.4-5.7-3.9c.2-.6 2.2-1.2 4.4-1.4 3.2-.2 5.9.6 12.3 3.8 4.5 2.3 8.4 3.9 8.6 3.7.3-.2-2.5-1.9-6.1-3.8-3.6-1.8-6.5-3.7-6.5-4.1 0-.4 2.3-.8 5.1-.8 4 0 7.5 1.1 17.2 5.6zm32.2 23.4c3.3 3.4 9.4 8.4 13.5 11.2 12.6 8.6 16.2 12.6 23.9 26.8l3.9 7.2-.5-4.8c-1.1-10-7.3-21.3-16.2-29.8-3.7-3.6-3.9-4.6-.8-4.6 6 0 26.8 17.3 41 34 5.1 5.9 9.4 10.6 9.5 10.5.2-.2-1.6-4.1-3.9-8.6-4.8-9.3-13-20.2-22.2-29.7-3.4-3.4-5.6-6.2-4.9-6.2 2.7 0 14 4.3 20.2 7.8 8.4 4.6 20.1 16.6 26.2 26.8 26.4 43.9 24.5 109.3-4.2 150.9-6.1 8.7-16.5 19.4-23.5 24.1-2.7 1.9-4.7 3.4-4.4 3.4.3 0 4.8-.9 10-2 12.5-2.7 29-3.7 35.7-2 12.2 2.9 12.2 13-.1 21.4-6.7 4.6-15.4 7.6-24.2 8.3-8.8.7-30.3-2.1-36-4.6-5.9-2.6-12-8.5-22.7-21.8-5-6.2-9.1-11.3-9.2-11.3 0 0-.1 3.1-.1 6.9-.1 8.9-3 13.7-10.7 17.5-9.3 4.5-17 5-44.2 3.1-26-1.9-43.3-1.5-58.4 1.1-7.7 1.3-12 2.6-27 8.1-10 3.6-12-2.9-5.4-17.1 4.2-8.9 8.7-13.6 13-13.6 1.5 0 8.3 2.7 15.2 6 7.1 3.4 15.5 6.6 19.5 7.5 12.5 2.6 12.8 1.9 1.7-3.9-24.7-13-37.9-26.4-42.7-43-2.5-8.6-1.6-23.3 2-34.6 3-9.4 11.1-27.2 14.7-32.2l2.3-3.3-3.4 2.8c-1.8 1.5-3.5 2.6-3.7 2.4-.3-.2.2-3.3 1.1-6.8.8-3.5 1.5-6.8 1.5-7.2 0-.5-2.3 2.5-5.1 6.7-7.5 11.3-12.9 14.8-12.9 8.3.1-28.3 15.3-62.5 36.7-82.8 10-9.4 18.2-12.9 22.9-9.5 1.5 1.2 1.9 2.6 1.8 7.8-.1 6.4-1.6 12.4-6.1 23.3-2.7 6.6-10.3 22-13.6 27.5-6.1 10.5 10.1-11.8 19.9-27.2 10.8-17.1 18.8-31.8 23.7-43.5 2.3-5.7 4.5-10.3 5-10.3 1.2 0 .8 8.2-.8 14-.8 3-1.5 5.7-1.5 5.8 0 .4 10.9-8.9 16.5-14.1 4.9-4.4 6.2-4.4 10.2.3 1.9 2.2 6.8 6.3 10.8 9 16 10.8 24.2 19.3 34.3 35.6 9.4 15.1 13.7 27.7 18.2 53.4l2.8 15.5.1-10c.1-17.1-3.2-33.6-9.9-50.2-4.4-10.6-11.2-20.7-23.1-33.8-11.9-13.1-19.3-22.4-21.8-27.2-3.7-7.4-2.4-7.2 5.4.7z"/><path d="M224 147c.8.5 2 1 2.5 1 .6 0 .3-.5-.5-1s-1.9-1-2.5-1c-.5 0-.3.5.5 1zM174 147c.8.5 2 1 2.5 1 .6 0 .3-.5-.5-1s-1.9-1-2.5-1c-.5 0-.3.5.5 1zM190.6 189.4c-2 1.9-2.5 3.7-3 11.2-.4 4.9-.8 9.8-.9 10.9-.2 1.6-1.2 2.1-5.7 2.8-7.4 1-18.6 6.5-23.3 11.3-7.8 8.1-12.1 22.6-9.8 33.5 2.8 13.5 10.9 21.8 29.9 30.9l7.3 3.4-.6 18.6c-.3 10.2-.8 21.8-1.1 25.7l-.6 7.3-4.1-.6c-2.3-.4-9.4-2.1-15.7-3.9-7-1.9-12.5-2.9-13.9-2.5-3.2.8-6.4 6.9-5.5 10.5 1.3 5.3 11 9.5 28.6 12.4l10.3 1.7v12.3c0 12.2 0 12.3 2.8 14.7 3.7 3.2 8.7 3.2 12.4 0 2.7-2.4 2.8-2.8 3.3-14.7l.5-12.3 8-1.4c19.5-3.2 31-13.8 33.3-30.6 1.8-13.3-1.3-24-9.4-32.6-5.1-5.4-17.8-13.8-25.1-16.6l-4.4-1.7.7-24.1c.4-13.3.9-24.3 1.1-24.6.4-.5 13 2.1 20 4.2 3.9 1.1 4.5 1 7-.8 1.6-1.2 3.2-3.7 3.7-5.8.8-3 .6-4.1-1.1-6.4-2.3-3.1-13.1-6.9-22.8-8l-6-.7V205c-.1-12.2-.2-12.8-3-15.5-3.3-3.4-9.6-3.5-12.9-.1zm-4.2 60.8c-.3 10.1-.7 18.9-1 19.6-.3.9-1.6.5-4.6-1.6-5.7-3.9-8.4-7-10.3-11.4-2.1-5.1-1.9-9.4.6-14.6 2.4-4.8 9.5-10.2 13.5-10.2h2.3l-.5 18.2zm20.6 53.4c4.6 3.1 10.2 8.9 12.1 12.6 2.5 4.8 2.5 13.2.1 17.8-2.1 4-11.2 10-15.1 10h-2.4l.6-15.2c.4-8.3.7-17.7.7-21 0-3.2.3-5.8.8-5.8.4 0 1.9.7 3.2 1.6z"/></svg>