<?xml version="1.0" encoding="UTF-8"?>
<!DOCTYPE svg PUBLIC "-//W3C//DTD SVG 1.1//EN" "http://www.w3.org/Graphics/SVG/1.1/DTD/svg11.dtd">
<svg xmlns="http://www.w3.org/2000/svg" version="1.1" width="512px" height="512px" style="shape-rendering:geometricPrecision; text-rendering:geometricPrecision; image-rendering:optimizeQuality; fill-rule:evenodd; clip-rule:evenodd" xmlns:xlink="http://www.w3.org/1999/xlink">
<g><path style="opacity:0.984" fill="#01e3a8" d="M 482.5,31.5 C 459.792,18.613 437.792,19.9463 416.5,35.5C 410.832,30.1614 409.332,23.8281 412,16.5C 413.214,14.9512 414.714,13.7845 416.5,13C 437.5,12.3333 458.5,12.3333 479.5,13C 485.025,15.9188 486.858,20.4188 485,26.5C 484.153,28.1932 483.32,29.8599 482.5,31.5 Z"/></g>
<g><path style="opacity:0.986" fill="#0089d6" d="M 482.5,31.5 C 478.5,41.5 471.5,48.5 461.5,52.5C 457.742,52.848 454.076,53.5147 450.5,54.5C 435.941,53.8883 424.608,47.555 416.5,35.5C 437.792,19.9463 459.792,18.613 482.5,31.5 Z"/></g>
<g><path style="opacity:0.991" fill="#560d7f" d="M 461.5,52.5 C 462.768,58.6105 463.768,64.7771 464.5,71C 464.349,77.2971 462.349,82.7971 458.5,87.5C 458.012,82.368 456.346,77.7013 453.5,73.5C 453.15,67.0492 452.15,60.7159 450.5,54.5C 454.076,53.5147 457.742,52.848 461.5,52.5 Z"/></g>
<g><path style="opacity:0.975" fill="#02e2a8" d="M 453.5,73.5 C 456.346,77.7013 458.012,82.368 458.5,87.5C 457.829,95.0033 454.162,100.503 447.5,104C 434.454,107.845 421.454,111.845 408.5,116C 403.349,116.818 398.349,116.318 393.5,114.5C 394.463,110.204 394.629,105.871 394,101.5C 391.677,97.6813 388.844,94.348 385.5,91.5C 387.494,87.5062 390.494,84.5062 394.5,82.5C 404.511,94.6257 416.511,96.7924 430.5,89C 432.359,87.4422 433.859,85.6089 435,83.5C 435.499,78.8452 435.666,74.1785 435.5,69.5C 442.155,67.7149 448.155,69.0483 453.5,73.5 Z"/></g>
<g><path style="opacity:1" fill="#098dd4" d="M 435.5,69.5 C 435.666,74.1785 435.499,78.8452 435,83.5C 433.859,85.6089 432.359,87.4422 430.5,89C 416.511,96.7924 404.511,94.6257 394.5,82.5C 407.821,77.4133 421.487,73.08 435.5,69.5 Z"/></g>
<g><path style="opacity:0.899" fill="#00e3a7" d="M 237.5,104.5 C 239.119,100.931 240.452,97.2644 241.5,93.5C 238.314,93.6632 235.647,92.6632 233.5,90.5C 235.705,85.2587 238.038,80.0921 240.5,75C 244.308,75.4346 247.974,76.6013 251.5,78.5C 248.833,81.8333 246.167,85.1667 243.5,88.5C 245.359,90.1924 247.359,91.6924 249.5,93C 245.631,97.037 241.631,100.87 237.5,104.5 Z"/></g>
<g><path style="opacity:0.913" fill="#00e3a7" d="M 223.5,113.5 C 220.941,109.388 218.608,105.054 216.5,100.5C 215.635,99.4173 214.635,99.2506 213.5,100C 211.167,101.833 208.833,103.667 206.5,105.5C 201.878,99.0968 197.878,92.2634 194.5,85C 197.802,82.3421 201.135,79.6754 204.5,77C 205.449,76.3828 206.282,76.5494 207,77.5C 208.333,82.8333 209.667,88.1667 211,93.5C 214,92.1667 217,90.8333 220,89.5C 221.494,97.461 222.661,105.461 223.5,113.5 Z"/></g>
<g><path style="opacity:0.994" fill="#580c7f" d="M 96.5,95.5 C 95.5207,94.2347 94.5207,92.9014 93.5,91.5C 92.2322,92.4279 90.8989,92.5946 89.5,92C 88.1667,90.3333 86.8333,88.6667 85.5,87C 83.4328,86.4644 81.5994,86.9644 80,88.5C 79.6667,92.5 79.3333,96.5 79,100.5C 75.7672,97.6011 73.2672,98.1011 71.5,102C 72.4722,108.51 75.6388,110.01 81,106.5C 81.7466,109.924 81.58,113.257 80.5,116.5C 70.0608,113.392 64.3941,106.392 63.5,95.5C 63.9722,90.969 65.1388,86.6357 67,82.5C 70.2665,80.8989 73.7665,80.0655 77.5,80C 81.1667,75.3333 84.8333,75.3333 88.5,80C 94.2052,79.9466 98.2052,82.4466 100.5,87.5C 100.05,90.7145 98.7166,93.3811 96.5,95.5 Z"/></g>
<g><path style="opacity:0.98" fill="#15e1a5" d="M 374.5,88.5 C 380.468,98.7336 382.134,109.734 379.5,121.5C 376.848,125.817 373.515,129.484 369.5,132.5C 366.001,133.1 362.501,133.766 359,134.5C 357.124,134.475 355.624,133.809 354.5,132.5C 346.922,118.198 342.922,103.198 342.5,87.5C 338.624,92.5402 338.957,97.3735 343.5,102C 340.03,108.501 341.363,113.834 347.5,118C 345.131,124.286 346.798,129.12 352.5,132.5C 345.36,131.647 338.693,132.98 332.5,136.5C 328.257,133.743 327.423,130.076 330,125.5C 333.671,121.923 337.838,119.256 342.5,117.5C 345.167,117.167 345.167,116.833 342.5,116.5C 337.515,116.148 332.681,116.815 328,118.5C 326.347,118.18 325.347,117.18 325,115.5C 323.357,110.572 324.857,107.072 329.5,105C 331.854,104.153 334.188,103.32 336.5,102.5C 338.379,102.607 338.712,102.107 337.5,101C 334.633,100.199 331.966,100.366 329.5,101.5C 327.354,101.878 325.187,102.212 323,102.5C 320.624,102.315 318.791,101.315 317.5,99.5C 317.441,95.452 319.108,92.2854 322.5,90C 329.228,86.7202 336.228,85.3868 343.5,86C 348.821,79.6694 355.487,78.0027 363.5,81C 367.87,82.5486 371.537,85.0486 374.5,88.5 Z"/></g>
<g><path style="opacity:0.984" fill="#f77bd9" d="M 96.5,95.5 C 98.621,100.481 98.7877,105.481 97,110.5C 92.8939,112.048 92.3939,114.382 95.5,117.5C 95.5,118.167 95.5,118.833 95.5,119.5C 97.5028,129.506 93.8362,132.339 84.5,128C 83.6138,126.385 82.6138,124.885 81.5,123.5C 81.7373,122.209 81.404,121.209 80.5,120.5C 80.5,119.167 80.5,117.833 80.5,116.5C 81.58,113.257 81.7466,109.924 81,106.5C 75.6388,110.01 72.4722,108.51 71.5,102C 73.2672,98.1011 75.7672,97.6011 79,100.5C 79.3333,96.5 79.6667,92.5 80,88.5C 81.5994,86.9644 83.4328,86.4644 85.5,87C 86.8333,88.6667 88.1667,90.3333 89.5,92C 90.8989,92.5946 92.2322,92.4279 93.5,91.5C 94.5207,92.9014 95.5207,94.2347 96.5,95.5 Z"/></g>
<g><path style="opacity:1" fill="#018ad6" d="M 358.5,87.5 C 364.324,87.477 368.491,90.1437 371,95.5C 375.198,103.008 375.531,110.674 372,118.5C 367.752,123.296 363.252,123.63 358.5,119.5C 351.08,111.171 349.58,101.838 354,91.5C 355.397,89.9297 356.897,88.5964 358.5,87.5 Z"/></g>
<g><path style="opacity:0.996" fill="#56127f" d="M 374.5,88.5 C 378.223,89.2967 381.89,90.2967 385.5,91.5C 388.844,94.348 391.677,97.6813 394,101.5C 394.629,105.871 394.463,110.204 393.5,114.5C 389.665,118.418 384.998,120.751 379.5,121.5C 382.134,109.734 380.468,98.7336 374.5,88.5 Z"/></g>
<g><path style="opacity:0.991" fill="#fe9100" d="M 317.5,99.5 C 318.791,101.315 320.624,102.315 323,102.5C 325.187,102.212 327.354,101.878 329.5,101.5C 332.059,101.198 334.393,101.532 336.5,102.5C 334.188,103.32 331.854,104.153 329.5,105C 324.857,107.072 323.357,110.572 325,115.5C 325.347,117.18 326.347,118.18 328,118.5C 332.681,116.815 337.515,116.148 342.5,116.5C 342.5,116.833 342.5,117.167 342.5,117.5C 337.838,119.256 333.671,121.923 330,125.5C 327.423,130.076 328.257,133.743 332.5,136.5C 338.693,132.98 345.36,131.647 352.5,132.5C 353.167,132.5 353.833,132.5 354.5,132.5C 355.624,133.809 357.124,134.475 359,134.5C 362.501,133.766 366.001,133.1 369.5,132.5C 370.963,147.537 364.463,152.871 350,148.5C 351.299,155.39 352.465,162.39 353.5,169.5C 353.29,178.754 348.957,185.254 340.5,189C 333.981,190.212 327.647,191.879 321.5,194C 329.08,200.536 329.414,207.536 322.5,215C 311.168,220.333 303.835,217 300.5,205C 301.09,202.804 301.757,200.638 302.5,198.5C 302,198.167 301.5,197.833 301,197.5C 289.578,200.284 278.078,202.618 266.5,204.5C 264.282,192.298 261.449,180.298 258,168.5C 251.937,175.413 245.104,176.247 237.5,171C 231.989,164.058 232.322,157.391 238.5,151C 243.616,147.947 248.783,147.78 254,150.5C 252.255,138.445 250.255,126.445 248,114.5C 259.763,111.094 271.596,108.76 283.5,107.5C 281.285,123.117 287.618,128.284 302.5,123C 306.305,118.909 307.472,114.076 306,108.5C 304.878,106.376 303.378,104.543 301.5,103C 306.717,101.257 312.05,100.09 317.5,99.5 Z"/></g>
<g><path style="opacity:1" fill="#b0ab36" d="M 329.5,101.5 C 331.966,100.366 334.633,100.199 337.5,101C 338.712,102.107 338.379,102.607 336.5,102.5C 334.393,101.532 332.059,101.198 329.5,101.5 Z"/></g>
<g><path style="opacity:1" fill="#792492" d="M 73.5,100.5 C 74.552,100.351 75.552,100.517 76.5,101C 77.636,102.53 78.636,103.863 79.5,105C 75.9512,105.622 73.9512,104.122 73.5,100.5 Z"/></g>
<g><path style="opacity:0.989" fill="#04c0d6" d="M 213.5,200.5 C 212.537,207.004 211.537,213.504 210.5,220C 198.51,219.368 186.51,218.535 174.5,217.5C 174.167,217.5 173.833,217.5 173.5,217.5C 160.249,215.727 146.916,213.727 133.5,211.5C 137.566,209.631 141.566,207.464 145.5,205C 147.607,203.736 148.607,201.903 148.5,199.5C 146.326,199.92 144.326,199.92 142.5,199.5C 144.972,196.885 146.638,193.885 147.5,190.5C 144.901,190.549 142.734,191.549 141,193.5C 142.412,190.677 143.912,187.677 145.5,184.5C 142.942,183.775 140.608,183.775 138.5,184.5C 139.577,182.271 140.244,179.937 140.5,177.5C 136.869,178.608 133.869,180.774 131.5,184C 129.167,184.667 126.833,184.667 124.5,184C 123.54,180.27 123.207,176.437 123.5,172.5C 124.206,162.477 125.206,152.477 126.5,142.5C 126.408,140.742 126.075,139.076 125.5,137.5C 125.833,137.5 126.167,137.5 126.5,137.5C 127.378,133.664 128.044,129.664 128.5,125.5C 128.192,123.076 128.526,120.743 129.5,118.5C 141.753,120.584 154.086,121.75 166.5,122C 163.285,113.648 165.618,107.315 173.5,103C 183.465,101.466 189.465,105.633 191.5,115.5C 190.937,118.862 189.603,121.862 187.5,124.5C 198.406,126.564 209.406,127.897 220.5,128.5C 219.915,141.698 218.415,154.698 216,167.5C 214.833,165 213,163.167 210.5,162C 200.674,159.574 194.674,163.241 192.5,173C 195.595,185.711 202.929,188.878 214.5,182.5C 214.833,182.833 215.167,183.167 215.5,183.5C 214.396,189.101 213.729,194.768 213.5,200.5 Z"/></g>
<g><path style="opacity:1" fill="#512482" d="M 354.5,132.5 C 353.833,132.5 353.167,132.5 352.5,132.5C 346.798,129.12 345.131,124.286 347.5,118C 341.363,113.834 340.03,108.501 343.5,102C 338.957,97.3735 338.624,92.5402 342.5,87.5C 342.922,103.198 346.922,118.198 354.5,132.5 Z"/></g>
<g><path style="opacity:0.251" fill="#00e3a6" d="M 237.5,104.5 C 236.833,105.167 236.833,105.167 237.5,104.5 Z"/></g>
<g><path style="opacity:0.251" fill="#00e3a6" d="M 223.5,113.5 C 224.833,114.167 224.833,114.167 223.5,113.5 Z"/></g>
<g><path style="opacity:0.994" fill="#068440" d="M 95.5,117.5 C 101.8,118.207 108.133,118.707 114.5,119C 119.574,120.371 124.24,122.538 128.5,125.5C 128.044,129.664 127.378,133.664 126.5,137.5C 125.239,134.901 123.573,132.568 121.5,130.5C 121.167,130.667 120.833,130.833 120.5,131C 122.03,133.352 123.697,135.519 125.5,137.5C 126.075,139.076 126.408,140.742 126.5,142.5C 125.206,152.477 124.206,162.477 123.5,172.5C 122.077,170.455 120.077,169.455 117.5,169.5C 119.283,175.877 118.616,181.877 115.5,187.5C 109.333,190.556 103,193.222 96.5,195.5C 97.9778,195.238 99.3112,195.571 100.5,196.5C 102.669,204.503 106.169,211.836 111,218.5C 113.185,220.54 115.685,221.874 118.5,222.5C 119.715,228.701 118.048,233.868 113.5,238C 102.577,242.197 91.5765,246.197 80.5,250C 74.0987,252.523 68.432,256.023 63.5,260.5C 36.2245,263.058 23.7245,250.724 26,223.5C 27.8502,213.799 30.8502,204.466 35,195.5C 40.1918,185.779 45.3585,176.113 50.5,166.5C 52.5,166.5 53.5,165.5 53.5,163.5C 52.8333,163.833 52.1667,164.167 51.5,164.5C 50.661,163.359 49.9943,162.026 49.5,160.5C 51.33,156.468 50.4967,153.135 47,150.5C 43.5802,144.673 44.4135,139.506 49.5,135C 55.8223,132.67 62.1556,130.337 68.5,128C 72.9392,126.032 76.9392,123.532 80.5,120.5C 81.404,121.209 81.7373,122.209 81.5,123.5C 72.3564,129.071 62.6898,133.571 52.5,137C 51.1667,137.667 51.1667,138.333 52.5,139C 55.594,139.652 58.594,139.318 61.5,138C 65.5,135.667 69.5,133.333 73.5,131C 76.1667,130.333 78.8333,130.333 81.5,131C 91.6094,139.723 98.6094,137.723 102.5,125C 101.332,121.743 98.999,119.909 95.5,119.5C 95.5,118.833 95.5,118.167 95.5,117.5 Z"/></g>
<g><path style="opacity:1" fill="#56127d" d="M 95.5,119.5 C 98.999,119.909 101.332,121.743 102.5,125C 98.6094,137.723 91.6094,139.723 81.5,131C 78.8333,130.333 76.1667,130.333 73.5,131C 69.5,133.333 65.5,135.667 61.5,138C 58.594,139.318 55.594,139.652 52.5,139C 51.1667,138.333 51.1667,137.667 52.5,137C 62.6898,133.571 72.3564,129.071 81.5,123.5C 82.6138,124.885 83.6138,126.385 84.5,128C 93.8362,132.339 97.5028,129.506 95.5,119.5 Z"/></g>
<g><path style="opacity:1" fill="#4b2275" d="M 103.5,120.5 C 104.189,119.226 105.023,119.226 106,120.5C 109.007,127.148 107.507,132.482 101.5,136.5C 101.167,136.333 100.833,136.167 100.5,136C 107.11,131.722 108.11,126.555 103.5,120.5 Z"/></g>
<g><path style="opacity:1" fill="#472772" d="M 126.5,137.5 C 126.167,137.5 125.833,137.5 125.5,137.5C 123.697,135.519 122.03,133.352 120.5,131C 120.833,130.833 121.167,130.667 121.5,130.5C 123.573,132.568 125.239,134.901 126.5,137.5 Z"/></g>
<g><path style="opacity:1" fill="#4a2773" d="M 80.5,137.5 C 84.2223,138.296 87.889,139.296 91.5,140.5C 97.9547,139.221 98.1214,139.888 92,142.5C 87.7898,141.493 83.9565,139.826 80.5,137.5 Z"/></g>
<g><path style="opacity:1" fill="#4d1e77" d="M 80.5,137.5 C 77.5755,137.46 74.9088,138.293 72.5,140C 66.0277,147.812 59.6944,155.645 53.5,163.5C 59.1812,153.649 66.1812,144.815 74.5,137C 76.7116,136.211 78.7116,136.378 80.5,137.5 Z"/></g>
<g><path style="opacity:0.984" fill="#52147b" d="M 53.5,163.5 C 53.5,165.5 52.5,166.5 50.5,166.5C 50.8333,165.833 51.1667,165.167 51.5,164.5C 52.1667,164.167 52.8333,163.833 53.5,163.5 Z"/></g>
<g><path style="opacity:1" fill="#442f6f" d="M 94.5,155.5 C 97.0082,163.907 96.8416,172.573 94,181.5C 94.3386,172.87 94.5052,164.203 94.5,155.5 Z"/></g>
<g><path style="opacity:1" fill="#f47ed9" d="M 123.5,172.5 C 123.207,176.437 123.54,180.27 124.5,184C 126.833,184.667 129.167,184.667 131.5,184C 133.869,180.774 136.869,178.608 140.5,177.5C 140.244,179.937 139.577,182.271 138.5,184.5C 140.608,183.775 142.942,183.775 145.5,184.5C 143.912,187.677 142.412,190.677 141,193.5C 142.734,191.549 144.901,190.549 147.5,190.5C 146.638,193.885 144.972,196.885 142.5,199.5C 144.326,199.92 146.326,199.92 148.5,199.5C 148.607,201.903 147.607,203.736 145.5,205C 141.566,207.464 137.566,209.631 133.5,211.5C 132.5,211.5 131.5,211.5 130.5,211.5C 125.653,212.16 121.819,210.493 119,206.5C 115.315,200.58 114.149,194.247 115.5,187.5C 118.616,181.877 119.283,175.877 117.5,169.5C 120.077,169.455 122.077,170.455 123.5,172.5 Z"/></g>
<g><path style="opacity:1" fill="#56137d" d="M 115.5,187.5 C 114.149,194.247 115.315,200.58 119,206.5C 121.819,210.493 125.653,212.16 130.5,211.5C 131.412,212.738 131.579,214.072 131,215.5C 127.369,216.973 124.536,219.306 122.5,222.5C 121.167,222.5 119.833,222.5 118.5,222.5C 115.685,221.874 113.185,220.54 111,218.5C 106.169,211.836 102.669,204.503 100.5,196.5C 99.3112,195.571 97.9778,195.238 96.5,195.5C 103,193.222 109.333,190.556 115.5,187.5 Z"/></g>
<g><path style="opacity:1" fill="#4e1978" d="M 96.5,195.5 C 95.3406,197.25 93.674,198.25 91.5,198.5C 92.6594,196.75 94.326,195.75 96.5,195.5 Z"/></g>
<g><path style="opacity:0.991" fill="#06e2a8" d="M 213.5,200.5 C 216.216,200.678 218.883,201.178 221.5,202C 223.544,202.498 224.878,203.665 225.5,205.5C 223.533,205.261 221.699,205.594 220,206.5C 212.431,226.393 204.598,246.06 196.5,265.5C 195.833,265.5 195.5,265.833 195.5,266.5C 195.5,266.833 195.5,267.167 195.5,267.5C 190.294,272.873 184.627,277.706 178.5,282C 171.945,285.544 164.945,287.378 157.5,287.5C 161.027,303.941 165.027,320.274 169.5,336.5C 168.145,338.521 166.479,340.188 164.5,341.5C 147.449,347.775 129.783,350.442 111.5,349.5C 107.833,349.5 104.167,349.5 100.5,349.5C 94.504,331.178 88.504,312.845 82.5,294.5C 83.6865,291.66 85.6865,289.494 88.5,288C 109.944,280.279 129.944,269.946 148.5,257C 161.33,246.49 169.996,233.323 174.5,217.5C 186.51,218.535 198.51,219.368 210.5,220C 211.537,213.504 212.537,207.004 213.5,200.5 Z"/></g>
<g><path style="opacity:0.987" fill="#fe83df" d="M 225.5,205.5 C 242.025,208.029 250.358,217.696 250.5,234.5C 250.07,243.677 248.57,252.677 246,261.5C 240.187,280.773 233.687,299.773 226.5,318.5C 213.974,307.638 199.641,304.304 183.5,308.5C 186.719,294.628 190.719,280.961 195.5,267.5C 195.5,267.167 195.5,266.833 195.5,266.5C 196.167,266.5 196.5,266.167 196.5,265.5C 204.598,246.06 212.431,226.393 220,206.5C 221.699,205.594 223.533,205.261 225.5,205.5 Z"/></g>
<g><path style="opacity:1" fill="#4a2274" d="M 91.5,198.5 C 89.6212,201.115 87.2879,203.281 84.5,205C 71.9345,209.78 60.2679,215.78 49.5,223C 59.3133,214.09 70.6467,207.756 83.5,204C 85.7942,199.912 87.9609,195.745 90,191.5C 90.0847,194.361 89.2514,197.028 87.5,199.5C 87.6667,199.833 87.8333,200.167 88,200.5C 88.8159,199.177 89.9826,198.511 91.5,198.5 Z"/></g>
<g><path style="opacity:0.999" fill="#048440" d="M 130.5,211.5 C 131.5,211.5 132.5,211.5 133.5,211.5C 146.916,213.727 160.249,215.727 173.5,217.5C 156.169,244.027 131.502,256.194 99.5,254C 88.0558,255.304 79.3891,260.804 73.5,270.5C 69.5,268.5 66.5,265.5 64.5,261.5C 69.9445,257.27 75.9445,253.77 82.5,251C 92.8945,247.485 103.228,243.819 113.5,240C 118.802,235.226 121.802,229.393 122.5,222.5C 124.536,219.306 127.369,216.973 131,215.5C 131.579,214.072 131.412,212.738 130.5,211.5 Z"/></g>
<g><path style="opacity:1" fill="#560f7e" d="M 173.5,217.5 C 173.833,217.5 174.167,217.5 174.5,217.5C 169.996,233.323 161.33,246.49 148.5,257C 129.944,269.946 109.944,280.279 88.5,288C 85.6865,289.494 83.6865,291.66 82.5,294.5C 80.187,292.791 78.687,290.457 78,287.5C 76.1853,281.894 74.6853,276.227 73.5,270.5C 79.3891,260.804 88.0558,255.304 99.5,254C 131.502,256.194 156.169,244.027 173.5,217.5 Z"/></g>
<g><path style="opacity:1" fill="#4a2474" d="M 118.5,222.5 C 119.833,222.5 121.167,222.5 122.5,222.5C 121.802,229.393 118.802,235.226 113.5,240C 103.228,243.819 92.8945,247.485 82.5,251C 75.9445,253.77 69.9445,257.27 64.5,261.5C 63.8333,261.5 63.5,261.167 63.5,260.5C 68.432,256.023 74.0987,252.523 80.5,250C 91.5765,246.197 102.577,242.197 113.5,238C 118.048,233.868 119.715,228.701 118.5,222.5 Z"/></g>
<g><path style="opacity:1" fill="#512984" d="M 161.5,261.5 C 161.485,257.44 161.985,253.44 163,249.5C 163.798,253.781 163.298,257.781 161.5,261.5 Z"/></g>
<g><path style="opacity:1" fill="#502883" d="M 161.5,261.5 C 160.807,270.271 159.473,278.938 157.5,287.5C 156.861,286.903 156.528,286.07 156.5,285C 157.999,276.994 159.666,269.161 161.5,261.5 Z"/></g>
<g><path style="opacity:0.988" fill="#fef1fe" d="M 226.5,318.5 C 225.134,321.232 223.801,323.899 222.5,326.5C 216.176,320.342 208.509,316.842 199.5,316C 193.509,315.501 187.509,315.334 181.5,315.5C 182.319,313.228 182.985,310.894 183.5,308.5C 199.641,304.304 213.974,307.638 226.5,318.5 Z"/></g>
<g><path style="opacity:1" fill="#30e5af" d="M 181.5,315.5 C 187.509,315.334 193.509,315.501 199.5,316C 208.509,316.842 216.176,320.342 222.5,326.5C 222.107,328.284 221.441,329.95 220.5,331.5C 208.098,324.735 194.765,321.735 180.5,322.5C 180.674,320.139 181.007,317.806 181.5,315.5 Z"/></g>
<g><path style="opacity:0.979" fill="#fef2fe" d="M 180.5,322.5 C 194.765,321.735 208.098,324.735 220.5,331.5C 216.537,341.742 212.204,351.742 207.5,361.5C 205.967,360.569 204.3,359.902 202.5,359.5C 199.281,360.693 196.114,362.026 193,363.5C 190.177,362.017 187.343,360.517 184.5,359C 181.779,358.398 179.113,358.565 176.5,359.5C 176.79,347.007 178.123,334.674 180.5,322.5 Z"/></g>
<g><path style="opacity:0.985" fill="#fe83df" d="M 164.5,341.5 C 164.071,350.671 162.571,359.671 160,368.5C 153.568,386.636 147.068,404.636 140.5,422.5C 134.412,419.459 128.079,416.959 121.5,415C 114.783,414.244 108.117,414.411 101.5,415.5C 104.464,394.218 108.13,373.052 112.5,352C 112.257,351.098 111.923,350.265 111.5,349.5C 129.783,350.442 147.449,347.775 164.5,341.5 Z"/></g>
<g><path style="opacity:0.998" fill="#57107f" d="M 207.5,361.5 C 207.758,365.44 208.924,369.107 211,372.5C 217.333,377.5 223.667,382.5 230,387.5C 232.05,390.148 233.216,393.148 233.5,396.5C 227.111,394.128 220.445,392.962 213.5,393C 209.5,390.333 205.5,387.667 201.5,385C 196.845,385.164 192.179,385.164 187.5,385C 186,384.167 184.833,383 184,381.5C 182.562,375.581 179.062,371.581 173.5,369.5C 174.492,366.177 175.492,362.844 176.5,359.5C 179.113,358.565 181.779,358.398 184.5,359C 187.343,360.517 190.177,362.017 193,363.5C 196.114,362.026 199.281,360.693 202.5,359.5C 204.3,359.902 205.967,360.569 207.5,361.5 Z"/></g>
<g><path style="opacity:0.997" fill="#0d8042" d="M 173.5,369.5 C 179.062,371.581 182.562,375.581 184,381.5C 184.833,383 186,384.167 187.5,385C 192.179,385.164 196.845,385.164 201.5,385C 205.5,387.667 209.5,390.333 213.5,393C 220.445,392.962 227.111,394.128 233.5,396.5C 236.907,399.135 237.24,402.135 234.5,405.5C 211.987,398.551 189.654,391.218 167.5,383.5C 169.33,378.65 171.33,373.984 173.5,369.5 Z"/></g>
<g><path style="opacity:0.986" fill="#fff2fe" d="M 140.5,422.5 C 140.149,425.903 139.482,429.237 138.5,432.5C 126.244,425.85 113.244,423.85 99.5,426.5C 99.6587,422.709 100.325,419.042 101.5,415.5C 108.117,414.411 114.783,414.244 121.5,415C 128.079,416.959 134.412,419.459 140.5,422.5 Z"/></g>
<g><path style="opacity:1" fill="#22e4ad" d="M 138.5,432.5 C 137.833,434.5 137.167,436.5 136.5,438.5C 124.453,431.889 111.786,430.222 98.5,433.5C 98.298,431.05 98.6314,428.717 99.5,426.5C 113.244,423.85 126.244,425.85 138.5,432.5 Z"/></g>
<g><path style="opacity:0.981" fill="#fef2fe" d="M 136.5,438.5 C 133.697,448.908 130.697,459.241 127.5,469.5C 121.528,469.157 116.195,470.824 111.5,474.5C 108.978,472.144 106.312,469.977 103.5,468C 100.445,467.366 97.4453,467.532 94.5,468.5C 95.2516,456.631 96.585,444.964 98.5,433.5C 111.786,430.222 124.453,431.889 136.5,438.5 Z"/></g>
<g><path style="opacity:0.999" fill="#57117e" d="M 127.5,469.5 C 130.117,472.147 133.117,474.314 136.5,476C 144.109,478.486 151.776,480.819 159.5,483C 161.388,484.394 163.388,485.56 165.5,486.5C 154.81,492.976 143.81,493.643 132.5,488.5C 127.416,490.473 122.249,492.139 117,493.5C 115.833,493.333 114.667,493.167 113.5,493C 108.333,484.914 100.999,480.081 91.5,478.5C 92.8991,475.301 93.8991,471.968 94.5,468.5C 97.4453,467.532 100.445,467.366 103.5,468C 106.312,469.977 108.978,472.144 111.5,474.5C 116.195,470.824 121.528,469.157 127.5,469.5 Z"/></g>
<g><path style="opacity:0.995" fill="#078340" d="M 91.5,478.5 C 100.999,480.081 108.333,484.914 113.5,493C 114.667,493.167 115.833,493.333 117,493.5C 122.249,492.139 127.416,490.473 132.5,488.5C 143.81,493.643 154.81,492.976 165.5,486.5C 170.768,487.685 173.102,491.019 172.5,496.5C 143.907,497.491 115.24,497.825 86.5,497.5C 88.0108,491.123 89.6774,484.79 91.5,478.5 Z"/></g>
<g><path style="opacity:0.937" fill="#146c4d" d="M 172.5,496.5 C 158.349,497.833 143.849,498.499 129,498.5C 114.093,498.508 99.9267,498.175 86.5,497.5C 115.24,497.825 143.907,497.491 172.5,496.5 Z"/></g>
</svg>
