<?xml version="1.0" encoding="UTF-8"?>
<!DOCTYPE svg PUBLIC "-//W3C//DTD SVG 1.1//EN" "http://www.w3.org/Graphics/SVG/1.1/DTD/svg11.dtd">
<svg xmlns="http://www.w3.org/2000/svg" version="1.1" width="300px" height="292px" style="shape-rendering:geometricPrecision; text-rendering:geometricPrecision; image-rendering:optimizeQuality; fill-rule:evenodd; clip-rule:evenodd" xmlns:xlink="http://www.w3.org/1999/xlink">
<g><path style="opacity:0.004" fill="#fefffe" d="M 179.5,-0.5 C 179.833,-0.5 180.167,-0.5 180.5,-0.5C 180.315,0.170143 179.981,0.170143 179.5,-0.5 Z"/></g>
<g><path style="opacity:0.004" fill="#fefffe" d="M 143.5,0.5 C 144.833,1.16667 144.833,1.16667 143.5,0.5 Z"/></g>
<g><path style="opacity:0.004" fill="#fefffe" d="M 119.5,1.5 C 120.833,2.16667 120.833,2.16667 119.5,1.5 Z"/></g>
<g><path style="opacity:0.004" fill="#fefffe" d="M 164.5,2.5 C 165.833,3.16667 165.833,3.16667 164.5,2.5 Z"/></g>
<g><path style="opacity:0.004" fill="#fefffe" d="M 254.5,2.5 C 255.833,3.16667 255.833,3.16667 254.5,2.5 Z"/></g>
<g><path style="opacity:0.004" fill="#fefffe" d="M 2.5,9.5 C 3.83333,10.1667 3.83333,10.1667 2.5,9.5 Z"/></g>
<g><path style="opacity:0.004" fill="#fefffe" d="M 107.5,11.5 C 108.833,12.1667 108.833,12.1667 107.5,11.5 Z"/></g>
<g><path style="opacity:0.004" fill="#fefffe" d="M 293.5,15.5 C 294.833,16.1667 294.833,16.1667 293.5,15.5 Z"/></g>
<g><path style="opacity:0.004" fill="#fefffe" d="M 5.5,19.5 C 6.83333,20.1667 6.83333,20.1667 5.5,19.5 Z"/></g>
<g><path style="opacity:0.004" fill="#fefffe" d="M 92.5,21.5 C 93.8333,22.1667 93.8333,22.1667 92.5,21.5 Z"/></g>
<g><path style="opacity:0.004" fill="#fefffe" d="M 101.5,27.5 C 102.833,28.1667 102.833,28.1667 101.5,27.5 Z"/></g>
<g><path style="opacity:0.004" fill="#fefffe" d="M 107.5,40.5 C 108.833,41.1667 108.833,41.1667 107.5,40.5 Z"/></g>
<g><path style="opacity:0.004" fill="#fefffe" d="M 83.5,48.5 C 84.8333,49.1667 84.8333,49.1667 83.5,48.5 Z"/></g>
<g><path style="opacity:0.004" fill="#fefffe" d="M 227.5,49.5 C 228.833,50.1667 228.833,50.1667 227.5,49.5 Z"/></g>
<g><path style="opacity:0.004" fill="#fefffe" d="M 254.5,56.5 C 255.833,57.1667 255.833,57.1667 254.5,56.5 Z"/></g>
<g><path style="opacity:0.004" fill="#fefffe" d="M 14.5,58.5 C 15.8333,59.1667 15.8333,59.1667 14.5,58.5 Z"/></g>
<g><path style="opacity:0.004" fill="#fefffe" d="M 143.5,59.5 C 144.833,60.1667 144.833,60.1667 143.5,59.5 Z"/></g>
<g><path style="opacity:0.004" fill="#fefffe" d="M 188.5,61.5 C 189.833,62.1667 189.833,62.1667 188.5,61.5 Z"/></g>
<g><path style="opacity:0.004" fill="#fefffe" d="M 221.5,61.5 C 222.833,62.1667 222.833,62.1667 221.5,61.5 Z"/></g>
<g><path style="opacity:0.004" fill="#fefffe" d="M 206.5,66.5 C 207.833,67.1667 207.833,67.1667 206.5,66.5 Z"/></g>
<g><path style="opacity:0.004" fill="#fefffe" d="M 236.5,68.5 C 237.833,69.1667 237.833,69.1667 236.5,68.5 Z"/></g>
<g><path style="opacity:0.004" fill="#fefffe" d="M 146.5,70.5 C 147.833,71.1667 147.833,71.1667 146.5,70.5 Z"/></g>
<g><path style="opacity:0.004" fill="#fefffe" d="M 188.5,75.5 C 189.833,76.1667 189.833,76.1667 188.5,75.5 Z"/></g>
<g><path style="opacity:0.004" fill="#fefffe" d="M 218.5,84.5 C 219.833,85.1667 219.833,85.1667 218.5,84.5 Z"/></g>
<g><path style="opacity:0.004" fill="#fefffe" d="M 200.5,85.5 C 201.833,86.1667 201.833,86.1667 200.5,85.5 Z"/></g>
<g><path style="opacity:1" fill="#eee1d4" d="M 64.5,87.5 C 122.501,87.3333 180.501,87.5 238.5,88C 244.632,88.7671 250.298,90.6004 255.5,93.5C 252.333,93.5999 249.333,92.9332 246.5,91.5C 244.88,94.0578 243.38,94.0578 242,91.5C 241.667,91.8333 241.333,92.1667 241,92.5C 240.517,91.552 240.351,90.552 240.5,89.5C 197.65,89.8517 154.65,90.1851 111.5,90.5C 100.833,90.1667 90.1667,89.8333 79.5,89.5C 74.3489,88.8332 69.3489,88.1665 64.5,87.5 Z"/></g>
<g><path style="opacity:1" fill="#eeddcb" d="M 64.5,87.5 C 69.3489,88.1665 74.3489,88.8332 79.5,89.5C 90.1667,89.8333 100.833,90.1667 111.5,90.5C 154.65,90.1851 197.65,89.8517 240.5,89.5C 240.351,90.552 240.517,91.552 241,92.5C 241.333,92.1667 241.667,91.8333 242,91.5C 243.38,94.0578 244.88,94.0578 246.5,91.5C 249.333,92.9332 252.333,93.5999 255.5,93.5C 274.885,102.401 286.718,117.401 291,138.5C 294.202,164.929 285.035,185.763 263.5,201C 258.475,204.015 253.142,206.182 247.5,207.5C 237.01,208.229 226.51,208.895 216,209.5C 209.887,209.413 203.887,208.747 198,207.5C 196.667,207.5 195.333,207.5 194,207.5C 193.5,208 193,208.5 192.5,209C 148.835,209.5 105.168,209.667 61.5,209.5C 28.2924,203.116 10.2924,182.95 7.5,149C 10.8001,113.869 29.8001,93.369 64.5,87.5 Z"/></g>
<g><path style="opacity:0.004" fill="#fefffe" d="M 17.5,93.5 C 18.8333,94.1667 18.8333,94.1667 17.5,93.5 Z"/></g>
<g><path style="opacity:0.004" fill="#fefffe" d="M 287.5,119.5 C 288.833,120.167 288.833,120.167 287.5,119.5 Z"/></g>
<g><path style="opacity:0.004" fill="#fefffe" d="M 5.5,121.5 C 6.83333,122.167 6.83333,122.167 5.5,121.5 Z"/></g>
<g><path style="opacity:1" fill="#46423c" d="M 95.5,125.5 C 98.5719,125.183 101.572,125.516 104.5,126.5C 110.167,141.167 115.833,155.833 121.5,170.5C 118.167,171.833 114.833,171.833 111.5,170.5C 110.593,167.943 109.593,165.443 108.5,163C 102.804,162.17 97.1375,162.337 91.5,163.5C 90.5933,166.057 89.5933,168.557 88.5,171C 85.1667,171.667 81.8333,171.667 78.5,171C 84.6601,156.02 90.3268,140.853 95.5,125.5 Z"/></g>
<g><path style="opacity:1" fill="#e7d9c7" d="M 99.5,138.5 C 102.464,143.382 104.464,148.715 105.5,154.5C 101.774,154.823 98.1073,154.489 94.5,153.5C 96.3721,148.55 98.0387,143.55 99.5,138.5 Z"/></g>
<g><path style="opacity:1" fill="#48433b" d="M 195.5,125.5 C 206.876,124.216 213.209,129.216 214.5,140.5C 212.5,140.5 210.5,140.5 208.5,140.5C 207.936,131.697 203.269,128.531 194.5,131C 189.223,134.371 186.057,139.204 185,145.5C 184.333,150.5 184.333,155.5 185,160.5C 188.315,167.869 193.482,169.369 200.5,165C 203.024,163.117 204.358,160.617 204.5,157.5C 206.5,157.5 208.5,157.5 210.5,157.5C 207.2,169.158 199.533,173.658 187.5,171C 180.563,167.127 177.563,161.127 178.5,153C 178.282,139.892 183.948,130.726 195.5,125.5 Z"/></g>
<g><path style="opacity:1" fill="#49443d" d="M 133.5,125.5 C 139.842,125.334 146.175,125.5 152.5,126C 161.451,128.061 164.618,133.561 162,142.5C 160.315,144.017 158.815,145.684 157.5,147.5C 164.937,152.36 166.437,158.693 162,166.5C 160.421,168.041 158.587,169.208 156.5,170C 148.905,171.356 141.238,171.856 133.5,171.5C 133.5,156.167 133.5,140.833 133.5,125.5 Z"/></g>
<g><path style="opacity:1" fill="#ebdccb" d="M 139.5,150.5 C 144.179,150.334 148.845,150.501 153.5,151C 158.143,153.072 159.643,156.572 158,161.5C 157.052,163.57 155.552,165.07 153.5,166C 148.845,166.499 144.179,166.666 139.5,166.5C 139.5,161.167 139.5,155.833 139.5,150.5 Z"/></g>
<g><path style="opacity:1" fill="#ecdcca" d="M 139.5,130.5 C 143.846,130.334 148.179,130.501 152.5,131C 157.785,135.496 157.785,140.163 152.5,145C 148.179,145.499 143.846,145.666 139.5,145.5C 139.5,140.5 139.5,135.5 139.5,130.5 Z"/></g>
<g><path style="opacity:0.004" fill="#fefffe" d="M 8.5,199.5 C 9.83333,200.167 9.83333,200.167 8.5,199.5 Z"/></g>
<g><path style="opacity:0.004" fill="#fefffe" d="M 11.5,202.5 C 12.8333,203.167 12.8333,203.167 11.5,202.5 Z"/></g>
<g><path style="opacity:0.602" fill="#e5d9cd" d="M 247.5,207.5 C 244.742,208.761 241.742,209.594 238.5,210C 179.332,210.832 120.332,210.665 61.5,209.5C 105.168,209.667 148.835,209.5 192.5,209C 193,208.5 193.5,208 194,207.5C 195.333,207.5 196.667,207.5 198,207.5C 203.887,208.747 209.887,209.413 216,209.5C 226.51,208.895 237.01,208.229 247.5,207.5 Z"/></g>
<g><path style="opacity:0.004" fill="#fefffe" d="M 251.5,226.5 C 252.833,227.167 252.833,227.167 251.5,226.5 Z"/></g>
<g><path style="opacity:0.004" fill="#fefffe" d="M 26.5,230.5 C 27.8333,231.167 27.8333,231.167 26.5,230.5 Z"/></g>
<g><path style="opacity:0.004" fill="#fefffe" d="M 35.5,233.5 C 36.8333,234.167 36.8333,234.167 35.5,233.5 Z"/></g>
<g><path style="opacity:0.004" fill="#fefffe" d="M 95.5,236.5 C 96.8333,237.167 96.8333,237.167 95.5,236.5 Z"/></g>
<g><path style="opacity:0.004" fill="#fefffe" d="M 266.5,240.5 C 267.833,241.167 267.833,241.167 266.5,240.5 Z"/></g>
<g><path style="opacity:0.004" fill="#fefffe" d="M 275.5,240.5 C 276.833,241.167 276.833,241.167 275.5,240.5 Z"/></g>
<g><path style="opacity:0.004" fill="#fefffe" d="M 134.5,243.5 C 135.833,244.167 135.833,244.167 134.5,243.5 Z"/></g>
<g><path style="opacity:0.004" fill="#fefffe" d="M 278.5,254.5 C 279.833,255.167 279.833,255.167 278.5,254.5 Z"/></g>
<g><path style="opacity:0.004" fill="#feff00" d="M -0.5,255.5 C 0.833333,256.167 0.833333,256.167 -0.5,255.5 Z"/></g>
<g><path style="opacity:0.004" fill="#fefffe" d="M 188.5,259.5 C 189.833,260.167 189.833,260.167 188.5,259.5 Z"/></g>
<g><path style="opacity:0.004" fill="#fefffe" d="M 296.5,262.5 C 297.833,263.167 297.833,263.167 296.5,262.5 Z"/></g>
<g><path style="opacity:0.004" fill="#fefffe" d="M 65.5,265.5 C 66.8333,266.167 66.8333,266.167 65.5,265.5 Z"/></g>
<g><path style="opacity:0.004" fill="#fefffe" d="M 101.5,265.5 C 102.833,266.167 102.833,266.167 101.5,265.5 Z"/></g>
<g><path style="opacity:0.004" fill="#fefffe" d="M 281.5,265.5 C 282.833,266.167 282.833,266.167 281.5,265.5 Z"/></g>
<g><path style="opacity:0.004" fill="#fefffe" d="M 134.5,272.5 C 135.833,273.167 135.833,273.167 134.5,272.5 Z"/></g>
<g><path style="opacity:0.004" fill="#fefffe" d="M 287.5,274.5 C 288.833,275.167 288.833,275.167 287.5,274.5 Z"/></g>
<g><path style="opacity:0.004" fill="#fefffe" d="M 56.5,276.5 C 57.8333,277.167 57.8333,277.167 56.5,276.5 Z"/></g>
<g><path style="opacity:0.004" fill="#fefffe" d="M 164.5,280.5 C 165.833,281.167 165.833,281.167 164.5,280.5 Z"/></g>
<g><path style="opacity:0.004" fill="#fefffe" d="M 200.5,286.5 C 201.833,287.167 201.833,287.167 200.5,286.5 Z"/></g>
<g><path style="opacity:0.004" fill="#fefffe" d="M 15.5,291.5 C 14.8333,290.167 14.8333,290.167 15.5,291.5 Z"/></g>
</svg>
