<?xml version="1.0" encoding="UTF-8"?>
<!DOCTYPE svg PUBLIC "-//W3C//DTD SVG 1.1//EN" "http://www.w3.org/Graphics/SVG/1.1/DTD/svg11.dtd">
<svg xmlns="http://www.w3.org/2000/svg" version="1.1" width="202px" height="102px" style="shape-rendering:geometricPrecision; text-rendering:geometricPrecision; image-rendering:optimizeQuality; fill-rule:evenodd; clip-rule:evenodd" xmlns:xlink="http://www.w3.org/1999/xlink">
<g><path style="opacity:1" fill="#fefefe" d="M -0.5,-0.5 C 66.8333,-0.5 134.167,-0.5 201.5,-0.5C 201.5,33.5 201.5,67.5 201.5,101.5C 134.167,101.5 66.8333,101.5 -0.5,101.5C -0.5,67.5 -0.5,33.5 -0.5,-0.5 Z"/></g>
<g><path style="opacity:1" fill="#080808" d="M 150.5,24.5 C 156.245,24.2111 161.912,24.7111 167.5,26C 176.011,28.75 176.511,32.25 169,36.5C 158.195,29.6925 149.528,31.6925 143,42.5C 140.742,51.3942 142.908,58.8942 149.5,65C 156.453,67.5202 162.953,66.6868 169,62.5C 175.066,64.7776 175.566,67.6109 170.5,71C 162.447,74.8039 154.114,75.4706 145.5,73C 136.223,67.7849 131.889,59.7849 132.5,49C 132.608,36.4055 138.608,28.2388 150.5,24.5 Z"/></g>
<g><path style="opacity:1" fill="#070707" d="M 30.5,24.5 C 34.1064,24.2108 37.6064,24.5442 41,25.5C 47.4716,41.7522 53.6383,58.0856 59.5,74.5C 56.4816,74.6646 53.4816,74.498 50.5,74C 48.8333,70.3333 47.1667,66.6667 45.5,63C 38.8085,62.1691 32.1418,62.3358 25.5,63.5C 24.1119,67.181 22.4453,70.681 20.5,74C 17.4459,74.8214 14.4459,74.6548 11.5,73.5C 18.1239,57.2567 24.4572,40.9234 30.5,24.5 Z"/></g>
<g><path style="opacity:1" fill="#343434" d="M 99.5,25.5 C 92.5,25.5 85.5,25.5 78.5,25.5C 78.5,41.8333 78.5,58.1667 78.5,74.5C 77.5035,58.0084 77.1702,41.3417 77.5,24.5C 85.0191,24.175 92.3524,24.5084 99.5,25.5 Z"/></g>
<g><path style="opacity:1" fill="#050505" d="M 99.5,25.5 C 111.045,26.5269 115.212,32.5269 112,43.5C 110.127,45.7089 107.96,47.5422 105.5,49C 114.373,51.9496 116.873,57.7829 113,66.5C 110.445,70.8667 106.612,73.3667 101.5,74C 93.8406,74.4997 86.1739,74.6664 78.5,74.5C 78.5,58.1667 78.5,41.8333 78.5,25.5C 85.5,25.5 92.5,25.5 99.5,25.5 Z"/></g>
<g><path style="opacity:1" fill="#f3f3f3" d="M 87.5,32.5 C 91.5138,32.3345 95.5138,32.5012 99.5,33C 103.292,35.0527 104.458,38.2194 103,42.5C 98.4905,46.0782 93.3238,47.4116 87.5,46.5C 87.5,41.8333 87.5,37.1667 87.5,32.5 Z"/></g>
<g><path style="opacity:1" fill="#f0f0f0" d="M 35.5,35.5 C 38.6022,41.8024 40.9356,48.4691 42.5,55.5C 37.7863,55.8266 33.1196,55.4933 28.5,54.5C 30.6451,48.0612 32.9785,41.7279 35.5,35.5 Z"/></g>
<g><path style="opacity:1" fill="#f7f7f7" d="M 87.5,52.5 C 92.248,52.2748 96.9147,52.7748 101.5,54C 103.815,55.2957 104.815,57.2957 104.5,60C 104.775,63.0603 103.442,65.0603 100.5,66C 96.1794,66.499 91.8461,66.6657 87.5,66.5C 87.5,61.8333 87.5,57.1667 87.5,52.5 Z"/></g>
</svg>
