<?xml version="1.0" encoding="UTF-8"?>
<!DOCTYPE svg PUBLIC "-//W3C//DTD SVG 1.1//EN" "http://www.w3.org/Graphics/SVG/1.1/DTD/svg11.dtd">
<svg xmlns="http://www.w3.org/2000/svg" version="1.1" width="394px" height="344px" style="shape-rendering:geometricPrecision; text-rendering:geometricPrecision; image-rendering:optimizeQuality; fill-rule:evenodd; clip-rule:evenodd" xmlns:xlink="http://www.w3.org/1999/xlink">
<g><path style="opacity:0.004" fill="#fefffe" d="M 17.5,1.5 C 18.8333,2.16667 18.8333,2.16667 17.5,1.5 Z"/></g>
<g><path style="opacity:0.999" fill="#f4fafe" d="M 355.5,214.5 C 352.612,213.99 350.279,214.656 348.5,216.5C 346.227,216.106 344.06,216.106 342,216.5C 341.583,215.244 340.75,214.577 339.5,214.5C 321.5,214.5 303.5,214.5 285.5,214.5C 285.667,172.165 285.5,129.832 285,87.5C 284.332,83.5013 282.165,80.668 278.5,79C 272.593,77.6392 266.593,77.1392 260.5,77.5C 260.5,84.1667 260.5,90.8333 260.5,97.5C 214.499,97.3333 168.499,97.5 122.5,98C 112.649,99.5157 106.149,105.016 103,114.5C 102.5,147.832 102.333,181.165 102.5,214.5C 85.1667,214.5 67.8333,214.5 50.5,214.5C 49.7387,215.391 48.7387,216.058 47.5,216.5C 45.8653,215.954 44.1986,215.62 42.5,215.5C 40.059,214.244 37.7257,214.244 35.5,215.5C 20.4116,151.27 36.4116,96.1034 83.5,50C 138.646,3.53307 199.646,-5.80027 266.5,22C 326.726,53.7606 358.393,103.761 361.5,172C 360.685,184.861 359.518,197.694 358,210.5C 357.392,212.066 356.558,213.4 355.5,214.5 Z"/></g>
<g><path style="opacity:0.004" fill="#fefffe" d="M 364.5,12.5 C 365.833,13.1667 365.833,13.1667 364.5,12.5 Z"/></g>
<g><path style="opacity:0.004" fill="#fefffe" d="M 283.5,13.5 C 284.833,14.1667 284.833,14.1667 283.5,13.5 Z"/></g>
<g><path style="opacity:0.004" fill="#fefffe" d="M 350.5,16.5 C 351.833,17.1667 351.833,17.1667 350.5,16.5 Z"/></g>
<g><path style="opacity:0.004" fill="#fefffe" d="M 373.5,16.5 C 374.833,17.1667 374.833,17.1667 373.5,16.5 Z"/></g>
<g><path style="opacity:0.004" fill="#fefffe" d="M 101.5,22.5 C 102.833,23.1667 102.833,23.1667 101.5,22.5 Z"/></g>
<g><path style="opacity:0.004" fill="#fefffe" d="M 342.5,26.5 C 343.833,27.1667 343.833,27.1667 342.5,26.5 Z"/></g>
<g><path style="opacity:0.004" fill="#fefffe" d="M 66.5,45.5 C 67.525,45.8966 67.6917,46.5632 67,47.5C 66.5357,46.9056 66.369,46.2389 66.5,45.5 Z"/></g>
<g><path style="opacity:0.004" fill="#fefffe" d="M 307.5,47.5 C 308.833,48.1667 308.833,48.1667 307.5,47.5 Z"/></g>
<g><path style="opacity:0.004" fill="#fefffe" d="M 332.5,52.5 C 333.833,53.1667 333.833,53.1667 332.5,52.5 Z"/></g>
<g><path style="opacity:0.004" fill="#fefffe" d="M 2.5,54.5 C 3.83333,55.1667 3.83333,55.1667 2.5,54.5 Z"/></g>
<g><path style="opacity:0.004" fill="#fefffe" d="M 62.5,55.5 C 63.8333,56.1667 63.8333,56.1667 62.5,55.5 Z"/></g>
<g><path style="opacity:1" fill="#6e68de" d="M 279.5,56.5 C 280.5,56.5 281.5,56.5 282.5,56.5C 282.296,59.5176 281.963,62.5176 281.5,65.5C 280.5,65.5 279.5,65.5 278.5,65.5C 278.368,62.4299 278.701,59.4299 279.5,56.5 Z"/></g>
<g><path style="opacity:0.004" fill="#fefffe" d="M 326.5,60.5 C 327.833,61.1667 327.833,61.1667 326.5,60.5 Z"/></g>
<g><path style="opacity:0.004" fill="#fefffe" d="M 387.5,61.5 C 388.833,62.1667 388.833,62.1667 387.5,61.5 Z"/></g>
<g><path style="opacity:1" fill="#6e6ae3" d="M 259.5,61.5 C 263.159,62.3146 265.826,64.4813 267.5,68C 266.289,69.5778 264.955,69.7445 263.5,68.5C 261.266,66.6187 259.933,64.2853 259.5,61.5 Z"/></g>
<g><path style="opacity:1" fill="#706be5" d="M 296.5,66.5 C 297.5,66.5 298.5,66.5 299.5,66.5C 298.599,70.6479 295.932,72.9813 291.5,73.5C 291.351,72.448 291.517,71.448 292,70.5C 293.992,69.6719 295.492,68.3386 296.5,66.5 Z"/></g>
<g><path style="opacity:1" fill="#7773df" d="M 294.5,85.5 C 297.518,85.7038 300.518,86.0371 303.5,86.5C 303.5,87.8333 303.5,89.1667 303.5,90.5C 300.834,90.067 298.168,89.567 295.5,89C 294.663,87.9887 294.33,86.8221 294.5,85.5 Z"/></g>
<g><path style="opacity:1" fill="#7070e7" d="M 285.5,214.5 C 284.667,173.002 284.167,131.335 284,89.5C 283.667,88.5 283.333,87.5 283,86.5C 282.974,90.1083 282.141,93.4417 280.5,96.5C 281.823,119.019 282.49,141.686 282.5,164.5C 282.5,187.003 282.167,209.336 281.5,231.5C 281.667,187.165 281.5,142.832 281,98.5C 279.352,99.717 277.519,100.55 275.5,101C 223.5,101.333 171.5,101.667 119.5,102C 105.953,108.735 102.786,118.901 110,132.5C 113.154,135.512 116.654,137.845 120.5,139.5C 119.127,139.343 117.793,139.51 116.5,140C 117.056,140.383 117.389,140.883 117.5,141.5C 113.108,140.641 109.775,138.307 107.5,134.5C 107.158,133.662 106.492,133.328 105.5,133.5C 106.666,131.834 106.666,130.167 105.5,128.5C 104.914,128.709 104.414,129.043 104,129.5C 103.333,156.167 103.333,182.833 104,209.5C 104.168,184.33 104.668,159.33 105.5,134.5C 105.168,178.67 105.501,222.67 106.5,266.5C 108.548,272.782 112.548,277.282 118.5,280C 123.489,280.499 128.489,280.666 133.5,280.5C 128.349,281.327 123.016,281.827 117.5,282C 118.056,282.383 118.389,282.883 118.5,283.5C 110.555,281.388 105.388,276.388 103,268.5C 102.5,251.837 102.333,235.17 102.5,218.5C 103.331,233.661 103.831,248.995 104,264.5C 104.667,247.833 104.667,231.167 104,214.5C 103.617,215.056 103.117,215.389 102.5,215.5C 102.5,215.167 102.5,214.833 102.5,214.5C 102.333,181.165 102.5,147.832 103,114.5C 106.149,105.016 112.649,99.5157 122.5,98C 168.499,97.5 214.499,97.3333 260.5,97.5C 260.5,90.8333 260.5,84.1667 260.5,77.5C 266.593,77.1392 272.593,77.6392 278.5,79C 282.165,80.668 284.332,83.5013 285,87.5C 285.5,129.832 285.667,172.165 285.5,214.5 Z"/></g>
<g><path style="opacity:1" fill="#5f5df7" d="M 264.5,97.5 C 264.611,98.1174 264.944,98.6174 265.5,99C 268.5,99.3333 271.5,99.6667 274.5,100C 223.5,100.667 172.5,100.667 121.5,100C 167.833,99.6667 214.167,99.3333 260.5,99C 261.745,98.2086 263.078,97.7086 264.5,97.5 Z"/></g>
<g><path style="opacity:1" fill="#d0eafd" d="M 264.5,97.5 C 264.5,92.1667 264.5,86.8333 264.5,81.5C 269.297,81.1211 273.964,81.6211 278.5,83C 283.119,88.6106 282.452,93.2773 276.5,97C 272.514,97.4988 268.514,97.6655 264.5,97.5 Z"/></g>
<g><path style="opacity:1" fill="#fefefe" d="M 281.5,231.5 C 280.909,234.614 279.242,237.114 276.5,239C 229.835,239.5 183.168,239.667 136.5,239.5C 136.5,206.167 136.5,172.833 136.5,139.5C 131.833,139.5 127.167,139.5 122.5,139.5C 121.833,139.5 121.167,139.5 120.5,139.5C 116.654,137.845 113.154,135.512 110,132.5C 102.786,118.901 105.953,108.735 119.5,102C 171.5,101.667 223.5,101.333 275.5,101C 277.519,100.55 279.352,99.717 281,98.5C 281.5,142.832 281.667,187.165 281.5,231.5 Z"/></g>
<g><path style="opacity:0.004" fill="#feff00" d="M 360.5,121.5 C 361.833,122.167 361.833,122.167 360.5,121.5 Z"/></g>
<g><path style="opacity:0.004" fill="#fefffe" d="M 381.5,124.5 C 382.833,125.167 382.833,125.167 381.5,124.5 Z"/></g>
<g><path style="opacity:0.004" fill="#fefffe" d="M 385.5,134.5 C 386.833,135.167 386.833,135.167 385.5,134.5 Z"/></g>
<g><path style="opacity:0.004" fill="#fefffe" d="M 2.5,136.5 C 3.83333,137.167 3.83333,137.167 2.5,136.5 Z"/></g>
<g><path style="opacity:1" fill="#6f6ddf" d="M 201.5,136.5 C 196.13,136.392 190.797,136.725 185.5,137.5C 188.356,135.994 191.523,135.328 195,135.5C 197.361,135.504 199.527,135.837 201.5,136.5 Z"/></g>
<g><path style="opacity:1" fill="#e9f7fe" d="M 107.5,134.5 C 109.775,138.307 113.108,140.641 117.5,141.5C 122.692,142.966 128.025,143.633 133.5,143.5C 133.5,189.167 133.5,234.833 133.5,280.5C 128.489,280.666 123.489,280.499 118.5,280C 112.548,277.282 108.548,272.782 106.5,266.5C 106.168,222.33 106.501,178.33 107.5,134.5 Z"/></g>
<g><path style="opacity:1" fill="#5d5df6" d="M 105.5,133.5 C 105.5,133.833 105.5,134.167 105.5,134.5C 104.668,159.33 104.168,184.33 104,209.5C 103.333,182.833 103.333,156.167 104,129.5C 104.414,129.043 104.914,128.709 105.5,128.5C 106.666,130.167 106.666,131.834 105.5,133.5 Z"/></g>
<g><path style="opacity:1" fill="#c4cefe" d="M 105.5,133.5 C 106.492,133.328 107.158,133.662 107.5,134.5C 106.501,178.33 106.168,222.33 106.5,266.5C 105.501,222.67 105.168,178.67 105.5,134.5C 105.5,134.167 105.5,133.833 105.5,133.5 Z"/></g>
<g><path style="opacity:0.004" fill="#fefffe" d="M 17.5,158.5 C 18.8333,159.167 18.8333,159.167 17.5,158.5 Z"/></g>
<g><path style="opacity:0.004" fill="#fefffe" d="M 21.5,160.5 C 22.8333,161.167 22.8333,161.167 21.5,160.5 Z"/></g>
<g><path style="opacity:1" fill="#7861eb" d="M 201.5,136.5 C 216.504,141.848 221.337,152.181 216,167.5C 210.668,179.51 203.835,190.51 195.5,200.5C 185.707,189.255 178.207,176.588 173,162.5C 171.201,151.145 175.368,142.811 185.5,137.5C 190.797,136.725 196.13,136.392 201.5,136.5 Z"/></g>
<g><path style="opacity:0.004" fill="#fefffe" d="M 16.5,202.5 C 17.8333,203.167 17.8333,203.167 16.5,202.5 Z"/></g>
<g><path style="opacity:1" fill="#8c8ee1" d="M 355.5,214.5 C 355.768,216.099 355.434,217.432 354.5,218.5C 351.918,218.975 349.918,218.308 348.5,216.5C 350.279,214.656 352.612,213.99 355.5,214.5 Z"/></g>
<g><path style="opacity:1" fill="#635ee4" d="M 349.5,215.5 C 351.288,215.215 352.955,215.548 354.5,216.5C 353.667,216.833 352.833,217.167 352,217.5C 350.624,217.316 349.791,216.649 349.5,215.5 Z"/></g>
<g><path style="opacity:1" fill="#7777ce" d="M 42.5,215.5 C 42.5858,216.496 42.2524,217.329 41.5,218C 39.8659,218.494 38.1992,218.66 36.5,218.5C 35.596,217.791 35.2627,216.791 35.5,215.5C 37.7257,214.244 40.059,214.244 42.5,215.5 Z"/></g>
<g><path style="opacity:0.999" fill="#e9f7fe" d="M 50.5,214.5 C 50.5,215.833 50.5,217.167 50.5,218.5C 67.8333,218.5 85.1667,218.5 102.5,218.5C 102.333,235.17 102.5,251.837 103,268.5C 105.388,276.388 110.555,281.388 118.5,283.5C 118.833,283.5 119.167,283.5 119.5,283.5C 124.975,284.489 130.642,284.822 136.5,284.5C 137.494,274.013 137.828,263.346 137.5,252.5C 176.84,253.981 216.173,253.815 255.5,252C 267.225,250.743 278.892,249.076 290.5,247C 291.973,246.29 292.64,245.124 292.5,243.5C 289.91,243.604 287.577,242.937 285.5,241.5C 284.558,241.608 283.725,241.941 283,242.5C 282.722,241.584 282.222,240.918 281.5,240.5C 283.18,238.473 284.347,236.139 285,233.5C 285.499,228.511 285.666,223.511 285.5,218.5C 303.833,218.5 322.167,218.5 340.5,218.5C 340.737,217.209 340.404,216.209 339.5,215.5C 339.5,215.167 339.5,214.833 339.5,214.5C 340.75,214.577 341.583,215.244 342,216.5C 344.06,216.106 346.227,216.106 348.5,216.5C 349.918,218.308 351.918,218.975 354.5,218.5C 346.836,245.837 333.002,269.503 313,289.5C 258.486,339.401 196.653,350.901 127.5,324C 113.461,317.323 100.461,309.157 88.5,299.5C 63.1156,277.76 45.7823,250.76 36.5,218.5C 38.1992,218.66 39.8659,218.494 41.5,218C 42.2524,217.329 42.5858,216.496 42.5,215.5C 44.1986,215.62 45.8653,215.954 47.5,216.5C 48.7387,216.058 49.7387,215.391 50.5,214.5 Z"/></g>
<g><path style="opacity:1" fill="#8891e7" d="M 339.5,215.5 C 340.404,216.209 340.737,217.209 340.5,218.5C 322.167,218.5 303.833,218.5 285.5,218.5C 303.69,218.162 321.69,217.162 339.5,215.5 Z"/></g>
<g><path style="opacity:1" fill="#878de5" d="M 50.5,214.5 C 67.8333,214.5 85.1667,214.5 102.5,214.5C 102.5,214.833 102.5,215.167 102.5,215.5C 85.4869,215.167 68.4869,215.501 51.5,216.5C 68.6619,217.167 85.6619,217.833 102.5,218.5C 85.1667,218.5 67.8333,218.5 50.5,218.5C 50.5,217.167 50.5,215.833 50.5,214.5 Z"/></g>
<g><path style="opacity:1" fill="#605eee" d="M 102.5,218.5 C 85.6619,217.833 68.6619,217.167 51.5,216.5C 68.4869,215.501 85.4869,215.167 102.5,215.5C 103.117,215.389 103.617,215.056 104,214.5C 104.667,231.167 104.667,247.833 104,264.5C 103.831,248.995 103.331,233.661 102.5,218.5 Z"/></g>
<g><path style="opacity:0.004" fill="#fefffe" d="M 389.5,238.5 C 390.833,239.167 390.833,239.167 389.5,238.5 Z"/></g>
<g><path style="opacity:0.004" fill="#fefffe" d="M 2.5,239.5 C 3.83333,240.167 3.83333,240.167 2.5,239.5 Z"/></g>
<g><path style="opacity:1" fill="#6061ed" d="M 285.5,214.5 C 303.5,214.5 321.5,214.5 339.5,214.5C 339.5,214.833 339.5,215.167 339.5,215.5C 321.69,217.162 303.69,218.162 285.5,218.5C 285.666,223.511 285.499,228.511 285,233.5C 284.347,236.139 283.18,238.473 281.5,240.5C 280.609,241.11 279.609,241.443 278.5,241.5C 231.02,242.147 183.687,242.814 136.5,243.5C 135.504,256.656 135.171,269.99 135.5,283.5C 130.167,283.5 124.833,283.5 119.5,283.5C 119.167,283.5 118.833,283.5 118.5,283.5C 118.389,282.883 118.056,282.383 117.5,282C 123.016,281.827 128.349,281.327 133.5,280.5C 133.5,234.833 133.5,189.167 133.5,143.5C 128.025,143.633 122.692,142.966 117.5,141.5C 117.389,140.883 117.056,140.383 116.5,140C 117.793,139.51 119.127,139.343 120.5,139.5C 121.167,139.5 121.833,139.5 122.5,139.5C 126.634,140.485 130.968,140.818 135.5,140.5C 135.168,173.671 135.502,206.671 136.5,239.5C 183.168,239.667 229.835,239.5 276.5,239C 279.242,237.114 280.909,234.614 281.5,231.5C 282.167,209.336 282.5,187.003 282.5,164.5C 282.49,141.686 281.823,119.019 280.5,96.5C 282.141,93.4417 282.974,90.1083 283,86.5C 283.333,87.5 283.667,88.5 284,89.5C 284.167,131.335 284.667,173.002 285.5,214.5 Z"/></g>
<g><path style="opacity:1" fill="#d159bc" d="M 185.5,161.5 C 186.806,164.139 188.806,166.139 191.5,167.5C 192.609,168.29 193.942,168.79 195.5,169C 195.043,169.414 194.709,169.914 194.5,170.5C 195.489,171.468 196.156,172.635 196.5,174C 194.708,178.615 193.541,183.448 193,188.5C 192.329,187.748 191.496,187.414 190.5,187.5C 187.916,183.067 185.082,178.734 182,174.5C 181.616,171.94 180.783,169.606 179.5,167.5C 181.532,168.048 182.532,169.381 182.5,171.5C 185.114,171.723 186.781,170.556 187.5,168C 185.984,166.103 185.317,163.936 185.5,161.5 Z"/></g>
<g><path style="opacity:1" fill="#b35dd6" d="M 206.5,173.5 C 205.228,178.71 203.395,183.71 201,188.5C 199.5,190 198,191.5 196.5,193C 195.365,193.749 194.365,193.583 193.5,192.5C 192.74,190.64 191.74,188.973 190.5,187.5C 191.496,187.414 192.329,187.748 193,188.5C 193.541,183.448 194.708,178.615 196.5,174C 196.156,172.635 195.489,171.468 194.5,170.5C 194.709,169.914 195.043,169.414 195.5,169C 193.942,168.79 192.609,168.29 191.5,167.5C 195.444,167.887 199.111,167.22 202.5,165.5C 205.935,163.19 207.435,159.856 207,155.5C 208.493,160.423 207.993,165.256 205.5,170C 205.514,171.385 205.848,172.551 206.5,173.5 Z"/></g>
<g><path style="opacity:1" fill="#6f5eed" d="M 192.5,148.5 C 202.511,147.179 206.677,151.512 205,161.5C 203.519,162.471 202.685,163.804 202.5,165.5C 199.111,167.22 195.444,167.887 191.5,167.5C 188.806,166.139 186.806,164.139 185.5,161.5C 185.034,157.838 185.701,154.505 187.5,151.5C 189.001,150.248 190.668,149.248 192.5,148.5 Z"/></g>
<g><path style="opacity:1" fill="#f8f8fd" d="M 192.5,151.5 C 201.307,151.465 203.64,155.298 199.5,163C 191.735,165.575 188.568,162.742 190,154.5C 191.045,153.627 191.878,152.627 192.5,151.5 Z"/></g>
<g><path style="opacity:1" fill="#a25de8" d="M 203.5,141.5 C 206.554,142.196 209.22,143.696 211.5,146C 210.692,146.308 210.025,146.808 209.5,147.5C 210.727,148.59 211.56,149.924 212,151.5C 213.637,159.847 211.804,167.18 206.5,173.5C 205.848,172.551 205.514,171.385 205.5,170C 207.993,165.256 208.493,160.423 207,155.5C 207.435,159.856 205.935,163.19 202.5,165.5C 202.685,163.804 203.519,162.471 205,161.5C 206.677,151.512 202.511,147.179 192.5,148.5C 194.607,147.532 196.941,147.198 199.5,147.5C 199.262,143.901 200.262,143.567 202.5,146.5C 203.452,144.955 203.785,143.288 203.5,141.5 Z"/></g>
<g><path style="opacity:1" fill="#e556a8" d="M 185.5,161.5 C 185.317,163.936 185.984,166.103 187.5,168C 186.781,170.556 185.114,171.723 182.5,171.5C 182.532,169.381 181.532,168.048 179.5,167.5C 178.883,167.389 178.383,167.056 178,166.5C 177.5,163.5 177,160.5 176.5,157.5C 176.52,156.274 176.853,155.274 177.5,154.5C 178.091,149.255 181.091,146.922 186.5,147.5C 185.549,150.215 184.883,153.049 184.5,156C 184.506,158.033 184.839,159.866 185.5,161.5 Z"/></g>
<g><path style="opacity:1" fill="#d65ab7" d="M 187.5,140.5 C 189.527,140.338 191.527,140.505 193.5,141C 192.207,141.49 190.873,141.657 189.5,141.5C 189.561,144.05 190.894,145.55 193.5,146C 190.74,147.179 188.74,149.012 187.5,151.5C 185.701,154.505 185.034,157.838 185.5,161.5C 184.839,159.866 184.506,158.033 184.5,156C 184.883,153.049 185.549,150.215 186.5,147.5C 181.091,146.922 178.091,149.255 177.5,154.5C 177.677,147.646 181.01,142.98 187.5,140.5 Z"/></g>
<g><path style="opacity:1" fill="#bd5acf" d="M 187.5,140.5 C 192.803,139.13 198.137,139.463 203.5,141.5C 203.785,143.288 203.452,144.955 202.5,146.5C 200.262,143.567 199.262,143.901 199.5,147.5C 196.941,147.198 194.607,147.532 192.5,148.5C 190.668,149.248 189.001,150.248 187.5,151.5C 188.74,149.012 190.74,147.179 193.5,146C 190.894,145.55 189.561,144.05 189.5,141.5C 190.873,141.657 192.207,141.49 193.5,141C 191.527,140.505 189.527,140.338 187.5,140.5 Z"/></g>
<g><path style="opacity:1" fill="#5f62d5" d="M 122.5,139.5 C 127.167,139.5 131.833,139.5 136.5,139.5C 136.5,172.833 136.5,206.167 136.5,239.5C 135.502,206.671 135.168,173.671 135.5,140.5C 130.968,140.818 126.634,140.485 122.5,139.5 Z"/></g>
<g><path style="opacity:1" fill="#8e9cfc" d="M 278.5,241.5 C 278.082,242.222 277.416,242.722 276.5,243C 229.835,243.5 183.168,243.667 136.5,243.5C 183.687,242.814 231.02,242.147 278.5,241.5 Z"/></g>
<g><path style="opacity:1" fill="#cae9fd" d="M 281.5,240.5 C 282.222,240.918 282.722,241.584 283,242.5C 283.725,241.941 284.558,241.608 285.5,241.5C 287.577,242.937 289.91,243.604 292.5,243.5C 292.64,245.124 291.973,246.29 290.5,247C 278.892,249.076 267.225,250.743 255.5,252C 216.173,253.815 176.84,253.981 137.5,252.5C 137.828,263.346 137.494,274.013 136.5,284.5C 136.5,270.833 136.5,257.167 136.5,243.5C 183.168,243.667 229.835,243.5 276.5,243C 277.416,242.722 278.082,242.222 278.5,241.5C 279.609,241.443 280.609,241.11 281.5,240.5 Z"/></g>
<g><path style="opacity:0.004" fill="#fefffe" d="M 37.5,253.5 C 38.8333,254.167 38.8333,254.167 37.5,253.5 Z"/></g>
<g><path style="opacity:1" fill="#5f64d7" d="M 136.5,243.5 C 136.5,257.167 136.5,270.833 136.5,284.5C 130.642,284.822 124.975,284.489 119.5,283.5C 124.833,283.5 130.167,283.5 135.5,283.5C 135.171,269.99 135.504,256.656 136.5,243.5 Z"/></g>
<g><path style="opacity:0.004" fill="#fefffe" d="M 18.5,292.5 C 19.8333,293.167 19.8333,293.167 18.5,292.5 Z"/></g>
<g><path style="opacity:0.004" fill="#fefffe" d="M 348.5,296.5 C 349.833,297.167 349.833,297.167 348.5,296.5 Z"/></g>
<g><path style="opacity:0.004" fill="#fefffe" d="M 391.5,298.5 C 392.833,299.167 392.833,299.167 391.5,298.5 Z"/></g>
<g><path style="opacity:0.004" fill="#fefffe" d="M 88.5,299.5 C 87.8333,300.167 87.8333,300.167 88.5,299.5 Z"/></g>
<g><path style="opacity:0.004" fill="#fefffe" d="M 27.5,311.5 C 28.8333,312.167 28.8333,312.167 27.5,311.5 Z"/></g>
<g><path style="opacity:0.004" fill="#fefffe" d="M 37.5,312.5 C 38.8333,313.167 38.8333,313.167 37.5,312.5 Z"/></g>
<g><path style="opacity:0.004" fill="#fefffe" d="M 71.5,315.5 C 72.8333,316.167 72.8333,316.167 71.5,315.5 Z"/></g>
<g><path style="opacity:0.004" fill="#fefffe" d="M 35.5,317.5 C 36.8333,318.167 36.8333,318.167 35.5,317.5 Z"/></g>
<g><path style="opacity:0.004" fill="#fefffe" d="M 57.5,317.5 C 58.8333,318.167 58.8333,318.167 57.5,317.5 Z"/></g>
<g><path style="opacity:0.004" fill="#fefffe" d="M 393.5,320.5 C 393.5,320.833 393.5,321.167 393.5,321.5C 392.83,321.019 392.83,320.685 393.5,320.5 Z"/></g>
<g><path style="opacity:0.004" fill="#fefffe" d="M 64.5,330.5 C 65.8333,331.167 65.8333,331.167 64.5,330.5 Z"/></g>
<g><path style="opacity:0.004" fill="#fefffe" d="M 135.5,331.5 C 136.833,332.167 136.833,332.167 135.5,331.5 Z"/></g>
<g><path style="opacity:0.004" fill="#fefffe" d="M 107.5,335.5 C 108.833,336.167 108.833,336.167 107.5,335.5 Z"/></g>
<g><path style="opacity:0.004" fill="#fefffe" d="M 53.5,337.5 C 54.8333,338.167 54.8333,338.167 53.5,337.5 Z"/></g>
<g><path style="opacity:0.004" fill="#fefffe" d="M 388.5,339.5 C 389.833,340.167 389.833,340.167 388.5,339.5 Z"/></g>
<g><path style="opacity:0.004" fill="#fefffe" d="M 147.5,340.5 C 148.833,341.167 148.833,341.167 147.5,340.5 Z"/></g>
</svg>
